<svg width="320" height="568" viewBox="0 0 320 568" fill="none" xmlns="http://www.w3.org/2000/svg">
<path opacity="0.5" d="M-13.9548 325.361C105.677 246.22 234.957 177.525 375.155 135.154C401.218 127.276 427.789 120.29 455.087 117.701C474.736 115.837 498.537 118.302 507.766 134.27C511.083 140.014 511.89 146.738 511.343 153.211C509.058 180.248 485.501 201.138 463.668 219.494C434.371 244.131 405.383 269.154 374.07 291.629C342.13 314.556 307.804 334.8 277.868 359.88C247.931 384.964 222.053 415.917 212.877 452.082C210.98 459.56 210.318 468.599 216.561 473.734C223.107 479.118 233.32 477.118 241.715 474.689C334.26 447.895 422.848 407.149 518.997 394.907C525.447 394.084 532.377 393.467 538.143 396.23C549.918 401.869 549.772 417.474 545.308 428.921C537.808 448.165 523.219 464.376 507.748 479.114C469.84 515.218 425.274 544.82 380.969 574.216C378.212 561.515 359.64 559.119 345.518 560.083C308.1 562.628 270.928 568.198 234.577 576.701C229.336 567.012 240.048 556.755 249.572 550.358C284.044 527.21 318.52 504.061 352.992 480.913C291.067 481.676 233.938 510.68 173.032 520.946C159.93 523.156 146.36 524.479 133.355 521.861C120.345 519.24 107.865 512.124 102.108 501.141C96.4083 490.267 98.0406 477.134 103.361 466.098C108.681 455.062 117.323 445.693 125.846 436.492C161.889 397.581 203.048 359.916 235.261 318.444C240.418 311.805 244.525 304.036 244.269 295.897C244.172 292.758 243.347 289.507 241.124 287.12C236.28 281.92 227.219 282.832 220.249 285.288C196.647 293.614 172.269 308.292 152.871 322.901C126.711 342.609 97.101 359.497 68.1922 375.582C55.5576 382.613 42.4157 389.51 27.862 391.906C13.3084 394.306 -3.12893 391.41 -13.0019 381.342C-25.8086 368.29 -23.8675 348.017 -17.7443 331.399C-10.5844 311.97 1.2429 293.993 16.6656 279.109" fill="url(#paint0_radial)"/>
<path opacity="0.5" d="M798.194 231.018C740.125 265.976 687.297 307.945 628.209 341.447C569.121 374.945 501.298 400.126 431.905 396.222C430.502 396.141 429.059 396.045 427.789 395.492C421.061 392.572 426.139 383.299 431.645 378.713C470.717 346.199 506.517 310.393 538.443 271.905C553.998 253.15 568.658 233.68 580.882 212.936C586.264 203.8 612.579 158.028 586.052 155.087C573.555 153.704 556.283 160.186 546.141 166.425C528.773 177.114 515.433 192.3 501.783 206.817C472.919 237.52 441.495 266.214 407.875 292.565C396.542 301.447 384.807 310.159 371.29 315.951C368.383 317.198 365.15 318.327 362.026 317.641C352.489 315.556 355.581 302.314 361.316 295.042C377.18 274.927 396.864 257.591 413.769 238.198C430.678 218.804 390.692 236.564 393.339 211.883C394.773 198.516 446.048 143.14 433.969 135.505C419.826 126.562 400.46 131.838 384.953 138.631C340.944 157.911 303.027 186.807 263.318 212.742C223.615 238.678 180.232 262.378 131.934 268.759C128.317 269.235 124.461 269.586 121.153 268.162C111.88 264.177 114.628 251.484 119.498 243.243C136.13 215.102 160.428 191.486 184.445 168.224C221.819 132.024 259.194 95.823 296.568 59.6264C314.144 42.605 331.931 25.4183 353.322 12.5554C374.714 -0.307411 400.376 -8.63256 425.808 -5.92608C393.339 27.5399 360.866 61.0099 328.393 94.4758C320.479 102.636 311.991 113.107 315.882 123.416C340.419 124.78 362.604 111.445 383.855 100.143C413.95 84.142 446.026 71.2671 479.28 61.8408C487.517 59.5054 498.36 58.1663 503.067 64.7731C506.371 69.4157 504.598 75.595 502.203 80.6813C483.092 121.206 432.58 145.508 419.332 187.944C418.216 191.518 417.431 195.511 419.266 198.827C423.589 206.652 436.484 203.703 444.826 199.379C491.068 175.408 531.557 143.326 575.024 115.349C618.49 87.3688 666.735 62.9177 719.567 57.5693C740.553 55.4436 765.637 58.3276 776.176 75.0545C787.491 93.0117 775.377 115.454 762.297 132.379C737.752 164.126 708.909 193.087 676.625 218.393C654.374 235.838 630.084 251.964 613.92 274.322C607.991 282.522 603.16 291.831 603.103 301.661C603.046 311.49 608.763 321.828 618.777 325.406C624.19 327.342 630.216 327.173 636 326.624C685.14 321.973 728.536 292.674 777.755 288.761C785.974 288.108 795.269 288.552 800.951 294.021C806.911 299.761 806.487 309.26 802.23 316.153C797.978 323.046 790.729 327.899 783.592 332.376C740.253 359.57 692.657 381.08 642.71 396.053" fill="url(#paint1_radial)"/>
<path opacity="0.5" d="M319.014 50.9381C282.12 89.446 262.613 150.013 217.531 180.373C211.337 184.544 204.813 188.63 197.326 190.259C189.844 191.889 181.127 190.574 176.054 185.286C170.998 180.018 170.659 172.221 171.973 165.32C177.991 133.758 211.064 111.9 221.435 81.2943C223.579 74.9657 224.25 67.06 218.802 62.6918C214.54 59.2754 208.121 59.4287 202.603 60.6226C184.604 64.5149 170.456 76.7808 156.604 87.9939C141.296 100.385 125.264 112.03 108.602 122.864C101.861 127.248 93.113 131.644 85.8031 128.103C91.4895 114.611 102.315 103.551 112.894 92.8059C132.521 72.8683 152.227 52.6846 166.843 29.4275C170.875 23.0062 174.563 15.1731 171.144 8.46135C160.053 8.17094 150.101 14.2978 141.331 20.5134C95.5702 52.9347 58.5487 94.3346 21.9551 135.351C12.6467 145.782 3.20167 156.426 -2.30833 168.91C-4.42586 173.71 -5.94784 178.917 -5.12288 184.04C-4.29352 189.162 -0.671656 194.156 4.7457 195.668C8.04111 196.588 11.6056 196.16 14.9407 195.378C32.3795 191.296 45.4067 178.486 58.381 167.079C71.4215 155.616 85.3884 145.032 100.132 135.448C109.912 129.087 121.713 122.896 133.28 125.828C128.432 134.044 119.564 139.473 111.999 145.746C104.433 152.018 97.5554 160.593 98.9362 169.846C99.2097 171.689 99.8891 173.593 101.451 174.787C104.521 177.126 109.162 175.642 112.643 173.847C135.433 162.077 150.714 141.45 168.775 124.13C173.12 119.963 178.542 115.66 184.811 116.224C176.941 138.05 160.102 156.132 142.504 172.536C105.986 206.583 64.3233 236.306 32.5957 274.156C22.9962 285.611 14.1025 298.414 12.6864 312.789C12.0732 319.017 13.0614 325.684 17.2612 330.617C26.2607 341.181 44.2862 338.894 58.0237 334.247C99.1391 320.34 134.392 294.937 166.3 267.448C232.094 210.774 286.872 143.438 327.312 69.5245C331.137 62.5304 335.125 55.1693 342.152 50.7123L319.014 50.9381Z" fill="url(#paint2_radial)"/>
<defs>
<radialGradient id="paint0_radial" cx="0" cy="0" r="1" gradientUnits="userSpaceOnUse" gradientTransform="translate(262.805 346.937) scale(268.844 245.806)">
<stop offset="0.0593" stop-color="#001256"/>
<stop offset="0.322" stop-color="#001151" stop-opacity="0.7092"/>
<stop offset="0.6269" stop-color="#000E43" stop-opacity="0.3719"/>
<stop offset="0.9515" stop-color="#00092C" stop-opacity="0.0127"/>
<stop offset="0.963" stop-color="#00092B" stop-opacity="0"/>
</radialGradient>
<radialGradient id="paint1_radial" cx="0" cy="0" r="1" gradientUnits="userSpaceOnUse" gradientTransform="translate(460.216 195.092) scale(289.61 264.794)">
<stop offset="0.0593" stop-color="#001256"/>
<stop offset="0.322" stop-color="#001151" stop-opacity="0.7092"/>
<stop offset="0.6269" stop-color="#000E43" stop-opacity="0.3719"/>
<stop offset="0.9515" stop-color="#00092C" stop-opacity="0.0127"/>
<stop offset="0.963" stop-color="#00092B" stop-opacity="0"/>
</radialGradient>
<radialGradient id="paint2_radial" cx="0" cy="0" r="1" gradientUnits="userSpaceOnUse" gradientTransform="translate(168.411 173.3) scale(177.055 161.883)">
<stop offset="0.0593" stop-color="#430056"/>
<stop offset="0.322" stop-color="#3F0051" stop-opacity="0.7092"/>
<stop offset="0.6269" stop-color="#340043" stop-opacity="0.3719"/>
<stop offset="0.9515" stop-color="#22002C" stop-opacity="0.0127"/>
<stop offset="0.963" stop-color="#21002B" stop-opacity="0"/>
</radialGradient>
</defs>
</svg>
