<svg width="183" height="164" viewBox="0 0 183 164" fill="none" xmlns="http://www.w3.org/2000/svg">
<g opacity="0.66">
<g opacity="0.66">
<path opacity="0.66" d="M112.994 164C97.7333 164 82.9398 161.416 69.0033 156.323C55.5455 151.4 43.4568 144.362 33.0824 135.389C22.708 126.416 14.5598 115.967 8.87169 104.344C2.9832 92.2987 0 79.5013 0 66.3187C0 41.0527 11.1202 17.0834 31.3014 -1.17316C31.6687 -1.50202 32.2698 -1.52081 32.6594 -1.21074C33.049 -0.900672 33.0713 -0.393285 32.7039 -0.0644232C12.8567 17.8914 1.92572 41.4661 1.92572 66.3187C1.92572 91.9793 13.4801 116.108 34.4627 134.252C55.4453 152.386 83.3294 162.384 112.994 162.384C142.659 162.384 170.555 152.396 191.526 134.252C212.509 116.108 224.063 91.9793 224.063 66.3187C224.063 42.2836 214.568 20.3908 196.602 2.98929C196.257 2.65103 196.29 2.13425 196.691 1.84298C197.092 1.5517 197.704 1.57989 198.049 1.91814C206.999 10.5907 213.945 20.4378 218.676 31.1962C223.529 42.2178 225.989 54.0286 225.989 66.3093C225.989 79.4919 223.006 92.28 217.117 104.326C211.429 115.958 203.281 126.406 192.906 135.37C182.532 144.343 170.443 151.39 156.986 156.305C143.06 161.416 128.256 164 112.994 164Z" fill="url(#paint0_linear)"/>
</g>
<path opacity="0.66" d="M181.174 80.7134C181.43 79.8114 181.664 78.8906 181.875 77.9792C181.964 77.5939 182.399 77.3402 182.855 77.4154C183.311 77.4906 183.612 77.857 183.523 78.2423C183.311 79.1819 183.066 80.1215 182.799 81.0423C182.71 81.3617 182.365 81.5872 181.987 81.5872C181.92 81.5872 181.853 81.5779 181.786 81.5685C181.341 81.4745 181.063 81.0893 181.174 80.7134ZM183.946 66.4314C183.478 66.4314 183.111 66.7509 183.111 67.1361C183.1 68.9496 183 70.7818 182.799 72.5764C182.755 72.9617 183.089 73.3093 183.556 73.3469C183.578 73.3469 183.612 73.3469 183.634 73.3469C184.057 73.3469 184.424 73.0744 184.469 72.708C184.68 70.8664 184.792 68.9965 184.792 67.1361C184.781 66.7509 184.402 66.4314 183.946 66.4314ZM182.655 61.7052C182.699 62.0717 183.066 62.3441 183.489 62.3441C183.512 62.3441 183.545 62.3441 183.567 62.3441C184.024 62.3066 184.369 61.9589 184.324 61.5737C184.168 60.2676 184.024 59.3186 183.857 58.6891C183.757 58.3038 183.311 58.0595 182.855 58.1441C182.399 58.2287 182.109 58.6045 182.209 58.9898C182.365 59.5535 182.51 60.4743 182.655 61.7052ZM55.8572 98.4156C55.6011 98.0867 55.0891 97.9928 54.6995 98.1995C54.3099 98.4062 54.1986 98.8478 54.4435 99.1767C55.0557 99.9753 55.6902 100.774 56.3469 101.554C56.5139 101.751 56.7699 101.855 57.026 101.855C57.1929 101.855 57.3599 101.808 57.5157 101.723C57.8942 101.497 57.9833 101.056 57.7161 100.736C57.0705 99.9753 56.4471 99.1954 55.8572 98.4156ZM101.028 124.236C98.8799 123.888 96.7204 123.456 94.6166 122.93C94.1713 122.817 93.7038 123.033 93.5814 123.409C93.4478 123.785 93.7038 124.18 94.1491 124.283C96.2974 124.809 98.5126 125.26 100.717 125.617C100.772 125.627 100.817 125.627 100.872 125.627C101.262 125.627 101.618 125.392 101.696 125.053C101.785 124.678 101.485 124.311 101.028 124.236ZM114.141 125.269H114.019C114.007 125.269 114.007 125.269 113.996 125.269C111.848 125.269 109.677 125.185 107.551 125.016C107.095 124.978 106.683 125.269 106.638 125.655C106.594 126.04 106.939 126.388 107.395 126.425C109.577 126.594 111.803 126.679 113.996 126.679C113.996 126.679 114.007 126.679 114.019 126.679H114.141C114.609 126.679 114.976 126.359 114.976 125.974C114.987 125.58 114.609 125.269 114.141 125.269ZM127.265 124.198C125.117 124.546 122.924 124.818 120.742 124.997C120.286 125.035 119.94 125.382 119.985 125.767C120.029 126.134 120.397 126.406 120.82 126.406C120.842 126.406 120.875 126.406 120.898 126.406C123.135 126.228 125.384 125.946 127.588 125.589C128.044 125.514 128.345 125.147 128.256 124.762C128.155 124.377 127.71 124.123 127.265 124.198ZM139.888 121.041C137.862 121.737 135.758 122.347 133.665 122.873C133.22 122.986 132.964 123.381 133.098 123.757C133.209 124.067 133.543 124.264 133.899 124.264C133.977 124.264 134.055 124.255 134.133 124.236C136.281 123.7 138.43 123.061 140.511 122.357C140.945 122.206 141.146 121.793 140.979 121.436C140.812 121.069 140.322 120.891 139.888 121.041ZM61.7902 105.115C61.4896 104.824 60.9553 104.786 60.6103 105.04C60.2541 105.293 60.2207 105.744 60.5212 106.036C61.9905 107.464 63.5601 108.855 65.1741 110.161C65.3411 110.292 65.5415 110.358 65.7529 110.358C65.9756 110.358 66.1982 110.283 66.3652 110.142C66.688 109.86 66.6768 109.409 66.3429 109.136C64.7511 107.868 63.215 106.506 61.7902 105.115ZM88.383 121.116C86.3571 120.431 84.3312 119.651 82.3832 118.805C81.9713 118.626 81.4704 118.758 81.2478 119.106C81.0363 119.453 81.1921 119.876 81.604 120.064C83.5965 120.929 85.667 121.727 87.7485 122.432C87.8487 122.469 87.96 122.479 88.0602 122.479C88.3941 122.479 88.7058 122.31 88.8394 122.037C89.0286 121.68 88.8171 121.267 88.383 121.116ZM76.6839 116.024C74.8473 115.028 73.0329 113.938 71.3186 112.792C70.9513 112.547 70.4281 112.604 70.1387 112.914C69.8493 113.224 69.9161 113.665 70.2834 113.91C72.0533 115.084 73.9011 116.193 75.7823 117.217C75.927 117.292 76.0829 117.33 76.2387 117.33C76.517 117.33 76.7841 117.217 76.94 117.001C77.1849 116.672 77.0735 116.23 76.6839 116.024ZM148.804 117.349C147.847 117.818 146.878 118.269 145.899 118.702C145.487 118.88 145.331 119.312 145.543 119.66C145.687 119.904 145.988 120.045 146.288 120.045C146.422 120.045 146.556 120.017 146.678 119.961C147.669 119.519 148.67 119.059 149.65 118.579C150.051 118.382 150.184 117.95 149.951 117.612C149.728 117.264 149.205 117.151 148.804 117.349ZM110.668 8.7115C110.679 8.7115 110.69 8.7115 110.713 8.7115C111.815 8.66451 112.928 8.64572 114.03 8.64572C114.497 8.64572 114.865 8.32626 114.865 7.94102C114.865 7.54639 114.486 7.23632 114.03 7.23632C112.905 7.23632 111.759 7.25511 110.635 7.30209C110.167 7.32088 109.811 7.64974 109.833 8.04438C109.855 8.42022 110.223 8.7115 110.668 8.7115ZM87.3144 13.1088C87.4257 13.1088 87.5259 13.0901 87.6372 13.0525C89.4628 12.4135 91.3328 11.8404 93.214 11.3424C93.6593 11.2202 93.9042 10.8256 93.7595 10.4498C93.6148 10.0739 93.1472 9.86721 92.702 9.98936C90.7763 10.5061 88.8505 11.0887 86.9916 11.7464C86.5686 11.8968 86.3571 12.3102 86.5352 12.6672C86.6688 12.9397 86.9805 13.1088 87.3144 13.1088ZM104.568 7.7625C102.564 7.988 100.55 8.28867 98.5793 8.66452C98.123 8.74908 97.8447 9.12492 97.9449 9.51016C98.0339 9.83902 98.379 10.0645 98.7686 10.0645C98.8242 10.0645 98.891 10.0551 98.9467 10.0457C100.872 9.68868 102.832 9.38801 104.791 9.1719C105.247 9.11553 105.57 8.76787 105.514 8.37324C105.447 7.9786 105.024 7.70612 104.568 7.7625ZM78.9214 16.6136C79.0661 16.6136 79.2108 16.5854 79.3443 16.5196C80.3016 16.0498 81.2701 15.5988 82.2496 15.176C82.6615 14.9975 82.8173 14.5652 82.6058 14.2176C82.3943 13.8699 81.8823 13.7384 81.4704 13.9169C80.4686 14.3491 79.4668 14.8189 78.4984 15.2981C78.0976 15.4954 77.9641 15.9277 78.1978 16.2659C78.3537 16.482 78.6319 16.6136 78.9214 16.6136ZM114.775 18.474C114.775 11.3518 121.644 5.55442 130.081 5.55442C135.435 5.55442 140.166 7.89404 142.893 11.427C143.261 8.6927 145.999 6.5504 149.338 6.53161C151.097 6.54101 152.733 7.08598 153.98 8.11954C155.227 9.15311 155.917 10.5343 155.928 12.0095C155.939 13.0619 155.583 14.0485 154.982 14.8941C162.151 16.6887 167.583 21.9411 168.406 28.5466L170.933 43.2326C170.933 43.242 170.933 43.2514 170.933 43.2608C171.289 46.1078 172.993 47.0474 175.742 48.2595C177.467 49.0205 178.547 50.5145 178.569 52.1776C178.592 54.6394 176.243 56.6595 173.326 56.6783L157.943 56.7817C157.553 57.3267 157.097 57.8434 156.551 58.3132C154.759 59.8448 152.377 60.6998 149.817 60.7186C149.795 60.7186 149.761 60.7186 149.739 60.7186C147.212 60.7186 144.841 59.9012 143.038 58.3978C142.481 57.9374 142.014 57.43 141.624 56.885L126.241 56.9884C126.23 56.9884 126.207 56.9884 126.196 56.9884C124.794 56.9884 123.48 56.5374 122.49 55.7011C121.488 54.8649 120.92 53.7468 120.909 52.5535C120.898 50.8998 121.944 49.387 123.658 48.5977C126.397 47.348 128.077 46.3896 128.378 43.5333L130.237 31.3748C130.17 31.3748 130.115 31.3748 130.048 31.3748C121.644 31.403 114.775 25.6056 114.775 18.474ZM155.917 56.8005L143.706 56.885C143.873 57.0636 144.051 57.2421 144.251 57.4018C145.754 58.6515 147.724 59.3374 149.839 59.3092C151.943 59.2998 153.913 58.5951 155.383 57.3267C155.572 57.1575 155.75 56.979 155.917 56.8005ZM144.53 12.0847C144.541 13.184 145.053 14.2082 145.977 14.9787C146.889 15.7397 148.103 16.1626 149.394 16.1626C149.405 16.1626 149.416 16.1626 149.427 16.1626C152.11 16.1438 154.281 14.2834 154.258 12.0189C154.247 10.9196 153.735 9.8954 152.811 9.12492C151.899 8.36384 150.685 7.94102 149.394 7.94102C149.383 7.94102 149.372 7.94102 149.361 7.94102C146.667 7.95981 144.507 9.82023 144.53 12.0847ZM145.153 16.2565C145.298 16.98 145.387 17.7223 145.387 18.474C145.387 25.0606 139.521 30.5009 131.973 31.2902L130.07 43.7024C129.691 47.2071 127.421 48.5132 124.482 49.8568C123.324 50.3924 122.601 51.4165 122.612 52.5535C122.623 54.226 124.248 55.579 126.219 55.579H126.252L173.326 55.2689C175.319 55.2595 176.922 53.8783 176.911 52.1964C176.9 51.0689 176.165 50.0447 174.996 49.5279C172.035 48.2313 169.742 46.9534 169.297 43.4393L166.759 28.7345C165.98 22.4861 160.715 17.572 153.835 16.1062C152.678 17.0082 151.142 17.572 149.439 17.5908C149.416 17.5908 149.405 17.5908 149.383 17.5908C147.824 17.5814 146.333 17.1116 145.153 16.2565ZM116.456 18.474C116.456 24.8163 122.567 29.9748 130.081 29.9748C137.595 29.9748 143.706 24.8163 143.706 18.474C143.706 12.1317 137.595 6.96383 130.081 6.96383C122.567 6.96383 116.456 12.1317 116.456 18.474ZM129.691 13.4001H129.747V25.5492H131.896V11.6431H129.992L126.397 13.2686L126.831 14.7062L129.691 13.4001ZM189.478 107.924V112.792C189.478 113.186 189.1 113.496 188.643 113.496H179.204L175.764 115.845C175.542 115.996 175.508 116.287 175.686 116.484L185.293 127.008C185.571 127.308 185.515 127.75 185.159 127.994L181.942 130.202C181.797 130.306 181.608 130.362 181.419 130.362C181.386 130.362 181.352 130.362 181.319 130.353C181.096 130.334 180.885 130.231 180.751 130.08L171.145 119.557C171.067 119.463 170.944 119.406 170.822 119.397C170.699 119.388 170.566 119.416 170.466 119.482L165.946 122.573C165.579 122.827 165.089 122.902 164.644 122.77C164.188 122.639 163.854 122.329 163.742 121.934L161.338 113.496H110.323C109.855 113.496 109.488 113.177 109.488 112.792V107.924C109.488 107.53 109.867 107.22 110.323 107.22H113.495V74.7469C113.495 74.3523 113.874 74.0422 114.33 74.0422H125.54V70.1335C125.54 69.7388 125.918 69.4288 126.374 69.4288H138.418C138.886 69.4288 139.253 69.7482 139.253 70.1335V71.9939H150.463C150.93 71.9939 151.297 72.3133 151.297 72.6986V86.3698H179.193C182.643 86.3698 185.449 88.7376 185.449 91.6504V92.9283C185.449 94.8827 184.18 96.5833 182.309 97.5042C184.18 98.4156 185.449 100.126 185.449 102.08V103.358C185.449 104.88 184.669 106.261 183.445 107.22H188.621C189.1 107.22 189.478 107.53 189.478 107.924ZM179.204 98.2089H151.309V107.22H159.524L158.199 102.569C158.11 102.259 158.243 101.939 158.544 101.742C158.833 101.544 159.245 101.516 159.568 101.667L172.024 107.22H179.215C181.742 107.22 183.79 105.491 183.79 103.358V102.08C183.79 99.9377 181.731 98.2089 179.204 98.2089ZM151.309 87.7793V96.7901H179.204C181.731 96.7901 183.779 95.0612 183.779 92.9283V91.6504C183.779 89.5175 181.731 87.7886 179.204 87.7886H151.309V87.7793ZM139.264 73.4033V107.21H149.628V97.4948V87.0745V73.4033H139.264ZM127.22 74.7469V107.21H137.584V72.6986V70.8382H127.22V74.7469ZM115.176 107.22H125.54V75.461H115.176V107.22ZM160.915 112.077L159.935 108.629H150.474H138.43H126.385H114.341H111.169V112.077H160.915ZM178.892 111.88L160.203 103.555L165.245 121.22L169.397 118.382C169.787 118.119 170.254 117.978 170.744 117.978C170.833 117.978 170.911 117.978 171 117.988C171.579 118.044 172.102 118.298 172.458 118.692L181.541 128.643L183.456 127.327L174.339 117.349C173.605 116.55 173.772 115.375 174.696 114.746L178.892 111.88ZM187.797 108.629H179.204H175.197L180.061 110.79C180.473 110.978 180.751 111.316 180.796 111.72C180.807 111.843 180.796 111.965 180.762 112.077H187.797V108.629ZM65.9422 15.035C65.9422 15.3921 66.2873 15.6834 66.7102 15.6834C67.1332 15.6834 67.4783 15.3921 67.4783 15.035V11.4082H71.775C72.198 11.4082 72.5431 11.1169 72.5431 10.7598C72.5431 10.4028 72.198 10.1115 71.775 10.1115H67.4783V6.49403C67.4783 6.13698 67.1332 5.8457 66.7102 5.8457C66.2873 5.8457 65.9422 6.13698 65.9422 6.49403V10.1209H61.6455C61.2225 10.1209 60.8774 10.4122 60.8774 10.7692C60.8774 11.1263 61.2225 11.4176 61.6455 11.4176H65.9422V15.035ZM86.435 104.899C86.435 107.107 84.2978 108.911 81.6819 108.911C79.0661 108.911 76.9288 107.107 76.9288 104.899C76.9288 102.691 79.0549 100.887 81.6819 100.887C84.2978 100.887 86.435 102.681 86.435 104.899ZM84.91 104.899C84.91 103.395 83.4629 102.174 81.6819 102.174C79.9009 102.174 78.4538 103.395 78.4538 104.899C78.4538 106.402 79.9009 107.624 81.6819 107.624C83.4629 107.614 84.91 106.393 84.91 104.899ZM50.6366 114.971C50.6366 117.179 48.4993 118.984 45.8835 118.984C43.2676 118.984 41.1304 117.179 41.1304 114.971C41.1304 112.763 43.2565 110.959 45.8835 110.959C48.4993 110.959 50.6366 112.754 50.6366 114.971ZM49.1116 114.971C49.1116 113.468 47.6645 112.247 45.8835 112.247C44.1024 112.247 42.6554 113.468 42.6554 114.971C42.6554 116.475 44.1024 117.696 45.8835 117.696C47.6645 117.687 49.1116 116.465 49.1116 114.971ZM143.94 0.565121H141.669V-1.35167C141.669 -1.70872 141.324 -2 140.901 -2C140.478 -2 140.133 -1.70872 140.133 -1.35167V0.565121H137.862C137.439 0.565121 137.094 0.856399 137.094 1.21345C137.094 1.5705 137.439 1.86178 137.862 1.86178H140.133V3.77857C140.133 4.13562 140.478 4.4269 140.901 4.4269C141.324 4.4269 141.669 4.13562 141.669 3.77857V1.85238H143.94C144.363 1.85238 144.708 1.5611 144.708 1.20405C144.708 0.847003 144.363 0.565121 143.94 0.565121ZM102.186 116.371H99.9151V114.455C99.9151 114.098 99.57 113.806 99.147 113.806C98.724 113.806 98.379 114.098 98.379 114.455V116.371H96.1082C95.6852 116.371 95.3401 116.663 95.3401 117.02C95.3401 117.377 95.6852 117.668 96.1082 117.668H98.379V119.585C98.379 119.942 98.724 120.233 99.147 120.233C99.57 120.233 99.9151 119.942 99.9151 119.585V117.668H102.186C102.609 117.668 102.954 117.377 102.954 117.02C102.943 116.653 102.598 116.371 102.186 116.371ZM184.213 25.6808H181.942V23.764C181.942 23.4069 181.597 23.1156 181.174 23.1156C180.751 23.1156 180.406 23.4069 180.406 23.764V25.6808H178.135C177.712 25.6808 177.367 25.972 177.367 26.3291C177.367 26.6861 177.712 26.9774 178.135 26.9774H180.406V28.8942C180.406 29.2513 180.751 29.5425 181.174 29.5425C181.597 29.5425 181.942 29.2513 181.942 28.8942V26.9774H184.213C184.636 26.9774 184.981 26.6861 184.981 26.3291C184.981 25.972 184.636 25.6808 184.213 25.6808ZM172.792 11.427C172.792 13.1276 171.156 14.5089 169.141 14.5089C167.126 14.5089 165.49 13.1276 165.49 11.427C165.49 9.72627 167.126 8.34505 169.141 8.34505C171.156 8.34505 172.792 9.72627 172.792 11.427ZM171.267 11.427C171.267 10.4404 170.321 9.6417 169.152 9.6417C167.983 9.6417 167.037 10.4404 167.037 11.427C167.037 12.4135 167.983 13.2122 169.152 13.2122C170.321 13.2122 171.267 12.4135 171.267 11.427ZM170.922 73.4315C170.922 75.1322 169.286 76.5134 167.271 76.5134C165.256 76.5134 163.631 75.1322 163.631 73.4315C163.631 71.7308 165.267 70.3496 167.282 70.3496C169.297 70.3496 170.922 71.7308 170.922 73.4315ZM169.397 73.4315C169.397 72.4449 168.451 71.6462 167.282 71.6462C166.113 71.6462 165.167 72.4449 165.167 73.4315C165.167 74.4181 166.113 75.2167 167.282 75.2167C168.451 75.2167 169.397 74.4181 169.397 73.4315Z" fill="url(#paint1_linear)"/>
<g opacity="0.66">
<g opacity="0.66">
<g opacity="0.66">
<path opacity="0.66" d="M76.8732 36.4392C77.4186 38.4969 74.1126 40.4419 72.4651 41.4097C68.814 43.552 64.662 45.1118 60.5212 46.4178C55.1002 48.1373 49.4677 49.434 43.7796 50.3266C38.9041 51.0971 33.8838 51.6044 28.9081 51.4165C26.5037 51.3226 21.9844 51.2286 20.5039 49.2084C19.2238 47.4608 22.0401 45.45 23.4426 44.501C26.8154 42.2272 30.9006 40.6392 34.8857 39.2862C40.1063 37.5198 45.5495 36.1855 51.0484 35.1989C56.6586 34.2029 62.4692 33.4982 68.213 33.7237C70.5617 33.8271 76.016 33.9492 76.8732 36.4392C77.0846 37.0593 78.2312 36.7963 78.0197 36.1761C77.2294 33.8835 73.6562 33.2633 71.2518 32.9815C66.2204 32.3801 61.011 32.8029 56.013 33.4513C49.6124 34.2781 43.2676 35.6405 37.1787 37.5104C32.5369 38.9292 27.8506 40.6205 23.8099 43.054C21.8397 44.2379 18.9789 46.0796 19.0235 48.3722C19.0569 50.6648 22.2293 51.595 24.411 51.9897C29.1753 52.8447 34.2734 52.5065 39.0488 51.9803C45.3714 51.2944 51.6384 50.0447 57.6827 48.344C63.1037 46.8219 68.6471 44.952 73.3334 42.1332C75.4483 40.8554 78.7098 38.7318 78.0197 36.1855C77.8416 35.5466 76.7062 35.8097 76.8732 36.4392Z" fill="#4C7CFF"/>
</g>
</g>
<g opacity="0.66">
<g opacity="0.66">
<path opacity="0.66" d="M89.0954 76.504C89.6408 78.5241 86.4461 80.4315 84.8209 81.3993C81.1476 83.5886 76.9399 85.1578 72.7434 86.492C67.4004 88.1833 61.8569 89.4611 56.2579 90.3632C51.2933 91.1524 46.1951 91.688 41.1303 91.5001C38.7816 91.4061 33.3384 91.284 32.4813 88.8034C32.2698 88.1833 31.1233 88.4464 31.3347 89.0665C32.1251 91.3685 35.6982 91.9793 38.1026 92.2612C43.0561 92.8531 48.1876 92.4491 53.1077 91.8196C59.5973 91.0021 66.0201 89.6209 72.1868 87.7323C76.8286 86.3135 81.5149 84.6222 85.5556 82.1886C87.6706 80.9107 90.9321 78.7872 90.2419 76.2409C90.0749 75.6114 88.9284 75.8839 89.0954 76.504Z" fill="#4C7CFF"/>
</g>
</g>
<path opacity="0.66" d="M31.9024 88.9349C30.7336 85.0919 42.711 79.163 58.6622 75.6865C74.6135 72.2193 88.4943 72.5294 89.6742 76.3724" stroke="#4C7CFF" stroke-width="1.7024" stroke-miterlimit="10" stroke-linecap="round" stroke-dasharray="4.26 4.26"/>
<g opacity="0.66">
<g opacity="0.66">
<path opacity="0.66" d="M19.4464 48.7574C23.5316 62.1656 27.1382 75.6677 31.2234 89.0665C31.4126 89.6866 32.5592 89.4235 32.3699 88.8034C28.2736 75.3952 24.667 61.8931 20.5818 48.4943C20.3926 47.8648 19.2572 48.1279 19.4464 48.7574Z" fill="#4C7CFF"/>
</g>
</g>
<g opacity="0.66">
<g opacity="0.66">
<path opacity="0.66" d="M77.0736 36.2325C81.1588 49.6407 84.7653 63.1428 88.8505 76.5415C89.0398 77.1617 90.1863 76.8986 89.9971 76.2785C85.9119 62.8703 82.3053 49.3682 78.2201 35.9694C78.0197 35.3399 76.8843 35.603 77.0736 36.2325Z" fill="#4C7CFF"/>
</g>
</g>
<path opacity="0.66" d="M48.7554 42.3775C52.9185 56.0112 56.347 68.9871 60.5323 82.6866" stroke="#4C7CFF" stroke-width="1.7024" stroke-miterlimit="10" stroke-linecap="round" stroke-dasharray="4.26 4.26"/>
<path opacity="0.66" d="M89.6631 76.3724L60.5434 82.7053" stroke="#4C7CFF" stroke-width="1.7024" stroke-miterlimit="10" stroke-linecap="round" stroke-dasharray="4.26 4.26"/>
<g opacity="0.66">
<g opacity="0.66">
<path opacity="0.66" d="M44.6924 61.5173C45.4048 63.669 46.273 65.7831 47.286 67.8408C47.5754 68.4234 48.5661 68.2167 48.4325 67.5778C48.2766 66.8543 47.8759 66.1402 47.8871 65.3979C47.8871 64.9563 48.1208 64.3267 48.7108 64.2328C49.3675 64.12 49.9241 64.7401 50.1467 65.1818C50.5029 65.8959 50.6142 66.6757 51.0038 67.3804C51.1374 67.6247 51.5604 67.6905 51.8164 67.559C52.117 67.4086 52.1615 67.1173 52.0279 66.873C51.5604 66.0274 51.5381 65.0408 50.9036 64.2609C50.3359 63.5656 49.3341 63.0113 48.31 63.2838C47.375 63.5281 46.8518 64.3173 46.7405 65.0972C46.6069 66.0368 47.1079 66.9294 47.2971 67.8408C47.6756 67.7563 48.054 67.6623 48.4436 67.5778C47.4307 65.52 46.5624 63.4059 45.85 61.2542C45.6274 60.6341 44.492 60.8972 44.6924 61.5173Z" fill="#4C7CFF"/>
</g>
</g>
</g>
</g>
<defs>
<linearGradient id="paint0_linear" x1="32.0766" y1="-1.81923" x2="166.627" y2="157.58" gradientUnits="userSpaceOnUse">
<stop stop-color="#1EB4FF"/>
<stop offset="1" stop-color="#5C52B3"/>
</linearGradient>
<linearGradient id="paint1_linear" x1="41.1319" y1="64.1799" x2="189.475" y2="64.1799" gradientUnits="userSpaceOnUse">
<stop stop-color="#1EB4FF"/>
<stop offset="1" stop-color="#7970CF"/>
</linearGradient>
</defs>
</svg>
