<svg width="188" height="161" viewBox="0 0 188 161" fill="none" xmlns="http://www.w3.org/2000/svg">
<g clip-path="url(#clip0)">
<path d="M-4.75725 29.3716L-4.75725 66.8652C-4.75725 89.9344 13.8226 108.642 36.7472 108.642L96.7721 108.642C127.804 108.642 153.213 132.878 155.341 163.569L-43.4861 163.569L-43.4861 0.708518L-33.2333 0.708519C-17.5064 0.708519 -4.75725 13.5414 -4.75725 29.3716Z" fill="#EED061"/>
<path d="M11.5148 161.236C11.5148 172.276 2.56033 181.226 -8.48556 181.226C-19.5314 181.226 -28.4859 172.276 -28.4859 161.236C-28.4859 150.196 -19.5314 141.247 -8.48556 141.247C2.56033 141.247 11.5148 150.196 11.5148 161.236Z" fill="#FD66A3"/>
<g clip-path="url(#clip1)">
<path opacity="0.1" d="M54.0171 142.474C87.3572 161.747 129.989 150.31 149.238 116.928C168.487 83.5467 157.064 40.862 123.724 21.5892C90.3835 2.31636 47.7517 13.7537 28.5028 47.1352C9.25393 80.5167 20.6771 123.201 54.0171 142.474Z" fill="#B3D9DC"/>
<path d="M40.9677 94.3618C47.7466 119.692 73.7509 134.725 99.0499 127.937C124.349 121.15 139.363 95.1134 132.584 69.7829C125.805 44.4525 99.8005 29.4202 74.5015 36.2075C49.2025 42.9948 34.1889 69.0314 40.9677 94.3618Z" fill="#6A2E8B"/>
<path d="M132.791 69.7273C132.393 68.2417 131.928 66.7882 131.398 65.3798C121.118 59.8152 108.777 58.0225 96.5959 61.2904C71.2946 68.0783 56.2844 94.1185 63.0622 119.445C63.4597 120.93 63.9251 122.384 64.4548 123.792C74.7356 129.357 87.0828 131.148 99.2637 127.88C124.56 121.1 139.57 95.06 132.791 69.7273Z" fill="#7E4796"/>
<path d="M44.6516 64.741C44.3794 64.4247 43.9351 63.932 43.383 63.3222C42.1382 66.2219 41.1852 69.2518 40.5395 72.3661C52.8668 84.592 65.0854 96.9304 77.2608 109.315C83.5198 115.681 89.6269 122.205 95.7578 128.688C96.9272 128.465 98.0926 128.201 99.2589 127.888C100.445 127.57 101.605 127.21 102.747 126.806C94.0479 115.241 83.23 105.697 73.102 95.2803C63.4361 85.3442 53.6235 75.3014 44.6516 64.741Z" fill="#354F81"/>
<path d="M85.5491 34.5438C88.121 38.575 91.2188 42.3398 94.0048 46.237C101.622 56.9244 109.543 67.2451 117.567 77.6357C121.639 82.9123 125.463 88.2484 129.282 93.6971C129.752 94.3636 130.693 96.0372 131.774 97.6383C132.685 95.0229 133.372 92.3216 133.82 89.5592C133.42 88.5543 132.96 87.5373 132.469 86.5078C127.827 76.8438 123.145 67.3647 116.692 58.7429C112.77 53.5094 108.834 48.3771 105.164 42.9651C103.615 40.6827 102.124 38.4825 100.349 36.4417C95.6083 35.0505 90.6247 34.385 85.5491 34.5438Z" fill="#354F81"/>
<path d="M108.649 81.6274C97.7233 68.2539 87.3942 54.7758 77.729 40.4312C77.0031 39.3536 75.9323 37.7914 75.0263 36.0667C74.9226 36.0945 74.8107 36.1176 74.7071 36.1454C71.6165 36.9746 68.6853 38.0878 65.9259 39.4538C79.0204 53.3789 90.0261 68.97 101.494 84.2633C108.632 93.7858 115.692 103.142 124.048 111.636C125.264 110.106 126.391 108.504 127.41 106.84C125.994 104.529 124.383 102.326 122.852 100.213C118.305 93.965 113.535 87.6103 108.649 81.6274Z" fill="#354F81"/>
<path d="M104.278 106.343C91.7734 93.0662 78.5529 80.4612 67.5648 65.818C63.0327 59.7818 58.3524 53.6325 55.297 46.6788C52.6395 49.0744 50.2714 51.7469 48.2359 54.6501C55.9373 62.1235 63.4065 69.9234 70.757 77.7204C81.3427 88.9394 91.2303 100.742 101.372 112.351C104.565 116.007 108.126 119.349 111.851 122.473C113.21 121.635 114.518 120.735 115.774 119.772C115.429 119.337 115.095 118.919 114.803 118.531C111.521 114.259 107.964 110.256 104.278 106.343Z" fill="#354F81"/>
<path d="M131.364 89.1754L131.218 88.6304C128.668 84.9411 126.711 80.9745 124.798 76.8362C122.14 71.0829 118.861 65.5242 115.532 60.1455C114.663 58.7379 105.889 46.115 103.434 48.7483C101.526 50.8038 110.642 61.075 111.849 62.7816C118.337 71.999 124.954 81.1817 130.649 90.8133C131.63 90.7658 131.779 89.9471 131.364 89.1754Z" fill="#4A70AE"/>
<path d="M119.652 103.122L119.472 102.607C116.864 99.1911 114.759 95.4796 112.68 91.6014C109.794 86.2153 106.36 81.0387 102.909 76.0335C102.004 74.726 93.0424 63.0364 91.1016 65.6708C89.5887 67.7246 98.6457 77.1496 99.873 78.7255C106.489 87.2549 113.221 95.7531 119.176 104.717C120.035 104.633 120.095 103.845 119.652 103.122Z" fill="#4A70AE"/>
<path d="M76.9145 81.2415C84.2903 88.8996 91.114 97.0117 97.9933 105.046C99.2663 106.533 106.603 116.796 108.712 116.271C111.423 115.607 101.983 104.671 100.915 103.533C96.8205 99.1589 92.5631 94.7456 88.0269 90.6922C84.766 87.7707 81.6619 84.8906 78.8992 81.7033L78.4482 81.3932C77.8525 80.8021 77.1133 80.5832 76.9145 81.2415Z" fill="#4A70AE"/>
<path d="M56.8496 83.9824C64.2237 91.634 71.0491 99.7526 77.9284 107.787C79.2014 109.274 86.5379 119.536 88.6476 119.012C91.3585 118.347 81.9182 107.412 80.8496 106.273C76.7556 101.9 72.4982 97.4865 67.962 93.4331C64.7011 90.5116 61.597 87.6315 58.8343 84.4442L58.3833 84.1341C57.7876 83.543 57.0567 83.3289 56.8496 83.9824Z" fill="#4A70AE"/>
<path d="M43.4517 121.73C42.2816 117.358 44.8622 111.743 44.9816 111.488C45.2079 111.01 45.7706 110.804 46.2544 111.028C46.7317 111.255 46.938 111.818 46.7135 112.303C46.6868 112.359 43.9588 118.305 45.5615 121.984C46.0862 123.193 47.0256 124.004 48.4309 124.455C51.2578 125.365 56.7758 125.199 66.9861 119.213C77.4996 113.061 90.574 102.156 105.855 86.8062C133.367 59.1642 132.28 43.2692 131.298 39.0549C130.593 36.0317 128.954 33.8779 126.809 33.1533C122.922 31.8388 113.696 36.7545 110.469 38.7606C110.023 39.0402 109.43 38.9003 109.151 38.4537C108.872 38.0071 109.011 37.4134 109.457 37.1338C110.726 36.3484 121.977 29.4991 127.414 31.3429C130.201 32.2848 132.293 34.936 133.154 38.6196C134.01 42.2626 134.091 48.6099 129.642 58.168C125.331 67.4386 117.782 77.5295 107.202 88.1553C91.8059 103.619 78.5981 114.623 67.9413 120.861C59.2534 125.946 52.4843 127.769 47.8333 126.27C45.9029 125.648 44.5503 124.46 43.799 122.742C43.6634 122.417 43.5455 122.08 43.4517 121.73Z" fill="#B85D9E"/>
<g opacity="0.7">
<path opacity="0.7" d="M32.0338 120.635C31.6605 119.241 31.6605 117.787 32.0307 116.29C33.6811 109.639 42.3508 104.434 42.7165 104.218C43.4237 103.799 44.334 104.034 44.7509 104.736C45.1696 105.444 44.9343 106.355 44.2271 106.775C44.1498 106.823 36.2535 111.57 34.905 117.014C34.512 118.608 34.7349 120.064 35.5965 121.466C36.0164 122.153 37.0698 122.483 37.8762 122.642C43.1783 123.667 54.8529 120.868 69.1226 115.156C83.0222 109.591 96.9783 102.162 105.538 95.7701C142.773 67.974 147.182 54.5051 144.338 48.1066C141.643 42.0574 126.814 45.8896 121.325 47.8768C120.552 48.1537 119.703 47.7558 119.426 46.9818C119.15 46.2077 119.547 45.3571 120.32 45.0802C120.542 44.9999 125.787 43.113 131.611 42.2737C139.963 41.0757 145.157 42.6303 147.063 46.8959C148.432 49.9633 148.354 53.5649 146.852 57.6044C145.498 61.2357 142.922 65.3405 139.204 69.7936C132.485 77.8471 121.76 87.3855 107.338 98.159C98.4462 104.793 84.5838 112.183 70.2511 117.919C63.1575 120.761 45.753 127.19 37.3396 125.567C35.3105 125.173 33.8806 124.319 33.0827 123.024C32.5961 122.244 32.2525 121.453 32.0338 120.635Z" fill="#B85D9E"/>
</g>
</g>
</g>
<g clip-path="url(#clip2)">
<path d="M64.0654 143.329H81.1812C86.4168 143.329 90.6699 139.578 90.6699 134.95V133.196C90.6699 128.569 86.4297 124.818 81.1812 124.818H80.2634C75.0278 124.818 70.7747 121.067 70.7747 116.439C70.7747 111.812 75.0149 108.061 80.2634 108.061C80.2634 108.061 158.642 108.061 158.784 108.061C174.918 108.061 188.013 120.352 188.013 135.53C188.013 150.695 174.93 163 158.784 163C158.642 163 64.0654 163 64.0654 163C58.8169 163 54.5767 159.236 54.5767 154.608V151.707C54.5767 147.093 58.8169 143.329 64.0654 143.329Z" fill="url(#paint0_linear)"/>
</g>
<defs>
<linearGradient id="paint0_linear" x1="-158.698" y1="135.527" x2="184.284" y2="135.527" gradientUnits="userSpaceOnUse">
<stop offset="0.5345" stop-color="#F93890"/>
<stop offset="0.6517" stop-color="#F93C92"/>
<stop offset="0.7635" stop-color="#FA4796"/>
<stop offset="0.873" stop-color="#FC5B9E"/>
<stop offset="0.9807" stop-color="#FE75AA"/>
<stop offset="1" stop-color="#FF7BAC"/>
</linearGradient>
<clipPath id="clip0">
<rect width="162.855" height="198.827" fill="white" transform="translate(170.341 0.14502) rotate(90)"/>
</clipPath>
<clipPath id="clip1">
<rect width="139.576" height="139.426" fill="white" transform="matrix(0.258519 0.966006 -0.965845 0.259119 138.159 -3.4472)"/>
</clipPath>
<clipPath id="clip2">
<rect width="133.423" height="54.939" fill="white" transform="translate(54.5767 108.061)"/>
</clipPath>
</defs>
</svg>
