<svg width="437" height="411" viewBox="0 0 437 411" fill="none" xmlns="http://www.w3.org/2000/svg">
<path d="M105.647 126.494L72.4862 96.7855L93.7322 70.7415L97.2523 73.781L77.0062 96.5357L112.124 125.557L105.647 126.494Z" fill="url(#paint0_linear)"/>
<path d="M97.2524 73.7809V76.8829L79.3808 96.5772L106.396 119.374L103.501 119.852L77.0062 96.5356L97.2524 73.7809Z" fill="#54788B"/>
<g opacity="0.41">
<path opacity="0.41" d="M74.7357 94.0166C74.7357 94.0166 77.2561 91.8306 79.2765 91.789C81.2761 91.7265 81.2345 94.537 81.2345 94.537L95.9817 75.3007L85.1712 81.2131L74.7357 94.0166Z" fill="#3E6171"/>
</g>
<path d="M77.7768 78.4443L81.297 83.5657L107.792 68.9511L105.126 55.6896L77.7768 78.4443Z" fill="#54788B"/>
<path d="M77.7768 78.4443C77.7768 78.4443 94.107 72.7609 98.8561 70.0336C103.626 67.3064 106.959 64.8082 106.959 64.8082L105.126 55.6688L77.7768 78.4443Z" fill="url(#paint1_linear)"/>
<path d="M81.2969 83.5656L73.2985 82.1707L77.7768 78.4442L81.2969 83.5656Z" fill="#3E6171"/>
<path d="M100.418 133.509L97.2522 120.852L123.351 116.646L126.33 127.139L100.418 133.509Z" fill="#9DB8C9"/>
<path d="M123.351 116.646L132.787 119.644L132.204 126.119L126.33 127.139L123.351 116.646Z" fill="#54788B"/>
<path d="M58.6763 96.5772L144.847 20.881L143.348 17.0712L57.0308 92.934L58.6763 96.5772Z" fill="#54788B"/>
<path d="M0.812345 75.1342L58.6763 96.5773L57.8431 93.1631L0 71.1162L0.812345 75.1342Z" fill="#3E6171"/>
<path d="M143.348 17.0712L78.2976 0L0 71.1162L57.8431 93.1631L143.348 17.0712Z" fill="url(#paint2_linear)"/>
<path d="M34.4518 84.2527C47.6784 71.7824 61.1134 59.4994 74.4233 47.1124C87.8583 34.8711 101.21 22.5048 114.749 10.3468C101.522 22.8171 88.0874 35.1001 74.7774 47.4871C61.3217 59.7284 47.9909 72.0946 34.4518 84.2527Z" fill="#3B5967"/>
<path d="M45.5538 88.4789L130.1 13.5945L46.9911 89.0202L45.5538 88.4789Z" fill="url(#paint3_linear)"/>
<path d="M27.9322 81.7128L110.646 8.49396L29.3694 82.2749L27.9322 81.7128Z" fill="url(#paint4_linear)"/>
<path d="M10.3105 74.9676L91.2117 3.39343L11.7477 75.5089L10.3105 74.9676Z" fill="url(#paint5_linear)"/>
<path d="M61.8423 14.9478L122.56 35.5582L123.705 34.5381L61.8423 14.9478Z" fill="url(#paint6_linear)"/>
<path d="M39.0551 35.0792L99.7935 55.6896L100.939 54.6695L39.0551 35.0792Z" fill="url(#paint7_linear)"/>
<path d="M16.2885 55.4398L77.0061 76.0502L78.1517 75.0301L16.2885 55.4398Z" fill="url(#paint8_linear)"/>
<path d="M89.7121 51.401C89.7121 52.4419 88.8581 53.2747 87.8375 53.2747C86.796 53.2747 85.9628 52.4211 85.9628 51.401C85.9628 50.3809 86.8168 49.5274 87.8375 49.5274C88.8789 49.5065 89.7121 50.3601 89.7121 51.401Z" fill="url(#paint9_linear)"/>
<path d="M67.4662 71.4077C67.4662 72.4486 66.6331 73.2814 65.5916 73.2814C64.5502 73.2814 63.717 72.4278 63.717 71.4077C63.717 70.3668 64.5502 69.5341 65.5916 69.5341C66.6122 69.5341 67.4662 70.3668 67.4662 71.4077Z" fill="url(#paint10_linear)"/>
<path d="M46.5952 67.6187C47.6306 67.6187 48.4699 66.7799 48.4699 65.7451C48.4699 64.7103 47.6306 63.8714 46.5952 63.8714C45.5599 63.8714 44.7206 64.7103 44.7206 65.7451C44.7206 66.7799 45.5599 67.6187 46.5952 67.6187Z" fill="url(#paint11_linear)"/>
<path d="M71.5489 45.0306C71.5489 45.8841 70.8615 46.5711 70.0075 46.5711C69.1535 46.5711 68.4661 45.8841 68.4661 45.0306C68.4661 44.177 69.1535 43.49 70.0075 43.49C70.8407 43.49 71.5489 44.177 71.5489 45.0306Z" fill="url(#paint12_linear)"/>
<path d="M93.857 24.8782C93.857 25.7317 93.1697 26.4187 92.3157 26.4187C91.4617 26.4187 90.7743 25.7317 90.7743 24.8782C90.7743 24.0246 91.4617 23.3376 92.3157 23.3376C93.1488 23.3376 93.857 24.0246 93.857 24.8782Z" fill="url(#paint13_linear)"/>
<path d="M75.2982 18.6118C75.2982 19.3196 74.715 19.8817 74.0276 19.8817C73.3194 19.8817 72.757 19.2988 72.757 18.6118C72.757 17.9039 73.3402 17.3418 74.0276 17.3418C74.7358 17.321 75.2982 17.9039 75.2982 18.6118Z" fill="url(#paint14_linear)"/>
<path d="M50.4696 40.4504C49.928 40.0132 49.8447 39.2013 50.2821 38.66C50.7195 38.1187 51.5319 38.0354 52.0734 38.4726C52.615 38.9098 52.6983 39.7217 52.2609 40.263C51.8235 40.8043 51.032 40.8876 50.4696 40.4504Z" fill="url(#paint15_linear)"/>
<path d="M27.9946 60.5195C27.453 60.0823 27.3697 59.2704 27.8071 58.7291C28.2445 58.1878 29.0569 58.1045 29.5984 58.5417C30.14 58.9789 30.2233 59.7908 29.7859 60.3321C29.3485 60.8734 28.5361 60.9567 27.9946 60.5195Z" fill="url(#paint16_linear)"/>
<path d="M110.646 32.8308C111.681 32.8308 112.52 31.992 112.52 30.9572C112.52 29.9224 111.681 29.0835 110.646 29.0835C109.61 29.0835 108.771 29.9224 108.771 30.9572C108.771 31.992 109.61 32.8308 110.646 32.8308Z" fill="url(#paint17_linear)"/>
<path d="M144.847 20.881L68.4453 83.7114L143.348 17.0712L144.847 20.881Z" fill="#3E6171"/>
<path d="M42.3461 87.1465C55.5727 74.6762 69.0077 62.3932 82.3176 50.0062C95.7526 37.7649 109.104 25.3986 122.643 13.2406C109.417 25.7109 95.9817 37.9939 82.6717 50.3809C69.2159 62.6222 55.8852 74.9884 42.3461 87.1465Z" fill="#3B5967"/>
<path d="M52.5733 90.6649C65.7999 78.1945 79.2349 65.9116 92.5449 53.5245C105.98 41.2832 119.331 28.917 132.871 16.759C119.644 29.2501 106.23 41.5331 92.899 53.8993C79.464 66.1614 66.1124 78.5068 52.5733 90.6649Z" fill="#3B5967"/>
<path d="M23.3497 79.5477C36.3472 67.2856 49.5322 55.2316 62.5922 43.0736C75.8188 31.0404 88.9205 18.9032 102.21 6.97418C89.2121 19.2363 76.0479 31.2903 62.9671 43.4483C49.7613 55.4814 36.6388 67.6186 23.3497 79.5477Z" fill="#3B5967"/>
<path d="M16.8718 77.1328C29.786 64.954 42.8668 52.9833 55.8643 40.9085C68.9868 28.9587 82.0052 16.9047 95.1902 5.05896C82.276 17.2378 69.1951 29.2085 56.1976 41.2833C43.0959 53.2331 30.0776 65.2871 16.8718 77.1328Z" fill="#3B5967"/>
<path d="M6.45709 73.4271C19.2671 61.3523 32.2647 49.4649 45.158 37.4734C58.1764 25.6069 71.0906 13.657 84.1923 1.89453C71.3822 13.9901 58.3847 25.8567 45.4913 37.8482C32.473 49.7148 19.5588 61.6646 6.45709 73.4271Z" fill="#3B5967"/>
<path opacity="0.41" d="M6.97788 68.8678L79.3807 2.37335L132.787 17.0713C132.787 17.0713 89.7329 20.4439 61.8424 35.6206C33.9311 50.7973 5.08241 77.6741 6.97788 68.8678Z" fill="url(#paint18_linear)"/>
<path d="M113.437 131.885L117.936 58.8956L117.665 117.812L140.869 117.229L143.785 123.267L161.469 124.016L162.136 108.423L171.196 110.422V121.893H176.279L189.401 78.1736L180.236 130.345L113.437 131.885Z" fill="url(#paint19_linear)"/>
<path d="M163.719 396.406H124.601L127.309 391.097H165.864L163.719 396.406Z" fill="url(#paint20_linear)"/>
<path d="M163.719 396.406V401.132H125.893L124.809 397.197L124.601 396.406H163.719Z" fill="#7590A2"/>
<path d="M166.135 391.097V395.448L163.719 401.132V396.406L166.135 391.097Z" fill="#263F41"/>
<path d="M130.892 301.661L139.161 350.064L139.703 396.115H152.492V349.752L161.823 296.04L130.892 301.661Z" fill="url(#paint21_linear)"/>
<path d="M146.285 313.819C193.461 313.819 231.706 275.594 231.706 228.442C231.706 181.29 193.461 143.065 146.285 143.065C99.1077 143.065 60.8633 181.29 60.8633 228.442C60.8633 275.594 99.1077 313.819 146.285 313.819Z" fill="url(#paint22_linear)"/>
<path d="M81.8802 283.757C81.776 283.507 95.2734 293.479 109.979 293.229C126.58 292.959 137.599 288.42 152.325 291.168C167.051 293.916 181.174 293.229 192.297 283.757C206.106 271.994 210.335 261.294 210.335 261.294L229.873 246.138C229.873 246.138 219.729 305.429 157.866 313.028C105.855 319.44 81.8802 283.757 81.8802 283.757Z" fill="#765183"/>
<path d="M55.2602 226.693L63.0087 247.47C63.0087 247.47 83.0257 276.325 149.409 276.679C204.128 276.97 229.894 246.138 229.894 246.138L237.475 225.444L55.2602 226.693Z" fill="#4A2D51"/>
<path d="M109.979 260.773C109.979 260.773 130.892 269.912 176.279 269.038C178.633 268.996 181.028 268.788 183.444 268.476C197.775 266.582 210.814 262.168 222.228 253.299L229.873 246.158L237.455 225.465L109.979 260.773Z" fill="#38203E"/>
<path d="M237.455 225.444C238.996 175.146 196.629 134.321 146.285 134.321C95.94 134.321 55.1144 175.126 55.1144 225.444C55.1144 237.54 95.94 265.79 146.285 265.79C196.65 265.79 237.309 230.628 237.455 225.444Z" fill="url(#paint23_linear)"/>
<path d="M67.1121 234.875C67.1121 234.875 120.831 247.72 159.824 216.992C198.816 186.263 195.629 160.615 195.629 160.615C195.629 160.615 156.595 127.763 107.521 153.37C58.4471 178.956 67.1121 234.875 67.1121 234.875Z" fill="url(#paint24_linear)"/>
<path d="M157.866 143.502C157.866 143.502 181.424 155.41 192.984 194.695C203.357 229.941 200.649 250.718 200.649 250.718C200.649 250.718 205.961 219.511 192.817 186.513C179.403 152.808 157.866 143.502 157.866 143.502Z" fill="url(#paint25_linear)"/>
<path d="M82.2342 247.47C82.2342 247.47 74.5273 213.161 88.4414 177.769C99.835 148.79 125.726 143.606 125.726 143.606C125.726 143.606 98.6686 148.582 87.8165 186.201C76.9436 223.799 82.2342 247.47 82.2342 247.47Z" fill="url(#paint26_linear)"/>
<path d="M136.078 143.502C136.078 143.502 133.329 180.184 134.37 207.436C135.391 234.687 138.494 243.66 138.494 242.64C138.494 241.62 137.807 173.772 136.078 143.502Z" fill="url(#paint27_linear)"/>
<path d="M66.5081 203.918C66.5081 203.918 91.545 211.162 148.93 209.455C190.672 208.206 216.417 199.775 216.417 199.775C216.417 199.775 181.465 205.854 138.494 207.228C115.415 207.936 90.0244 206.27 66.5081 203.918Z" fill="url(#paint28_linear)"/>
<path d="M81.2345 171.649C81.2345 171.649 101.356 178.894 147.472 177.187C181.007 175.938 201.691 167.506 201.691 167.506C201.691 167.506 173.592 173.585 139.078 174.959C120.539 175.667 100.127 174.001 81.2345 171.649Z" fill="url(#paint29_linear)"/>
<path d="M94.0444 150.789L101.98 131.157L176.987 127.534V143.627C177.008 143.606 118.123 136.84 94.0444 150.789Z" fill="#3B5967"/>
<path d="M195.692 148.853L188.027 130.22L177.008 127.514V143.606C177.008 143.606 189.443 144.439 195.692 148.853Z" fill="#2D4650"/>
<path d="M207.252 404.567H168.114L173.529 398.197H212.105L207.252 404.567Z" fill="url(#paint30_linear)"/>
<path d="M207.252 404.567V411H169.405L168.343 405.629L168.114 404.567H207.252Z" fill="#7590A2"/>
<path d="M212.105 398.197V404.13L207.252 411V404.567L212.105 398.197Z" fill="#263F41"/>
<path d="M168.114 404.567C168.114 404.567 190.318 401.319 198.066 402.131C205.815 402.943 207.231 404.567 207.231 404.567H168.114Z" fill="url(#paint31_linear)"/>
<path d="M161.823 296.04L201.524 342.403L192.484 401.465L189.089 400.778L189.047 346.192L160.928 303.993L161.823 296.04Z" fill="#7590A2"/>
<path d="M192.484 401.465L196.004 400.382L209.71 334.95L174.134 292.792L161.823 296.04L201.295 343.818L192.484 401.465Z" fill="url(#paint32_linear)"/>
<path d="M189.047 346.775V346.213L201.17 343.589L209.71 334.97L209.564 335.657L201.482 344.006C201.441 344.047 201.399 344.068 201.337 344.089L189.047 346.775Z" fill="#3B5967"/>
<path d="M189.047 356.143L189.006 355.456L199.941 344.755L189.047 350.21V349.606L201.191 343.569C201.295 343.506 201.441 343.548 201.503 343.652C201.587 343.756 201.566 343.902 201.482 343.985L189.047 356.143Z" fill="#3B5967"/>
<path d="M200.92 344.068C200.899 344.068 200.878 344.068 200.858 344.068L185.423 340.779L185.006 340.134L198.754 343.069L181.59 335.012L181.049 334.221L201.003 343.569C201.128 343.631 201.17 343.756 201.128 343.881C201.128 344.006 201.024 344.068 200.92 344.068Z" fill="#3B5967"/>
<path d="M190.651 327.476C190.589 327.476 190.505 327.434 190.464 327.393L163.406 295.624L163.969 295.478L190.734 326.914L197.879 323.978L172.238 293.292L172.779 293.146L198.483 323.916C198.545 323.978 198.545 324.062 198.545 324.145C198.525 324.228 198.462 324.291 198.4 324.311L190.776 327.455C190.714 327.476 190.672 327.476 190.651 327.476Z" fill="#3B5967"/>
<path d="M200.483 342.84C200.483 342.84 184.486 328.309 179.695 325.894C174.883 323.479 173.675 323.125 173.675 323.125L160.928 303.993L161.844 296.04L200.483 342.84Z" fill="url(#paint33_linear)"/>
<path opacity="0.48" d="M189.006 360.078L200.941 343.839L182.778 336.761L189.068 346.233L189.006 360.078Z" fill="url(#paint34_linear)"/>
<path d="M86.7334 404.567H125.851L120.435 398.197H81.8801L86.7334 404.567Z" fill="url(#paint35_linear)"/>
<path d="M86.7333 404.567V411H124.559L125.643 405.629L125.851 404.567H86.7333Z" fill="#7590A2"/>
<path d="M81.8801 398.197V404.13L86.7334 411V404.567L81.8801 398.197Z" fill="#263F41"/>
<path d="M125.851 404.567C125.851 404.567 103.647 401.319 95.8984 402.131C88.1499 402.943 86.7335 404.567 86.7335 404.567H125.851Z" fill="url(#paint36_linear)"/>
<path d="M132.141 296.04L92.4614 342.403L101.481 401.465L104.876 400.778L104.917 346.192L133.058 303.993L132.141 296.04Z" fill="#7590A2"/>
<path d="M101.481 401.465L97.9812 400.382L84.2547 334.95L119.852 292.792L132.141 296.04L92.6698 343.818L101.481 401.465Z" fill="url(#paint37_linear)"/>
<path d="M104.917 346.775V346.213L92.7947 343.589L84.2547 334.97L84.4005 335.657L92.4823 344.006C92.524 344.047 92.5656 344.068 92.6281 344.089L104.917 346.775Z" fill="#3B5967"/>
<path d="M104.917 356.143L104.959 355.456L94.0236 344.755L104.917 350.21V349.606L92.7739 343.569C92.6697 343.506 92.5239 343.548 92.4406 343.652C92.3573 343.756 92.3781 343.902 92.4614 343.985L104.917 356.143Z" fill="#3B5967"/>
<path d="M93.0447 344.068C93.0655 344.068 93.0864 344.068 93.1072 344.068L108.542 340.779L108.958 340.134L95.211 343.069L112.374 335.012L112.916 334.221L92.9614 343.569C92.8364 343.631 92.7948 343.756 92.8364 343.881C92.8573 344.006 92.9406 344.068 93.0447 344.068Z" fill="#3B5967"/>
<path d="M103.314 327.476C103.376 327.476 103.459 327.434 103.501 327.393L130.558 295.624L129.996 295.478L103.23 326.914L96.0857 323.978L121.727 293.292L121.185 293.146L95.4817 323.916C95.4192 323.978 95.4192 324.062 95.4192 324.145C95.44 324.228 95.5025 324.291 95.565 324.311L103.189 327.455C103.251 327.476 103.293 327.476 103.314 327.476Z" fill="#3B5967"/>
<path d="M93.4822 342.84C93.4822 342.84 109.479 328.309 114.291 325.894C119.102 323.479 120.31 323.125 120.31 323.125L133.058 303.993L132.141 296.04L93.4822 342.84Z" fill="url(#paint38_linear)"/>
<path opacity="0.48" d="M104.917 360.036L93.0238 343.839L111.208 336.761L104.897 346.233L104.917 360.036Z" fill="url(#paint39_linear)"/>
<path d="M78.61 280.551L90.2952 270.516L105.855 275.763L95.3568 296.998L94.4611 296.54C87.5874 293.042 82.0468 287.442 78.61 280.551Z" fill="#4A2D51"/>
<path d="M196.504 297.997L183.694 276.678L198.15 270.891L212.293 282.633C209.835 289.378 204.628 294.749 197.962 297.414L196.504 297.997Z" fill="#4A2D51"/>
<path d="M221.041 225.944L227.79 224.174C227.79 224.174 229.498 199.504 218.562 182.162C209.043 167.048 200.795 163.904 200.795 163.904L189.026 162.822L221.041 225.944Z" fill="#901B06"/>
<path d="M152.325 169.005C152.325 169.005 170.342 184.598 176.029 211.038C179.778 228.442 179.778 237.54 179.778 237.54L221.041 225.944C221.041 225.944 223.312 208.956 214.626 186.867C205.919 164.779 189.047 162.822 189.047 162.822L152.325 169.005Z" fill="#34213A"/>
<path d="M202.545 182.141C198.941 172.086 201.128 162.114 207.419 159.678C207.398 159.678 207.377 159.678 207.356 159.678C206.94 159.761 201.357 161.823 200.962 161.968C194.525 164.279 192.255 174.376 195.9 184.515C199.545 194.653 207.71 201.003 214.147 198.692C214.542 198.546 220.562 196.465 221.041 196.215C220.916 196.256 220.812 196.298 220.77 196.319C214.355 198.651 206.19 192.301 202.545 182.141Z" fill="#4A2D51"/>
<path d="M219.208 176.166C215.813 166.694 213.584 158.575 207.419 159.678C201.128 162.114 198.941 172.107 202.545 182.141C206.19 192.28 214.355 198.63 220.791 196.319C220.833 196.298 220.937 196.277 221.062 196.215H221.083C226.603 193.175 222.624 185.681 219.208 176.166Z" fill="url(#paint40_linear)"/>
<path d="M203.107 166.049L252.639 141.962L268.074 179.456L213.459 194.924C205.023 188.387 200.878 177.332 202.94 166.84L203.107 166.049Z" fill="#54788B"/>
<path d="M202.815 176.958C204.107 177.062 208.481 178.706 218.167 178.207C225.29 177.832 245.661 172.773 245.661 172.773L256.18 182.787L213.459 194.882C213.459 194.903 204.544 188.845 202.815 176.958Z" fill="url(#paint41_linear)"/>
<path d="M241.517 162.052L202.441 173.023L202.982 176.895L243.974 168.942L241.517 162.052Z" fill="url(#paint42_linear)"/>
<path d="M203.149 163.322L196.108 166.382C196.108 166.382 194.588 169.359 194.38 171.816C194.171 174.272 194.255 177.187 194.255 177.187L200.816 173.627C200.837 173.606 200.274 167.194 203.149 163.322Z" fill="#866392"/>
<path d="M195.692 183.911C195.692 183.911 198.212 190.49 200.67 193.05C203.128 195.59 203.711 196.09 203.711 196.09L210.335 193.717C210.335 193.717 206.169 190.219 204.461 186.451C202.732 182.704 202.545 182.162 202.545 182.162L195.692 183.911Z" fill="#3C2243"/>
<path d="M205.128 197.11L211.751 194.737C211.751 194.737 214.23 196.485 216.25 196.631C218.292 196.798 218.542 197.131 218.542 197.131L212.355 199.358C212.376 199.358 207.69 199.254 205.128 197.11Z" fill="#3C2243"/>
<path d="M239.788 168.964C234.664 154.724 237.767 140.588 246.703 137.132C246.682 137.132 246.64 137.132 246.62 137.132C246.036 137.236 238.142 140.172 237.559 140.38C228.436 143.648 225.228 157.951 230.394 172.336C235.559 186.701 247.14 195.715 256.243 192.426C256.805 192.218 265.345 189.262 266.012 188.929C265.824 188.991 265.678 189.033 265.637 189.054C256.514 192.343 244.932 183.328 239.788 168.964Z" fill="#4A2D51"/>
<path d="M263.387 160.49C258.555 147.062 255.41 135.57 246.682 137.132C237.767 140.588 234.664 154.723 239.767 168.963C244.932 183.328 256.513 192.343 265.637 189.053C265.699 189.032 265.824 188.991 266.012 188.928L266.032 188.907C273.885 184.598 268.24 173.96 263.387 160.49Z" fill="url(#paint43_linear)"/>
<path d="M240.579 146.146L310.774 112.004L332.645 165.112L255.264 187.013C243.308 177.77 237.434 162.072 240.371 147.208L240.579 146.146Z" fill="#54788B"/>
<path d="M240.183 161.614C241.996 161.76 248.203 164.113 261.929 163.384C272.031 162.863 300.88 155.702 300.88 155.702L315.773 169.9L255.243 187.034C255.264 187.034 242.62 178.436 240.183 161.614Z" fill="url(#paint44_linear)"/>
<path d="M294.985 140.484L239.642 156.035L240.392 161.531L298.506 150.247L294.985 140.484Z" fill="url(#paint45_linear)"/>
<path d="M240.642 142.295L230.644 146.625C230.644 146.625 228.498 150.83 228.207 154.307C227.915 157.784 228.04 161.906 228.04 161.906L237.33 156.847C237.351 156.847 236.58 147.77 240.642 142.295Z" fill="#866392"/>
<path d="M230.081 171.441C230.081 171.441 233.664 180.767 237.142 184.39C240.621 188.012 241.454 188.679 241.454 188.679L250.848 185.306C250.848 185.306 244.953 180.33 242.516 175.022C240.079 169.713 239.788 168.963 239.788 168.963L230.081 171.441Z" fill="#3C2243"/>
<path d="M243.454 190.177L252.848 186.805C252.848 186.805 256.347 189.261 259.221 189.511C262.096 189.74 262.471 190.219 262.471 190.219L253.702 193.363C253.722 193.342 247.078 193.175 243.454 190.177Z" fill="#3C2243"/>
<path d="M298.568 146.875C291.59 127.473 295.819 108.174 307.983 103.469C307.941 103.469 307.9 103.469 307.858 103.49C307.066 103.635 296.298 107.632 295.506 107.924C283.071 112.379 278.718 131.886 285.758 151.476C292.798 171.067 308.587 183.329 321.001 178.874C321.772 178.603 333.395 174.564 334.332 174.085C334.082 174.169 333.895 174.231 333.811 174.273C321.397 178.728 305.608 166.466 298.568 146.875Z" fill="#4A2D51"/>
<path d="M330.77 135.3C324.188 117 319.897 101.345 307.983 103.468C295.819 108.173 291.59 127.472 298.568 146.875C305.608 166.465 321.397 178.727 333.811 174.272C333.874 174.251 334.082 174.168 334.332 174.085L334.374 174.064C345.059 168.172 337.352 153.662 330.77 135.3Z" fill="url(#paint46_linear)"/>
<path d="M299.651 115.751L395.32 69.2007L425.148 141.608L319.668 171.461C303.359 158.845 295.36 137.465 299.359 117.208L299.651 115.751Z" fill="#54788B"/>
<path d="M299.11 136.84C301.588 137.028 310.024 140.234 328.771 139.255C342.539 138.527 381.865 128.783 381.865 128.783L402.173 148.145L319.668 171.503C319.668 171.482 302.442 159.782 299.11 136.84Z" fill="url(#paint47_linear)"/>
<path d="M373.825 108.048L298.381 129.242L299.401 136.736L378.615 121.351L373.825 108.048Z" fill="url(#paint48_linear)"/>
<path d="M299.755 110.505L286.133 116.417C286.133 116.417 283.217 122.163 282.8 126.91C282.405 131.657 282.571 137.278 282.571 137.278L295.235 130.387C295.256 130.345 294.194 117.958 299.755 110.505Z" fill="#866392"/>
<path d="M285.341 150.247C285.341 150.247 290.215 162.968 294.965 167.902C299.714 172.815 300.838 173.752 300.838 173.752L313.648 169.151C313.648 169.151 305.608 162.385 302.297 155.14C298.964 147.895 298.589 146.875 298.589 146.875L285.341 150.247Z" fill="#3C2243"/>
<path d="M303.588 175.771L316.398 171.17C316.398 171.17 321.168 174.522 325.105 174.855C329.041 175.167 329.52 175.813 329.52 175.813L317.564 180.101C317.564 180.101 308.524 179.893 303.588 175.771Z" fill="#3C2243"/>
<path opacity="0.2" d="M355.474 92.1636L300.464 120.539L300.13 126.348L350.725 104.155L355.474 92.1636Z" fill="url(#paint49_linear)"/>
<path opacity="0.2" d="M280.655 131.885L242.391 147.125L241.371 152.038L275.239 139.984L280.655 131.885Z" fill="url(#paint50_linear)"/>
<path d="M413.067 106.154C423.607 135.466 435.417 158.762 420.753 167.339C419.774 167.922 403.319 173.606 402.215 173.981C384.989 180.164 361.91 159.824 350.683 128.555C339.435 97.285 344.309 66.9108 361.535 60.7277C362.618 60.3321 377.532 54.7735 378.636 54.5862C395.404 51.8381 402.527 76.8412 413.067 106.154Z" fill="#4A2D51"/>
<path d="M413.15 115.21C423.69 144.522 423.711 113.003 422.711 131.823C422.253 140.733 421.065 167.235 419.982 167.61C402.756 173.793 379.678 153.454 368.45 122.184C357.203 90.9145 362.077 60.5403 379.303 54.3572C380.386 53.9616 397.049 80.1514 398.174 79.964C414.942 77.2159 402.611 85.8765 413.15 115.21Z" fill="#4A2D51"/>
<path d="M397.799 175.48C397.799 175.48 387.572 176.375 379.178 169.296C370.783 162.218 368.617 159.72 368.617 159.72L373.22 133.551L418.254 168.214L397.799 175.48Z" fill="#3C2243"/>
<path d="M357.64 144.002L370.45 127.534L365.014 110.796L347.934 119.769C347.934 119.748 351.287 133.822 357.64 144.002Z" fill="#3C2243"/>
<path d="M346.122 81.6919C346.122 81.6919 344.58 88.7702 344.601 93.3919C344.622 98.0136 344.705 99.1587 344.705 99.1587L367.638 86.2928L368.346 73.7184L346.122 81.6919Z" fill="#866392"/>
<path d="M430.939 99.7416C442.186 131.011 437.312 161.385 420.087 167.568C402.861 173.752 379.782 153.412 368.555 122.142C357.328 90.8729 362.181 60.4986 379.407 54.3155C396.633 48.1324 419.712 68.4721 430.939 99.7416Z" fill="url(#paint51_linear)"/>
<path d="M426.981 103.989C435.709 128.263 431.938 151.83 418.566 156.639C405.194 161.448 387.28 145.646 378.553 121.372C369.825 97.0976 373.595 73.531 386.968 68.7219C400.34 63.9128 418.254 79.6933 426.981 103.989Z" fill="#060B44"/>
<path d="M423.503 105.238C430.21 124.703 427.46 143.419 416.796 147.25C406.131 151.08 391.842 138.485 384.885 119.103C377.928 99.7416 380.782 80.5052 391.592 77.091C402.569 73.6351 417.004 86.3969 423.503 105.238Z" fill="url(#paint52_linear)"/>
<path d="M409.089 110.401C413.713 123.267 412.046 135.654 405.339 138.048C398.653 140.442 389.467 131.969 384.843 119.103C380.219 106.237 381.885 93.85 388.593 91.4558C395.3 89.0409 404.465 97.5348 409.089 110.401Z" fill="#060B44"/>
<path opacity="0.2" d="M422.294 147.104C422.294 147.104 403.694 166.881 378.574 131.823C353.453 96.7437 367.055 60.561 380.615 57.6672C394.175 54.7734 409.151 74.5303 406.756 80.7134C404.36 86.8757 390.092 93.8499 396.987 114.773C403.881 135.674 420.816 135.945 422.294 147.104Z" fill="url(#paint53_linear)"/>
<path opacity="0.68" d="M411.901 86.3344C411.901 86.3344 423.815 103.676 423.565 118.062C423.315 132.448 421.295 136.757 423.607 136.299C425.919 135.82 431.459 123.891 426.669 107.986C423.544 97.5765 413.192 85.8764 411.901 86.3344Z" fill="url(#paint54_linear)"/>
<path opacity="0.68" d="M386.364 138.173C386.364 138.173 376.949 134.03 371.617 112.129C366.264 90.2275 378.282 76.1125 378.282 76.1125C378.282 76.1125 364.868 97.1393 386.364 138.173Z" fill="url(#paint55_linear)"/>
<path d="M179.778 220.656L296.506 168.922L181.674 213.515L179.778 220.656Z" fill="url(#paint56_linear)"/>
<path d="M181.403 235.645L308.358 175.042L180.778 228.712L181.403 235.645Z" fill="url(#paint57_linear)"/>
<path d="M185.298 207.04L210.356 223.987L216.355 195.361L239.288 211.662L244.037 186.222L266.97 197.797L271.99 175.146L291.069 189.844L295.694 169.484L292.736 192.134L273.031 178.103L267.991 200.025L244.953 188.179L239.746 214.285L217.521 198.047L211.98 227.255L185.902 208.748L179.778 220.656L178.966 214.764L185.298 207.04Z" fill="url(#paint58_linear)"/>
<path d="M176.279 201.857C176.55 201.961 185.61 188.637 191.943 179.248C194.234 175.833 199.504 176.833 200.42 180.83C200.67 181.954 200.503 183.12 199.941 184.14L179.778 220.635L176.279 201.857Z" fill="url(#paint59_linear)"/>
<path d="M200.795 182.141V186.784L179.986 226.86L179.778 220.656L200.795 182.141Z" fill="#948AAB"/>
<path d="M199.087 182.141C199.087 184.015 197.566 185.535 195.692 185.535C193.817 185.535 192.297 184.015 192.297 182.141C192.297 180.268 193.817 178.748 195.692 178.748C197.566 178.769 199.087 180.289 199.087 182.141Z" fill="url(#paint60_linear)"/>
<path d="M117.186 66.3903C115.853 66.078 114.832 65.0788 114.957 64.1836L116.561 51.3385C116.665 50.4433 117.852 49.9853 119.206 50.2976C120.539 50.6098 121.56 51.6091 121.435 52.5043L119.831 65.3494C119.706 66.2446 118.519 66.7026 117.186 66.3903Z" fill="url(#paint61_linear)"/>
<path d="M163.865 93.496L160.282 112.004C160.282 112.004 163.344 113.253 167.26 113.253C171.176 113.253 174.238 110.505 174.238 110.505L167.593 93.496H163.865Z" fill="url(#paint62_linear)"/>
<path opacity="0.7" d="M164.698 95.5156L162.406 110.9C162.406 110.9 165.51 112.982 168.218 112.004C170.926 111.025 166.197 107.382 166.197 107.382L166.072 95.4948H164.698V95.5156Z" fill="url(#paint63_linear)"/>
<path opacity="0.7" d="M117.415 51.3177L116.624 64.5999C116.624 64.5999 117.478 65.2036 117.54 64.8914C117.582 64.5791 119.227 51.1719 119.227 51.1719L117.415 51.3177Z" fill="url(#paint64_linear)"/>
<path d="M191.109 302.015L176.175 281.217C174.279 281.946 158.366 287.796 139.973 286.901C124.622 286.151 111.187 281.425 109.417 280.78L98.6479 298.143L98.2104 297.872L109.104 280.343C109.167 280.239 109.292 280.197 109.417 280.239C109.562 280.301 123.685 285.61 140.015 286.401C159.407 287.338 176.008 280.738 176.175 280.676C176.279 280.634 176.404 280.676 176.487 280.759L191.547 301.723L191.109 302.015Z" fill="#3B5967"/>
<path d="M109.312 280.468C109.312 280.468 115.79 291.023 141.619 292.792C167.447 294.562 176.279 280.905 176.279 280.905C176.279 280.905 148.222 296.998 109.312 280.468Z" fill="url(#paint65_linear)"/>
<path d="M74.4857 217.658C71.5279 221.676 65.1333 219.053 65.904 214.119C67.4662 204.168 71.5696 187.096 81.9634 174.231C101.251 150.372 118.456 149.644 118.644 152.767C118.769 154.869 111.062 155.244 97.7938 171.358C87.2124 184.203 81.9634 207.54 74.4857 217.658Z" fill="url(#paint66_linear)"/>
<path d="M71.5281 239.247C68.0912 237.623 63.0713 230.149 66.0708 226.173C68.3203 223.175 70.9657 223.55 74.1734 226.61C79.3182 231.565 80.1306 243.327 71.5281 239.247Z" fill="url(#paint67_linear)"/>
<path d="M93.0239 343.319C93.0239 343.319 103.376 326.643 114.416 315.006C125.455 303.368 126.518 302.764 126.518 302.764L93.0239 343.319Z" fill="url(#paint68_linear)"/>
<path d="M98.9602 388.245C98.9602 388.245 90.6077 354.686 90.7535 350.564C90.8784 346.442 90.7535 345.38 90.7535 345.38L87.1083 339.134L92.3157 344.61L98.9602 388.245Z" fill="url(#paint69_linear)"/>
<path d="M166.989 302.285C166.989 302.285 192.443 328.954 197.233 334.804C202.024 340.654 201.295 343.818 201.295 343.818L166.989 302.285Z" fill="url(#paint70_linear)"/>
<path d="M183.694 276.679L198.275 274.659L210.397 286.713L212.314 283.341L198.17 270.891L183.694 276.679Z" fill="#38203E"/>
<path d="M105.855 275.763L91.795 274.659L80.8804 284.444L78.61 280.551L90.2952 270.516L105.855 275.763Z" fill="#38203E"/>
<defs>
<linearGradient id="paint0_linear" x1="72.482" y1="98.6121" x2="112.129" y2="98.6121" gradientUnits="userSpaceOnUse">
<stop offset="0.5179" stop-color="#BAD1E3"/>
<stop offset="0.8552" stop-color="#F2E1E9"/>
</linearGradient>
<linearGradient id="paint1_linear" x1="77.776" y1="67.0639" x2="106.96" y2="67.0639" gradientUnits="userSpaceOnUse">
<stop offset="0.1091" stop-color="#447979"/>
<stop offset="0.9782" stop-color="#2C4E56"/>
</linearGradient>
<linearGradient id="paint2_linear" x1="0" y1="46.5805" x2="143.339" y2="46.5805" gradientUnits="userSpaceOnUse">
<stop stop-color="#5D9CBB"/>
<stop offset="0.3234" stop-color="#3C658D"/>
<stop offset="0.7183" stop-color="#182B5F"/>
<stop offset="0.9226" stop-color="#00004F"/>
</linearGradient>
<linearGradient id="paint3_linear" x1="45.5636" y1="51.309" x2="130.097" y2="51.309" gradientUnits="userSpaceOnUse">
<stop offset="0.5179" stop-color="#BAD1E3"/>
<stop offset="0.8552" stop-color="#F2E1E9"/>
</linearGradient>
<linearGradient id="paint4_linear" x1="27.9418" y1="45.379" x2="110.652" y2="45.379" gradientUnits="userSpaceOnUse">
<stop offset="0.5179" stop-color="#BAD1E3"/>
<stop offset="0.8552" stop-color="#F2E1E9"/>
</linearGradient>
<linearGradient id="paint5_linear" x1="10.319" y1="39.4489" x2="91.2069" y2="39.4489" gradientUnits="userSpaceOnUse">
<stop offset="0.5179" stop-color="#BAD1E3"/>
<stop offset="0.8552" stop-color="#F2E1E9"/>
</linearGradient>
<linearGradient id="paint6_linear" x1="61.8371" y1="25.2597" x2="123.704" y2="25.2597" gradientUnits="userSpaceOnUse">
<stop offset="0.5179" stop-color="#BAD1E3"/>
<stop offset="0.8552" stop-color="#F2E1E9"/>
</linearGradient>
<linearGradient id="paint7_linear" x1="39.0642" y1="45.3788" x2="100.932" y2="45.3788" gradientUnits="userSpaceOnUse">
<stop offset="0.5179" stop-color="#BAD1E3"/>
<stop offset="0.8552" stop-color="#F2E1E9"/>
</linearGradient>
<linearGradient id="paint8_linear" x1="16.2921" y1="65.7425" x2="78.1594" y2="65.7425" gradientUnits="userSpaceOnUse">
<stop offset="0.5179" stop-color="#BAD1E3"/>
<stop offset="0.8552" stop-color="#F2E1E9"/>
</linearGradient>
<linearGradient id="paint9_linear" x1="85.9447" y1="51.3919" x2="89.7138" y2="51.3919" gradientUnits="userSpaceOnUse">
<stop offset="0.5179" stop-color="#BAD1E3"/>
<stop offset="0.8552" stop-color="#F2E1E9"/>
</linearGradient>
<linearGradient id="paint10_linear" x1="63.6899" y1="71.4129" x2="67.4581" y2="71.4129" gradientUnits="userSpaceOnUse">
<stop offset="0.5179" stop-color="#BAD1E3"/>
<stop offset="0.8552" stop-color="#F2E1E9"/>
</linearGradient>
<linearGradient id="paint11_linear" x1="44.7204" y1="65.7426" x2="48.4892" y2="65.7426" gradientUnits="userSpaceOnUse">
<stop offset="0.5179" stop-color="#BAD1E3"/>
<stop offset="0.8552" stop-color="#F2E1E9"/>
</linearGradient>
<linearGradient id="paint12_linear" x1="68.4547" y1="45.0381" x2="71.5412" y2="45.0381" gradientUnits="userSpaceOnUse">
<stop offset="0.5179" stop-color="#BAD1E3"/>
<stop offset="0.8552" stop-color="#F2E1E9"/>
</linearGradient>
<linearGradient id="paint13_linear" x1="90.7624" y1="24.878" x2="93.8487" y2="24.878" gradientUnits="userSpaceOnUse">
<stop offset="0.5179" stop-color="#BAD1E3"/>
<stop offset="0.8552" stop-color="#F2E1E9"/>
</linearGradient>
<linearGradient id="paint14_linear" x1="72.7454" y1="18.6093" x2="75.3055" y2="18.6093" gradientUnits="userSpaceOnUse">
<stop offset="0.5179" stop-color="#BAD1E3"/>
<stop offset="0.8552" stop-color="#F2E1E9"/>
</linearGradient>
<linearGradient id="paint15_linear" x1="52.0856" y1="38.4538" x2="50.4744" y2="40.4434" gradientUnits="userSpaceOnUse">
<stop offset="0.5179" stop-color="#BAD1E3"/>
<stop offset="0.8552" stop-color="#F2E1E9"/>
</linearGradient>
<linearGradient id="paint16_linear" x1="29.597" y1="58.5285" x2="27.9862" y2="60.5179" gradientUnits="userSpaceOnUse">
<stop offset="0.5179" stop-color="#BAD1E3"/>
<stop offset="0.8552" stop-color="#F2E1E9"/>
</linearGradient>
<linearGradient id="paint17_linear" x1="108.767" y1="30.9661" x2="112.536" y2="30.9661" gradientUnits="userSpaceOnUse">
<stop offset="0.5179" stop-color="#BAD1E3"/>
<stop offset="0.8552" stop-color="#F2E1E9"/>
</linearGradient>
<linearGradient id="paint18_linear" x1="-18.3777" y1="36.4831" x2="107.522" y2="36.4831" gradientUnits="userSpaceOnUse">
<stop stop-color="#BAD1E3"/>
<stop offset="0.4742" stop-color="#D6E1E9"/>
<stop offset="0.8512" stop-color="#FFFFEA"/>
</linearGradient>
<linearGradient id="paint19_linear" x1="113.439" y1="95.3912" x2="189.402" y2="95.3912" gradientUnits="userSpaceOnUse">
<stop stop-color="#5D9CBB"/>
<stop offset="0.3234" stop-color="#3C658D"/>
<stop offset="0.7183" stop-color="#182B5F"/>
<stop offset="0.9226" stop-color="#00004F"/>
</linearGradient>
<linearGradient id="paint20_linear" x1="124.595" y1="393.748" x2="165.864" y2="393.748" gradientUnits="userSpaceOnUse">
<stop offset="0.5179" stop-color="#BAD1E3"/>
<stop offset="0.8552" stop-color="#F2E1E9"/>
</linearGradient>
<linearGradient id="paint21_linear" x1="220.736" y1="268.444" x2="73.5035" y2="418.429" gradientUnits="userSpaceOnUse">
<stop stop-color="#5D9CBB"/>
<stop offset="0.3234" stop-color="#3C658D"/>
<stop offset="0.7183" stop-color="#182B5F"/>
<stop offset="0.9226" stop-color="#00004F"/>
</linearGradient>
<linearGradient id="paint22_linear" x1="52.3312" y1="179.728" x2="223.453" y2="268.542" gradientUnits="userSpaceOnUse">
<stop stop-color="#BAD1E3"/>
<stop offset="0.6052" stop-color="#866392"/>
</linearGradient>
<linearGradient id="paint23_linear" x1="233.274" y1="243.64" x2="73.0736" y2="167.985" gradientUnits="userSpaceOnUse">
<stop offset="0.0813" stop-color="#DB2C0A"/>
<stop offset="0.4953" stop-color="#E1721B"/>
</linearGradient>
<linearGradient id="paint24_linear" x1="179.872" y1="261.217" x2="79.0888" y2="129.209" gradientUnits="userSpaceOnUse">
<stop offset="0.2083" stop-color="#E1721B"/>
<stop offset="0.8552" stop-color="#F2E1E9"/>
</linearGradient>
<linearGradient id="paint25_linear" x1="159.348" y1="180.347" x2="352.797" y2="336.784" gradientUnits="userSpaceOnUse">
<stop offset="0.0813" stop-color="#DB2C0A"/>
<stop offset="0.4953" stop-color="#E1721B"/>
</linearGradient>
<linearGradient id="paint26_linear" x1="91.5464" y1="185.498" x2="171.915" y2="250.49" gradientUnits="userSpaceOnUse">
<stop offset="0.0813" stop-color="#DB2C0A"/>
<stop offset="0.4953" stop-color="#E1721B"/>
</linearGradient>
<linearGradient id="paint27_linear" x1="124.361" y1="182.685" x2="247.814" y2="282.517" gradientUnits="userSpaceOnUse">
<stop offset="0.0813" stop-color="#DB2C0A"/>
<stop offset="0.4953" stop-color="#E1721B"/>
</linearGradient>
<linearGradient id="paint28_linear" x1="118.555" y1="183.33" x2="337.508" y2="360.393" gradientUnits="userSpaceOnUse">
<stop offset="0.0813" stop-color="#DB2C0A"/>
<stop offset="0.4953" stop-color="#E1721B"/>
</linearGradient>
<linearGradient id="paint29_linear" x1="123.157" y1="154.778" x2="298.124" y2="296.27" gradientUnits="userSpaceOnUse">
<stop offset="0.0813" stop-color="#DB2C0A"/>
<stop offset="0.4953" stop-color="#E1721B"/>
</linearGradient>
<linearGradient id="paint30_linear" x1="168.121" y1="401.386" x2="212.098" y2="401.386" gradientUnits="userSpaceOnUse">
<stop offset="0.5179" stop-color="#BAD1E3"/>
<stop offset="0.8552" stop-color="#F2E1E9"/>
</linearGradient>
<linearGradient id="paint31_linear" x1="160.269" y1="403.285" x2="199.39" y2="403.285" gradientUnits="userSpaceOnUse">
<stop stop-color="#BAD1E3"/>
<stop offset="0.4742" stop-color="#D6E1E9"/>
<stop offset="0.8512" stop-color="#FFFFEA"/>
</linearGradient>
<linearGradient id="paint32_linear" x1="209.842" y1="346.851" x2="162.362" y2="347.34" gradientUnits="userSpaceOnUse">
<stop offset="0.5179" stop-color="#BAD1E3"/>
<stop offset="0.8552" stop-color="#F2E1E9"/>
</linearGradient>
<linearGradient id="paint33_linear" x1="128.001" y1="269.956" x2="231.418" y2="373.158" gradientUnits="userSpaceOnUse">
<stop stop-color="#5D9CBB"/>
<stop offset="0.3234" stop-color="#3C658D"/>
<stop offset="0.7183" stop-color="#182B5F"/>
<stop offset="0.9226" stop-color="#00004F"/>
</linearGradient>
<linearGradient id="paint34_linear" x1="170.883" y1="327.94" x2="206.633" y2="363.615" gradientUnits="userSpaceOnUse">
<stop stop-color="#5D9CBB"/>
<stop offset="0.3234" stop-color="#3C658D"/>
<stop offset="0.7183" stop-color="#182B5F"/>
<stop offset="0.9226" stop-color="#00004F"/>
</linearGradient>
<linearGradient id="paint35_linear" x1="125.85" y1="401.386" x2="81.8733" y2="401.386" gradientUnits="userSpaceOnUse">
<stop offset="0.5179" stop-color="#BAD1E3"/>
<stop offset="0.8552" stop-color="#F2E1E9"/>
</linearGradient>
<linearGradient id="paint36_linear" x1="133.702" y1="403.285" x2="94.5813" y2="403.285" gradientUnits="userSpaceOnUse">
<stop stop-color="#BAD1E3"/>
<stop offset="0.4742" stop-color="#D6E1E9"/>
<stop offset="0.8512" stop-color="#FFFFEA"/>
</linearGradient>
<linearGradient id="paint37_linear" x1="84.1291" y1="346.851" x2="131.609" y2="347.341" gradientUnits="userSpaceOnUse">
<stop offset="0.5179" stop-color="#BAD1E3"/>
<stop offset="0.8552" stop-color="#F2E1E9"/>
</linearGradient>
<linearGradient id="paint38_linear" x1="165.97" y1="269.955" x2="62.5525" y2="373.158" gradientUnits="userSpaceOnUse">
<stop stop-color="#5D9CBB"/>
<stop offset="0.3234" stop-color="#3C658D"/>
<stop offset="0.7183" stop-color="#182B5F"/>
<stop offset="0.9226" stop-color="#00004F"/>
</linearGradient>
<linearGradient id="paint39_linear" x1="123.061" y1="327.923" x2="87.328" y2="363.581" gradientUnits="userSpaceOnUse">
<stop stop-color="#5D9CBB"/>
<stop offset="0.3234" stop-color="#3C658D"/>
<stop offset="0.7183" stop-color="#182B5F"/>
<stop offset="0.9226" stop-color="#00004F"/>
</linearGradient>
<linearGradient id="paint40_linear" x1="202.543" y1="182.159" x2="219.301" y2="176.137" gradientUnits="userSpaceOnUse">
<stop offset="0.3552" stop-color="#9D80A7"/>
<stop offset="0.5228" stop-color="#9E84AA"/>
<stop offset="0.6865" stop-color="#A290B2"/>
<stop offset="0.8479" stop-color="#A9A3C1"/>
<stop offset="0.9901" stop-color="#B1BBD2"/>
</linearGradient>
<linearGradient id="paint41_linear" x1="206.295" y1="188.212" x2="252.197" y2="171.718" gradientUnits="userSpaceOnUse">
<stop offset="0.1091" stop-color="#447979"/>
<stop offset="0.9782" stop-color="#2C4E56"/>
</linearGradient>
<linearGradient id="paint42_linear" x1="203.402" y1="178.094" x2="242.255" y2="164.133" gradientUnits="userSpaceOnUse">
<stop offset="0.1091" stop-color="#447979"/>
<stop offset="0.9782" stop-color="#2C4E56"/>
</linearGradient>
<linearGradient id="paint43_linear" x1="239.782" y1="168.977" x2="263.525" y2="160.445" gradientUnits="userSpaceOnUse">
<stop offset="0.3552" stop-color="#9D80A7"/>
<stop offset="0.5228" stop-color="#9E84AA"/>
<stop offset="0.6865" stop-color="#A290B2"/>
<stop offset="0.8479" stop-color="#A9A3C1"/>
<stop offset="0.9901" stop-color="#B1BBD2"/>
</linearGradient>
<linearGradient id="paint44_linear" x1="245.098" y1="177.554" x2="310.137" y2="154.182" gradientUnits="userSpaceOnUse">
<stop offset="0.1091" stop-color="#447979"/>
<stop offset="0.9782" stop-color="#2C4E56"/>
</linearGradient>
<linearGradient id="paint45_linear" x1="240.998" y1="163.218" x2="296.05" y2="143.436" gradientUnits="userSpaceOnUse">
<stop offset="0.1091" stop-color="#447979"/>
<stop offset="0.9782" stop-color="#2C4E56"/>
</linearGradient>
<linearGradient id="paint46_linear" x1="298.572" y1="146.882" x2="330.939" y2="135.251" gradientUnits="userSpaceOnUse">
<stop offset="0.3552" stop-color="#9D80A7"/>
<stop offset="0.5228" stop-color="#9E84AA"/>
<stop offset="0.6865" stop-color="#A290B2"/>
<stop offset="0.8479" stop-color="#A9A3C1"/>
<stop offset="0.9901" stop-color="#B1BBD2"/>
</linearGradient>
<linearGradient id="paint47_linear" x1="305.819" y1="158.574" x2="394.48" y2="126.714" gradientUnits="userSpaceOnUse">
<stop offset="0.1091" stop-color="#447979"/>
<stop offset="0.9782" stop-color="#2C4E56"/>
</linearGradient>
<linearGradient id="paint48_linear" x1="300.23" y1="139.031" x2="375.277" y2="112.064" gradientUnits="userSpaceOnUse">
<stop offset="0.1091" stop-color="#447979"/>
<stop offset="0.9782" stop-color="#2C4E56"/>
</linearGradient>
<linearGradient id="paint49_linear" x1="285.838" y1="124.32" x2="345.719" y2="102.802" gradientUnits="userSpaceOnUse">
<stop stop-color="#BAD1E3"/>
<stop offset="0.4742" stop-color="#D6E1E9"/>
<stop offset="0.8512" stop-color="#FFFFEA"/>
</linearGradient>
<linearGradient id="paint50_linear" x1="232.156" y1="152.379" x2="273.363" y2="137.572" gradientUnits="userSpaceOnUse">
<stop stop-color="#BAD1E3"/>
<stop offset="0.4742" stop-color="#D6E1E9"/>
<stop offset="0.8512" stop-color="#FFFFEA"/>
</linearGradient>
<linearGradient id="paint51_linear" x1="440.663" y1="4.39281" x2="332.109" y2="204.648" gradientUnits="userSpaceOnUse">
<stop stop-color="#5D9CBB"/>
<stop offset="0.3234" stop-color="#3C658D"/>
<stop offset="0.7183" stop-color="#182B5F"/>
<stop offset="0.9226" stop-color="#00004F"/>
</linearGradient>
<linearGradient id="paint52_linear" x1="384.865" y1="119.092" x2="423.5" y2="105.21" gradientUnits="userSpaceOnUse">
<stop stop-color="#5D9CBB"/>
<stop offset="0.3234" stop-color="#3C658D"/>
<stop offset="0.7183" stop-color="#182B5F"/>
<stop offset="0.9226" stop-color="#00004F"/>
</linearGradient>
<linearGradient id="paint53_linear" x1="360.126" y1="118.088" x2="405.403" y2="101.819" gradientUnits="userSpaceOnUse">
<stop stop-color="#BAD1E3"/>
<stop offset="0.4742" stop-color="#D6E1E9"/>
<stop offset="0.8512" stop-color="#FFFFEA"/>
</linearGradient>
<linearGradient id="paint54_linear" x1="411.767" y1="113.47" x2="424.246" y2="108.986" gradientUnits="userSpaceOnUse">
<stop stop-color="#BAD1E3"/>
<stop offset="0.4742" stop-color="#D6E1E9"/>
<stop offset="0.8512" stop-color="#FFFFEA"/>
</linearGradient>
<linearGradient id="paint55_linear" x1="367.226" y1="112.554" x2="385.029" y2="106.157" gradientUnits="userSpaceOnUse">
<stop stop-color="#BAD1E3"/>
<stop offset="0.4742" stop-color="#D6E1E9"/>
<stop offset="0.8512" stop-color="#FFFFEA"/>
</linearGradient>
<linearGradient id="paint56_linear" x1="179.78" y1="194.788" x2="296.507" y2="194.788" gradientUnits="userSpaceOnUse">
<stop offset="0.2083" stop-color="#E1721B"/>
<stop offset="0.8552" stop-color="#F2E1E9"/>
</linearGradient>
<linearGradient id="paint57_linear" x1="180.774" y1="205.344" x2="308.363" y2="205.344" gradientUnits="userSpaceOnUse">
<stop offset="0.2083" stop-color="#E1721B"/>
<stop offset="0.8552" stop-color="#F2E1E9"/>
</linearGradient>
<linearGradient id="paint58_linear" x1="178.961" y1="198.362" x2="295.697" y2="198.362" gradientUnits="userSpaceOnUse">
<stop offset="0.2083" stop-color="#E1721B"/>
<stop offset="0.8552" stop-color="#F2E1E9"/>
</linearGradient>
<linearGradient id="paint59_linear" x1="176.269" y1="198.921" x2="200.522" y2="198.921" gradientUnits="userSpaceOnUse">
<stop offset="0.5179" stop-color="#BAD1E3"/>
<stop offset="0.8552" stop-color="#F2E1E9"/>
</linearGradient>
<linearGradient id="paint60_linear" x1="198.896" y1="183.662" x2="192.64" y2="180.708" gradientUnits="userSpaceOnUse">
<stop offset="0.0813" stop-color="#DB2C0A"/>
<stop offset="0.4953" stop-color="#E1721B"/>
</linearGradient>
<linearGradient id="paint61_linear" x1="122.902" y1="61.7883" x2="113.711" y2="55.0577" gradientUnits="userSpaceOnUse">
<stop offset="0.0813" stop-color="#DB2C0A"/>
<stop offset="0.4953" stop-color="#E1721B"/>
</linearGradient>
<linearGradient id="paint62_linear" x1="160.291" y1="103.372" x2="174.259" y2="103.372" gradientUnits="userSpaceOnUse">
<stop stop-color="#5D9CBB"/>
<stop offset="0.3234" stop-color="#3C658D"/>
<stop offset="0.7183" stop-color="#182B5F"/>
<stop offset="0.9226" stop-color="#00004F"/>
</linearGradient>
<linearGradient id="paint63_linear" x1="161.077" y1="103.886" x2="167.718" y2="103.886" gradientUnits="userSpaceOnUse">
<stop stop-color="#BAD1E3"/>
<stop offset="0.4742" stop-color="#D6E1E9"/>
<stop offset="0.8512" stop-color="#FFFFEA"/>
</linearGradient>
<linearGradient id="paint64_linear" x1="114.692" y1="56.9063" x2="118.777" y2="58.2315" gradientUnits="userSpaceOnUse">
<stop stop-color="#BAD1E3"/>
<stop offset="0.4742" stop-color="#D6E1E9"/>
<stop offset="0.8512" stop-color="#FFFFEA"/>
</linearGradient>
<linearGradient id="paint65_linear" x1="109.314" y1="286.706" x2="176.269" y2="286.706" gradientUnits="userSpaceOnUse">
<stop offset="0.3552" stop-color="#9D80A7"/>
<stop offset="0.5228" stop-color="#9E84AA"/>
<stop offset="0.6865" stop-color="#A290B2"/>
<stop offset="0.8479" stop-color="#A9A3C1"/>
<stop offset="0.9901" stop-color="#B1BBD2"/>
</linearGradient>
<linearGradient id="paint66_linear" x1="92.2359" y1="135.787" x2="92.2359" y2="237.975" gradientUnits="userSpaceOnUse">
<stop offset="0.2319" stop-color="white"/>
<stop offset="0.3801" stop-color="#FBFFFF"/>
<stop offset="0.5248" stop-color="#EFFFFE"/>
<stop offset="0.6681" stop-color="#DCFFFC"/>
<stop offset="0.8106" stop-color="#C0FFFB"/>
<stop offset="0.9512" stop-color="#9DFFF8"/>
<stop offset="1" stop-color="#8FFFF7"/>
</linearGradient>
<linearGradient id="paint67_linear" x1="71.5847" y1="220.451" x2="71.5847" y2="244.396" gradientUnits="userSpaceOnUse">
<stop offset="0.2319" stop-color="white"/>
<stop offset="0.3801" stop-color="#FBFFFF"/>
<stop offset="0.5248" stop-color="#EFFFFE"/>
<stop offset="0.6681" stop-color="#DCFFFC"/>
<stop offset="0.8106" stop-color="#C0FFFB"/>
<stop offset="0.9512" stop-color="#9DFFF8"/>
<stop offset="1" stop-color="#8FFFF7"/>
</linearGradient>
<linearGradient id="paint68_linear" x1="109.772" y1="293.455" x2="109.772" y2="354.237" gradientUnits="userSpaceOnUse">
<stop offset="0.2319" stop-color="white"/>
<stop offset="0.3801" stop-color="#FBFFFF"/>
<stop offset="0.5248" stop-color="#EFFFFE"/>
<stop offset="0.6681" stop-color="#DCFFFC"/>
<stop offset="0.8106" stop-color="#C0FFFB"/>
<stop offset="0.9512" stop-color="#9DFFF8"/>
<stop offset="1" stop-color="#8FFFF7"/>
</linearGradient>
<linearGradient id="paint69_linear" x1="93.022" y1="327.876" x2="93.022" y2="401.459" gradientUnits="userSpaceOnUse">
<stop offset="0.2319" stop-color="white"/>
<stop offset="0.3801" stop-color="#FBFFFF"/>
<stop offset="0.5248" stop-color="#EFFFFE"/>
<stop offset="0.6681" stop-color="#DCFFFC"/>
<stop offset="0.8106" stop-color="#C0FFFB"/>
<stop offset="0.9512" stop-color="#9DFFF8"/>
<stop offset="1" stop-color="#8FFFF7"/>
</linearGradient>
<linearGradient id="paint70_linear" x1="184.165" y1="292.741" x2="184.165" y2="354.989" gradientUnits="userSpaceOnUse">
<stop offset="0.2319" stop-color="white"/>
<stop offset="0.3801" stop-color="#FBFFFF"/>
<stop offset="0.5248" stop-color="#EFFFFE"/>
<stop offset="0.6681" stop-color="#DCFFFC"/>
<stop offset="0.8106" stop-color="#C0FFFB"/>
<stop offset="0.9512" stop-color="#9DFFF8"/>
<stop offset="1" stop-color="#8FFFF7"/>
</linearGradient>
</defs>
</svg>
