<svg width="196" height="180" viewBox="0 0 196 180" fill="none" xmlns="http://www.w3.org/2000/svg">
<path d="M47.3838 55.3987L32.511 42.3878L42.0401 30.9817L43.6189 32.3129L34.5383 42.2784L50.2893 54.9884L47.3838 55.3987Z" fill="url(#paint0_linear)"/>
<path d="M43.6189 32.3129V33.6714L35.6033 42.2967L47.7202 52.2804L46.4216 52.4902L34.5383 42.2784L43.6189 32.3129Z" fill="#54788B"/>
<g opacity="0.41">
<path opacity="0.41" d="M33.52 41.1751C33.52 41.1751 34.6504 40.2178 35.5566 40.1996C36.4534 40.1722 36.4347 41.4031 36.4347 41.4031L43.049 32.9784L38.2004 35.5678L33.52 41.1751Z" fill="#3E6171"/>
</g>
<path d="M34.8839 34.3554L36.4627 36.5983L48.346 30.1978L47.1502 24.3898L34.8839 34.3554Z" fill="#54788B"/>
<path d="M34.8839 34.3552C34.8839 34.3552 42.2082 31.8661 44.3382 30.6717C46.4776 29.4772 47.9723 28.3831 47.9723 28.3831L47.1502 24.3805L34.8839 34.3552Z" fill="url(#paint1_linear)"/>
<path d="M36.4627 36.5981L32.8752 35.9872L34.8838 34.3552L36.4627 36.5981Z" fill="#3E6171"/>
<path d="M45.0389 58.4713L43.6188 52.9278L55.3246 51.0861L56.6606 55.6813L45.0389 58.4713Z" fill="#9DB8C9"/>
<path d="M55.3246 51.0861L59.5567 52.399L59.2951 55.2346L56.6606 55.6813L55.3246 51.0861Z" fill="#54788B"/>
<path d="M26.3171 42.2966L64.9659 9.14496L64.2933 7.47644L25.579 40.701L26.3171 42.2966Z" fill="#54788B"/>
<path d="M0.364347 32.9055L26.3171 42.2967L25.9434 40.8014L0 31.1458L0.364347 32.9055Z" fill="#3E6171"/>
<path d="M64.2932 7.47645L35.1174 0L0 31.1458L25.9434 40.8013L64.2932 7.47645Z" fill="url(#paint2_linear)"/>
<path d="M15.4521 36.899C21.3844 31.4375 27.4101 26.0581 33.3798 20.6331C39.4056 15.272 45.3939 9.85612 51.4664 4.53143C45.5341 9.99288 39.5083 15.3723 33.5386 20.7973C27.5036 26.1584 21.5245 31.5743 15.4521 36.899Z" fill="#3B5967"/>
<path d="M20.4315 38.7499L58.3516 5.9538L21.0761 38.9869L20.4315 38.7499Z" fill="url(#paint3_linear)"/>
<path d="M12.528 35.7866L49.6259 3.71997L13.1726 36.0328L12.528 35.7866Z" fill="url(#paint4_linear)"/>
<path d="M4.62439 32.8326L40.9096 1.48621L5.269 33.0696L4.62439 32.8326Z" fill="url(#paint5_linear)"/>
<path d="M27.7371 6.54651L54.9697 15.5729L55.4835 15.1262L27.7371 6.54651Z" fill="url(#paint6_linear)"/>
<path d="M17.5167 15.3632L44.7586 24.3896L45.2724 23.9428L17.5167 15.3632Z" fill="url(#paint7_linear)"/>
<path d="M7.3056 24.2802L34.5382 33.3067L35.052 32.8599L7.3056 24.2802Z" fill="url(#paint8_linear)"/>
<path d="M40.237 22.5114C40.237 22.9673 39.854 23.332 39.3962 23.332C38.9291 23.332 38.5554 22.9582 38.5554 22.5114C38.5554 22.0647 38.9384 21.6908 39.3962 21.6908C39.8633 21.6817 40.237 22.0555 40.237 22.5114Z" fill="url(#paint9_linear)"/>
<path d="M30.2595 31.2735C30.2595 31.7293 29.8858 32.094 29.4187 32.094C28.9516 32.094 28.5779 31.7202 28.5779 31.2735C28.5779 30.8176 28.9516 30.4529 29.4187 30.4529C29.8764 30.4529 30.2595 30.8176 30.2595 31.2735Z" fill="url(#paint10_linear)"/>
<path d="M20.8985 29.614C21.3629 29.614 21.7393 29.2466 21.7393 28.7934C21.7393 28.3402 21.3629 27.9728 20.8985 27.9728C20.4342 27.9728 20.0577 28.3402 20.0577 28.7934C20.0577 29.2466 20.4342 29.614 20.8985 29.614Z" fill="url(#paint11_linear)"/>
<path d="M32.0905 19.7214C32.0905 20.0952 31.7822 20.3961 31.3992 20.3961C31.0162 20.3961 30.7079 20.0952 30.7079 19.7214C30.7079 19.3476 31.0162 19.0467 31.3992 19.0467C31.7729 19.0467 32.0905 19.3476 32.0905 19.7214Z" fill="url(#paint12_linear)"/>
<path d="M42.0961 10.8955C42.0961 11.2694 41.7878 11.5702 41.4048 11.5702C41.0217 11.5702 40.7134 11.2694 40.7134 10.8955C40.7134 10.5217 41.0217 10.2208 41.4048 10.2208C41.7785 10.2208 42.0961 10.5217 42.0961 10.8955Z" fill="url(#paint13_linear)"/>
<path d="M33.7722 8.15114C33.7722 8.46114 33.5106 8.70731 33.2023 8.70731C32.8847 8.70731 32.6324 8.45202 32.6324 8.15114C32.6324 7.84114 32.894 7.59496 33.2023 7.59496C33.52 7.58585 33.7722 7.84114 33.7722 8.15114Z" fill="url(#paint14_linear)"/>
<path d="M22.6362 17.7155C22.3933 17.5241 22.356 17.1685 22.5521 16.9314C22.7483 16.6944 23.1127 16.6579 23.3556 16.8494C23.5985 17.0408 23.6358 17.3964 23.4397 17.6335C23.2435 17.8705 22.8885 17.907 22.6362 17.7155Z" fill="url(#paint15_linear)"/>
<path d="M12.556 26.5049C12.3131 26.3134 12.2757 25.9578 12.4719 25.7208C12.6681 25.4837 13.0324 25.4473 13.2753 25.6387C13.5182 25.8302 13.5556 26.1858 13.3594 26.4228C13.1632 26.6599 12.7989 26.6964 12.556 26.5049Z" fill="url(#paint16_linear)"/>
<path d="M49.6259 14.3785C50.0903 14.3785 50.4667 14.0111 50.4667 13.5579C50.4667 13.1047 50.0903 12.7373 49.6259 12.7373C49.1615 12.7373 48.7851 13.1047 48.7851 13.5579C48.7851 14.0111 49.1615 14.3785 49.6259 14.3785Z" fill="url(#paint17_linear)"/>
<path d="M64.9658 9.14496L30.6985 36.6619L64.2932 7.47644L64.9658 9.14496Z" fill="#3E6171"/>
<path d="M18.9927 38.1663C24.9251 32.7049 30.9508 27.3255 36.9205 21.9005C42.9462 16.5393 48.9346 11.1235 55.007 5.79877C49.0747 11.2602 43.049 16.6396 37.0793 22.0646C31.0442 27.4258 25.0652 32.8416 18.9927 38.1663Z" fill="#3B5967"/>
<path d="M23.5798 39.7072C29.5121 34.2458 35.5378 28.8664 41.5075 23.4414C47.5333 18.0802 53.5216 12.6643 59.5941 7.33966C53.6618 12.8102 47.6454 18.1896 41.6663 23.6055C35.6406 28.9758 29.6522 34.3825 23.5798 39.7072Z" fill="#3B5967"/>
<path d="M10.4726 34.8384C16.3021 29.4681 22.2158 24.189 28.0734 18.8643C34.0057 13.5943 39.8819 8.27878 45.8423 3.05438C40.0127 8.42466 34.1084 13.7038 28.2415 19.0284C22.3185 24.2984 16.4329 29.614 10.4726 34.8384Z" fill="#3B5967"/>
<path d="M7.5672 33.7808C13.3594 28.447 19.2263 23.2044 25.0559 17.9162C30.9415 12.6827 36.7804 7.40356 42.694 2.21564C36.9018 7.54944 31.0349 12.7921 25.2053 18.0803C19.3291 23.3138 13.4902 28.5929 7.5672 33.7808Z" fill="#3B5967"/>
<path d="M2.89606 32.1578C8.64153 26.8696 14.4711 21.6635 20.2539 16.4117C26.0928 11.2147 31.885 5.98117 37.7613 0.829712C32.0158 6.12705 26.1862 11.3241 20.4034 16.5758C14.5645 21.7729 8.77232 27.0064 2.89606 32.1578Z" fill="#3B5967"/>
<path opacity="0.41" d="M3.12964 30.1611L35.6032 1.03943L59.5567 7.47647C59.5567 7.47647 40.2463 8.95352 27.7371 15.6003C15.2185 22.247 2.2795 34.0179 3.12964 30.1611Z" fill="url(#paint18_linear)"/>
<path d="M50.8777 57.7601L52.8957 25.7937L52.7742 51.5966L63.1815 51.3413L64.4894 53.9854L72.4209 54.3136L72.7199 47.4845L76.7838 48.3598V53.3836H79.0633L84.9489 34.2366L80.8383 57.0854L50.8777 57.7601Z" fill="url(#paint19_linear)"/>
<path d="M73.4298 173.608H55.8851L57.0996 171.283H74.3921L73.4298 173.608Z" fill="url(#paint20_linear)"/>
<path d="M73.4298 173.608V175.678H56.4643L55.9786 173.955L55.8851 173.608H73.4298Z" fill="#7590A2"/>
<path d="M74.5136 171.283V173.189L73.4299 175.678V173.608L74.5136 171.283Z" fill="#263F41"/>
<path d="M58.7065 132.114L62.4154 153.313L62.6583 173.481H68.3944V153.176L72.5797 129.652L58.7065 132.114Z" fill="url(#paint21_linear)"/>
<path d="M65.6105 137.439C86.7699 137.439 103.923 120.698 103.923 100.048C103.923 79.3969 86.7699 62.6562 65.6105 62.6562C44.4511 62.6562 27.298 79.3969 27.298 100.048C27.298 120.698 44.4511 137.439 65.6105 137.439Z" fill="url(#paint22_linear)"/>
<path d="M36.7243 124.273C36.6776 124.164 42.7313 128.531 49.3269 128.422C56.7727 128.303 61.7147 126.315 68.3197 127.519C74.9246 128.722 81.2587 128.422 86.2474 124.273C92.4413 119.122 94.3378 114.435 94.3378 114.435L103.101 107.797C103.101 107.797 98.5511 133.764 70.8047 137.092C47.4772 139.901 36.7243 124.273 36.7243 124.273Z" fill="#765183"/>
<path d="M24.7849 99.2817L28.2602 108.381C28.2602 108.381 37.238 121.018 67.0117 121.173C91.5538 121.301 103.11 107.798 103.11 107.798L106.511 98.7346L24.7849 99.2817Z" fill="#4A2D51"/>
<path d="M49.3269 114.207C49.3269 114.207 58.7065 118.21 79.0632 117.827C80.1189 117.809 81.1932 117.717 82.2769 117.581C88.7044 116.751 94.5526 114.818 99.6722 110.934L103.101 107.807L106.501 98.7437L49.3269 114.207Z" fill="#38203E"/>
<path d="M106.501 98.7346C107.193 76.7064 88.1906 58.8268 65.6104 58.8268C43.0303 58.8268 24.7195 76.6973 24.7195 98.7346C24.7195 104.032 43.0303 116.405 65.6104 116.405C88.1999 116.405 106.436 101.005 106.501 98.7346Z" fill="url(#paint23_linear)"/>
<path d="M30.1006 102.865C30.1006 102.865 54.1943 108.49 71.6829 95.0328C89.1716 81.5753 87.7422 70.3423 87.7422 70.3423C87.7422 70.3423 70.2349 55.9548 48.2246 67.1694C26.2143 78.375 30.1006 102.865 30.1006 102.865Z" fill="url(#paint24_linear)"/>
<path d="M70.8047 62.8477C70.8047 62.8477 81.3708 68.0629 86.5557 85.2679C91.2081 100.704 89.9936 109.803 89.9936 109.803C89.9936 109.803 92.3759 96.1361 86.481 81.6846C80.4646 66.9232 70.8047 62.8477 70.8047 62.8477Z" fill="url(#paint25_linear)"/>
<path d="M36.883 108.381C36.883 108.381 33.4264 93.3552 39.667 77.8553C44.7772 65.1635 56.3896 62.8932 56.3896 62.8932C56.3896 62.8932 44.254 65.0724 39.3867 81.5479C34.5101 98.0143 36.883 108.381 36.883 108.381Z" fill="url(#paint26_linear)"/>
<path d="M61.0327 62.8477C61.0327 62.8477 59.7996 78.9129 60.2667 90.8478C60.7244 102.783 62.1164 106.712 62.1164 106.266C62.1164 105.819 61.8081 76.1047 61.0327 62.8477Z" fill="url(#paint27_linear)"/>
<path d="M29.8297 89.307C29.8297 89.307 41.0591 92.4799 66.7969 91.7323C85.5188 91.1852 97.0658 87.4926 97.0658 87.4926C97.0658 87.4926 81.3895 90.1549 62.1165 90.7567C51.7653 91.0667 40.3771 90.3373 29.8297 89.307Z" fill="url(#paint28_linear)"/>
<path d="M36.4347 75.1748C36.4347 75.1748 45.4593 78.3477 66.143 77.6C81.184 77.053 90.4608 73.3604 90.4608 73.3604C90.4608 73.3604 77.8581 76.0227 62.3781 76.6245C54.0635 76.9345 44.9081 76.205 36.4347 75.1748Z" fill="url(#paint29_linear)"/>
<path d="M42.1801 66.0389L45.7395 57.441L79.3809 55.8545V62.9024C79.3902 62.8933 52.9797 59.9301 42.1801 66.0389Z" fill="#3B5967"/>
<path d="M87.7702 65.1909L84.3323 57.0306L79.3903 55.8453V62.8932C79.3903 62.8932 84.9676 63.2579 87.7702 65.1909Z" fill="#2D4650"/>
<path d="M92.9552 177.183H75.4011L77.8301 174.393H95.1319L92.9552 177.183Z" fill="url(#paint30_linear)"/>
<path d="M92.9552 177.183V180H75.9803L75.5039 177.648L75.4011 177.183H92.9552Z" fill="#7590A2"/>
<path d="M95.132 174.393V176.991L92.9552 180V177.183L95.132 174.393Z" fill="#263F41"/>
<path d="M75.4011 177.183C75.4011 177.183 85.3599 175.76 88.8352 176.116C92.3105 176.471 92.9458 177.183 92.9458 177.183H75.4011Z" fill="url(#paint31_linear)"/>
<path d="M72.5798 129.652L90.3861 149.957L86.3315 175.824L84.8087 175.523L84.7901 151.617L72.178 133.135L72.5798 129.652Z" fill="#7590A2"/>
<path d="M86.3315 175.824L87.9104 175.35L94.0576 146.693L78.101 128.23L72.5798 129.652L90.2833 150.577L86.3315 175.824Z" fill="url(#paint32_linear)"/>
<path d="M84.79 151.872V151.626L90.2272 150.477L94.0575 146.702L93.9921 147.003L90.3674 150.659C90.3487 150.678 90.33 150.687 90.302 150.696L84.79 151.872Z" fill="#3B5967"/>
<path d="M84.7901 155.975L84.7714 155.674L89.676 150.988L84.7901 153.376V153.112L90.2366 150.468C90.2833 150.441 90.3487 150.459 90.3767 150.504C90.4141 150.55 90.4047 150.614 90.3674 150.65L84.7901 155.975Z" fill="#3B5967"/>
<path d="M90.1151 150.687C90.1058 150.687 90.0964 150.687 90.0871 150.687L83.1645 149.246L82.9777 148.964L89.1435 150.249L81.4455 146.721L81.2026 146.374L90.1525 150.468C90.2085 150.495 90.2272 150.55 90.2085 150.605C90.2085 150.659 90.1618 150.687 90.1151 150.687Z" fill="#3B5967"/>
<path d="M85.5094 143.42C85.4814 143.42 85.444 143.402 85.4253 143.384L73.2897 129.47L73.542 129.406L85.5467 143.174L88.7511 141.888L77.2508 128.449L77.4937 128.385L89.0221 141.861C89.0501 141.888 89.0501 141.925 89.0501 141.961C89.0407 141.998 89.0127 142.025 88.9847 142.034L85.5654 143.411C85.5374 143.42 85.5187 143.42 85.5094 143.42Z" fill="#3B5967"/>
<path d="M89.9189 150.149C89.9189 150.149 82.7441 143.785 80.5954 142.727C78.4373 141.669 77.8955 141.514 77.8955 141.514L72.178 133.135L72.5891 129.652L89.9189 150.149Z" fill="url(#paint33_linear)"/>
<path opacity="0.48" d="M84.7714 157.698L90.1245 150.587L81.978 147.487L84.7994 151.635L84.7714 157.698Z" fill="url(#paint34_linear)"/>
<path d="M38.901 177.183H56.4457L54.0167 174.393H36.7242L38.901 177.183Z" fill="url(#paint35_linear)"/>
<path d="M38.9009 177.183V180H55.8664L56.3522 177.648L56.4457 177.183H38.9009Z" fill="#7590A2"/>
<path d="M36.7242 174.393V176.991L38.901 180V177.183L36.7242 174.393Z" fill="#263F41"/>
<path d="M56.4457 177.183C56.4457 177.183 46.4869 175.76 43.0116 176.116C39.5363 176.471 38.901 177.183 38.901 177.183H56.4457Z" fill="url(#paint36_linear)"/>
<path d="M59.267 129.652L41.47 149.957L45.5152 175.824L47.038 175.523L47.0567 151.617L59.678 133.135L59.267 129.652Z" fill="#7590A2"/>
<path d="M45.5153 175.824L43.9458 175.35L37.7892 146.693L53.7551 128.23L59.267 129.652L41.5635 150.577L45.5153 175.824Z" fill="url(#paint37_linear)"/>
<path d="M47.0567 151.872V151.626L41.6196 150.477L37.7892 146.702L37.8546 147.003L41.4794 150.659C41.4981 150.678 41.5168 150.687 41.5448 150.696L47.0567 151.872Z" fill="#3B5967"/>
<path d="M47.0567 155.975L47.0754 155.674L42.1707 150.988L47.0567 153.376V153.112L41.6102 150.468C41.5635 150.441 41.4981 150.459 41.4607 150.504C41.4234 150.55 41.4327 150.614 41.4701 150.65L47.0567 155.975Z" fill="#3B5967"/>
<path d="M41.7317 150.687C41.7411 150.687 41.7504 150.687 41.7597 150.687L48.6823 149.246L48.8692 148.964L42.7033 150.249L50.4013 146.721L50.6442 146.374L41.6943 150.468C41.6383 150.495 41.6196 150.55 41.6383 150.605C41.6476 150.659 41.685 150.687 41.7317 150.687Z" fill="#3B5967"/>
<path d="M46.3374 143.42C46.3654 143.42 46.4028 143.402 46.4215 143.384L58.557 129.47L58.3048 129.406L46.3 143.174L43.0956 141.888L54.5959 128.449L54.353 128.385L42.8247 141.861C42.7967 141.888 42.7967 141.925 42.7967 141.961C42.806 141.998 42.8341 142.025 42.8621 142.034L46.2813 143.411C46.3094 143.42 46.3281 143.42 46.3374 143.42Z" fill="#3B5967"/>
<path d="M41.9279 150.149C41.9279 150.149 49.1027 143.785 51.2607 142.727C53.4188 141.669 53.9606 141.514 53.9606 141.514L59.6781 133.135L59.267 129.652L41.9279 150.149Z" fill="url(#paint38_linear)"/>
<path opacity="0.48" d="M47.0567 157.68L41.7223 150.587L49.8781 147.487L47.0474 151.635L47.0567 157.68Z" fill="url(#paint39_linear)"/>
<path d="M35.2576 122.869L40.4986 118.474L47.4772 120.772L42.7687 130.072L42.367 129.871C39.2841 128.34 36.799 125.887 35.2576 122.869Z" fill="#4A2D51"/>
<path d="M88.1345 130.509L82.389 121.173L88.8725 118.638L95.2159 123.781C94.1135 126.735 91.778 129.087 88.7885 130.254L88.1345 130.509Z" fill="#4A2D51"/>
<path d="M99.1397 98.9534L102.167 98.1784C102.167 98.1784 102.933 87.3741 98.028 79.7791C93.7586 73.1597 90.0591 71.783 90.0591 71.783L84.7807 71.3088L99.1397 98.9534Z" fill="#901B06"/>
<path d="M68.3197 74.0168C68.3197 74.0168 76.4007 80.8459 78.9512 92.4252C80.6328 100.048 80.6328 104.032 80.6328 104.032L99.1397 98.9534C99.1397 98.9534 100.158 91.5135 96.2623 81.8397C92.3573 72.1659 84.7901 71.3088 84.7901 71.3088L68.3197 74.0168Z" fill="#34213A"/>
<path d="M90.8438 79.772C89.2276 75.3682 90.2086 71.0008 93.0299 69.9341C93.0206 69.9341 93.0113 69.9341 93.0019 69.9341C92.8151 69.9706 90.3113 70.8732 90.1338 70.937C87.2471 71.9491 86.2288 76.3711 87.8637 80.8114C89.4986 85.2517 93.1607 88.0326 96.0475 87.0205C96.225 86.9567 98.9249 86.0449 99.1398 85.9355C99.0837 85.9537 99.037 85.972 99.0183 85.9811C96.1409 87.0023 92.4787 84.2214 90.8438 79.772Z" fill="#4A2D51"/>
<path d="M98.3177 77.1532C96.7949 73.0047 95.7953 69.4488 93.03 69.9321C90.2086 70.9988 89.2277 75.3753 90.8439 79.77C92.4788 84.2103 96.141 86.9911 99.0277 85.9791C99.0464 85.97 99.0931 85.9608 99.1492 85.9335H99.1585C101.634 84.6023 99.8498 81.32 98.3177 77.1532Z" fill="url(#paint40_linear)"/>
<path d="M91.0961 72.7221L113.312 62.173L120.235 78.5938L95.7392 85.3682C91.9556 82.5053 90.0965 77.6638 91.0213 73.0685L91.0961 72.7221Z" fill="#54788B"/>
<path d="M90.9653 77.4997C91.5445 77.5453 93.5064 78.2656 97.8505 78.0467C101.046 77.8826 110.182 75.6671 110.182 75.6671L114.9 80.0526L95.7391 85.3499C95.7391 85.3591 91.7407 82.7058 90.9653 77.4997Z" fill="url(#paint41_linear)"/>
<path d="M108.323 70.9714L90.7972 75.7764L91.0401 77.4723L109.426 73.9894L108.323 70.9714Z" fill="url(#paint42_linear)"/>
<path d="M91.1147 71.5276L87.9571 72.8679C87.9571 72.8679 87.2751 74.1718 87.1817 75.2476C87.0882 76.3235 87.1256 77.6 87.1256 77.6L90.0684 76.0409C90.0777 76.0318 89.8255 73.2235 91.1147 71.5276Z" fill="#866392"/>
<path d="M87.7702 80.5449C87.7702 80.5449 88.9006 83.4261 90.003 84.5476C91.1054 85.6599 91.367 85.8787 91.367 85.8787L94.3378 84.8393C94.3378 84.8393 92.4693 83.3076 91.7033 81.6573C90.9279 80.0161 90.8438 79.7791 90.8438 79.7791L87.7702 80.5449Z" fill="#3C2243"/>
<path d="M92.0023 86.3255L94.9731 85.2861C94.9731 85.2861 96.0849 86.052 96.9911 86.1158C97.9066 86.1888 98.0187 86.3347 98.0187 86.3347L95.2441 87.3102C95.2534 87.3102 93.1514 87.2647 92.0023 86.3255Z" fill="#3C2243"/>
<path d="M107.548 73.999C105.25 67.7626 106.642 61.5717 110.649 60.0582C110.64 60.0582 110.621 60.0582 110.612 60.0582C110.35 60.1038 106.81 61.3893 106.548 61.4805C102.456 62.912 101.017 69.1758 103.334 75.4761C105.651 81.7672 110.846 85.7151 114.928 84.2746C115.18 84.1834 119.011 82.8887 119.31 82.7428C119.226 82.7701 119.16 82.7884 119.141 82.7975C115.05 84.2381 109.855 80.2902 107.548 73.999Z" fill="#4A2D51"/>
<path d="M118.132 70.2876C115.965 64.4068 114.554 59.3738 110.64 60.0577C106.642 61.5712 105.25 67.7621 107.538 73.9985C109.855 80.2897 115.05 84.2376 119.141 82.797C119.169 82.7879 119.225 82.7697 119.31 82.7423L119.319 82.7332C122.841 80.8458 120.309 76.1867 118.132 70.2876Z" fill="url(#paint43_linear)"/>
<path d="M107.903 64.0056L139.386 49.0527L149.195 72.3118L114.489 81.9035C109.127 77.8553 106.492 70.9806 107.809 64.4706L107.903 64.0056Z" fill="#54788B"/>
<path d="M107.725 70.78C108.538 70.8438 111.322 71.8741 117.479 71.555C122.01 71.3271 134.949 68.1906 134.949 68.1906L141.628 74.4088L114.48 81.9126C114.489 81.9126 108.818 78.147 107.725 70.78Z" fill="url(#paint44_linear)"/>
<path d="M132.305 61.5256L107.482 68.3365L107.819 70.7435L133.883 65.8018L132.305 61.5256Z" fill="url(#paint45_linear)"/>
<path d="M107.931 62.3188L103.447 64.2153C103.447 64.2153 102.484 66.0571 102.354 67.5797C102.223 69.1024 102.279 70.9077 102.279 70.9077L106.445 68.6921C106.455 68.6921 106.109 64.7168 107.931 62.3188Z" fill="#866392"/>
<path d="M103.194 75.0835C103.194 75.0835 104.801 79.1682 106.361 80.7547C107.921 82.3412 108.295 82.6329 108.295 82.6329L112.508 81.1559C112.508 81.1559 109.865 78.9768 108.772 76.6518C107.679 74.3268 107.548 73.9985 107.548 73.9985L103.194 75.0835Z" fill="#3C2243"/>
<path d="M109.192 83.2893L113.405 81.8123C113.405 81.8123 114.975 82.8881 116.264 82.9975C117.553 83.0978 117.721 83.3075 117.721 83.3075L113.788 84.6843C113.798 84.6752 110.818 84.6022 109.192 83.2893Z" fill="#3C2243"/>
<path d="M133.912 64.3254C130.782 55.8278 132.678 47.3758 138.134 45.3152C138.116 45.3152 138.097 45.3152 138.078 45.3243C137.723 45.3881 132.893 47.1387 132.538 47.2664C126.961 49.2175 125.008 57.7607 128.166 66.3404C131.324 74.9201 138.405 80.2903 143.973 78.3392C144.319 78.2206 149.532 76.4518 149.952 76.2421C149.84 76.2786 149.756 76.3059 149.719 76.3242C144.151 78.2754 137.069 72.9051 133.912 64.3254Z" fill="#4A2D51"/>
<path d="M148.355 59.2554C145.403 51.241 143.478 44.3845 138.134 45.3145C132.678 47.3751 130.782 55.8271 133.912 64.3248C137.069 72.9044 144.151 78.2747 149.719 76.3235C149.747 76.3144 149.84 76.278 149.952 76.2415L149.971 76.2324C154.763 73.6521 151.307 67.2971 148.355 59.2554Z" fill="url(#paint46_linear)"/>
<path d="M134.397 50.6939L177.306 30.3069L190.684 62.018L143.375 75.0926C136.06 69.5674 132.473 60.2036 134.267 51.3321L134.397 50.6939Z" fill="#54788B"/>
<path d="M134.154 59.93C135.266 60.0121 139.05 61.4162 147.458 60.9876C153.633 60.6685 171.271 56.4015 171.271 56.4015L180.38 64.8809L143.375 75.1108C143.375 75.1017 135.649 69.9776 134.154 59.93Z" fill="url(#paint47_linear)"/>
<path d="M167.665 47.3204L133.827 56.6021L134.285 59.8845L169.814 53.1465L167.665 47.3204Z" fill="url(#paint48_linear)"/>
<path d="M134.444 48.3962L128.334 50.9856C128.334 50.9856 127.026 53.5021 126.839 55.5809C126.662 57.6597 126.737 60.1215 126.737 60.1215L132.417 57.1036C132.426 57.0853 131.95 51.6603 134.444 48.3962Z" fill="#866392"/>
<path d="M127.979 65.8018C127.979 65.8018 130.165 71.3726 132.295 73.5335C134.425 75.6852 134.93 76.0955 134.93 76.0955L140.675 74.0805C140.675 74.0805 137.069 71.1173 135.584 67.9444C134.089 64.7715 133.921 64.3247 133.921 64.3247L127.979 65.8018Z" fill="#3C2243"/>
<path d="M136.163 76.98L141.908 74.965C141.908 74.965 144.048 76.4329 145.814 76.5788C147.579 76.7155 147.794 76.9982 147.794 76.9982L142.432 78.8764C142.432 78.8764 138.377 78.7853 136.163 76.98Z" fill="#3C2243"/>
<path opacity="0.2" d="M159.434 40.3636L134.762 52.7909L134.612 55.3347L157.304 45.6153L159.434 40.3636Z" fill="url(#paint49_linear)"/>
<path opacity="0.2" d="M125.877 57.76L108.716 64.4341L108.258 66.5859L123.448 61.3068L125.877 57.76Z" fill="url(#paint50_linear)"/>
<path d="M185.266 46.4907C189.993 59.3283 195.29 69.5309 188.713 73.2873C188.274 73.5426 180.894 76.0317 180.399 76.1959C172.673 78.9038 162.321 69.9959 157.286 56.3012C152.241 42.6066 154.427 29.304 162.153 26.596C162.639 26.4228 169.328 23.9884 169.823 23.9063C177.344 22.7028 180.539 33.6531 185.266 46.4907Z" fill="#4A2D51"/>
<path d="M185.303 50.4569C190.03 63.2945 190.04 49.4904 189.591 57.7327C189.386 61.6351 188.853 73.2418 188.367 73.4059C180.641 76.1139 170.29 67.2059 165.255 53.5113C160.21 39.8166 162.396 26.514 170.122 23.8061C170.608 23.6328 178.082 35.1028 178.586 35.0208C186.107 33.8172 180.576 37.6102 185.303 50.4569Z" fill="#4A2D51"/>
<path d="M178.418 76.8523C178.418 76.8523 173.831 77.2444 170.066 74.1444C166.301 71.0444 165.329 69.9503 165.329 69.9503L167.394 58.4894L187.592 73.6703L178.418 76.8523Z" fill="#3C2243"/>
<path d="M160.406 63.0665L166.152 55.8544L163.713 48.5239L156.053 52.4536C156.053 52.4444 157.557 58.6079 160.406 63.0665Z" fill="#3C2243"/>
<path d="M155.24 35.7775C155.24 35.7775 154.548 38.8775 154.558 40.9016C154.567 42.9257 154.605 43.4272 154.605 43.4272L164.89 37.7925L165.208 32.2855L155.24 35.7775Z" fill="#866392"/>
<path d="M193.281 43.6824C198.326 57.3771 196.14 70.6797 188.414 73.3876C180.688 76.0955 170.337 67.1876 165.301 53.493C160.266 39.7983 162.443 26.4957 170.169 23.7878C177.895 21.0799 188.246 29.9878 193.281 43.6824Z" fill="url(#paint51_linear)"/>
<path d="M191.506 45.5424C195.421 56.1736 193.73 66.4947 187.732 68.6009C181.734 70.7071 173.7 63.7868 169.786 53.1556C165.871 42.5245 167.562 32.2034 173.56 30.0972C179.558 27.991 187.592 34.9022 191.506 45.5424Z" fill="#060B44"/>
<path d="M189.946 46.0895C192.954 54.6145 191.721 62.8112 186.938 64.4889C182.155 66.1665 175.746 60.6504 172.626 52.1619C169.505 43.6825 170.785 35.2578 175.634 33.7625C180.557 32.249 187.031 37.8381 189.946 46.0895Z" fill="url(#paint52_linear)"/>
<path d="M183.481 48.3506C185.555 53.9853 184.808 59.4103 181.8 60.4588C178.801 61.5073 174.681 57.7965 172.607 52.1618C170.533 46.5271 171.28 41.1021 174.289 40.0536C177.297 38.9959 181.407 42.7159 183.481 48.3506Z" fill="#060B44"/>
<path opacity="0.2" d="M189.404 64.425C189.404 64.425 181.062 73.0867 169.795 57.7326C158.528 42.3695 164.629 26.523 170.71 25.2557C176.792 23.9883 183.509 32.641 182.435 35.3489C181.361 38.0477 174.961 41.1021 178.053 50.2653C181.146 59.4194 188.741 59.5379 189.404 64.425Z" fill="url(#paint53_linear)"/>
<path opacity="0.68" d="M184.743 37.8106C184.743 37.8106 190.086 45.4056 189.974 51.7059C189.862 58.0062 188.956 59.8935 189.993 59.6929C191.03 59.4832 193.515 54.2588 191.366 47.293C189.965 42.7341 185.322 37.6101 184.743 37.8106Z" fill="url(#paint54_linear)"/>
<path opacity="0.68" d="M173.289 60.5135C173.289 60.5135 169.066 58.6991 166.675 49.1074C164.274 39.5157 169.664 33.3339 169.664 33.3339C169.664 33.3339 163.648 42.5427 173.289 60.5135Z" fill="url(#paint55_linear)"/>
<path d="M80.6327 96.6376L132.987 73.9803L81.4828 93.5102L80.6327 96.6376Z" fill="url(#paint56_linear)"/>
<path d="M81.3614 103.202L138.302 76.6608L81.0812 100.166L81.3614 103.202Z" fill="url(#paint57_linear)"/>
<path d="M83.1084 90.6746L94.3471 98.0964L97.0377 85.5596L107.323 92.6987L109.454 81.557L119.739 86.6264L121.991 76.7064L130.548 83.1435L132.622 74.2264L131.296 84.1464L122.458 78.0011L120.197 87.602L109.865 82.4141L107.529 93.8476L97.5608 86.7358L95.0758 99.5278L83.3793 91.4223L80.6327 96.6375L80.2684 94.0573L83.1084 90.6746Z" fill="url(#paint58_linear)"/>
<path d="M79.0632 88.4043C79.1847 88.4499 83.2486 82.6146 86.0886 78.5026C87.1163 77.0073 89.4798 77.4449 89.8909 79.1955C90.003 79.6879 89.9283 80.1985 89.676 80.6452L80.6327 96.6284L79.0632 88.4043Z" fill="url(#paint59_linear)"/>
<path d="M90.0591 79.7699V81.8031L80.7262 99.3545L80.6328 96.6375L90.0591 79.7699Z" fill="#948AAB"/>
<path d="M89.293 79.7699C89.293 80.5905 88.611 81.2561 87.7702 81.2561C86.9294 81.2561 86.2474 80.5905 86.2474 79.7699C86.2474 78.9493 86.9294 78.2838 87.7702 78.2838C88.611 78.2929 89.293 78.9585 89.293 79.7699Z" fill="url(#paint60_linear)"/>
<path d="M52.5593 29.076C51.9614 28.9393 51.5036 28.5016 51.5597 28.1096L52.2791 22.484C52.3258 22.0919 52.8583 21.8914 53.4655 22.0281C54.0634 22.1649 54.5212 22.6025 54.4651 22.9946L53.7458 28.6202C53.6897 29.0122 53.1572 29.2128 52.5593 29.076Z" fill="url(#paint61_linear)"/>
<path d="M73.4953 40.9471L71.8884 49.0527C71.8884 49.0527 73.2617 49.5998 75.0181 49.5998C76.7744 49.5998 78.1477 48.3962 78.1477 48.3962L75.1675 40.9471H73.4953Z" fill="url(#paint62_linear)"/>
<path opacity="0.7" d="M73.869 41.8316L72.8413 48.5695C72.8413 48.5695 74.2333 49.4813 75.4478 49.0528C76.6623 48.6242 74.5416 47.0287 74.5416 47.0287L74.4855 41.8225H73.869V41.8316Z" fill="url(#paint63_linear)"/>
<path opacity="0.7" d="M52.6621 22.4749L52.3071 28.2919C52.3071 28.2919 52.6902 28.5563 52.7182 28.4196C52.7369 28.2828 53.4749 22.4111 53.4749 22.4111L52.6621 22.4749Z" fill="url(#paint64_linear)"/>
<path d="M85.715 132.269L79.0166 123.161C78.1665 123.48 71.029 126.042 62.7798 125.65C55.8946 125.322 49.8689 123.252 49.0748 122.969L44.2448 130.573L44.0486 130.455L48.9346 122.778C48.9627 122.732 49.0187 122.714 49.0748 122.732C49.1402 122.76 55.4742 125.085 62.7985 125.431C71.4961 125.841 78.9419 122.951 79.0166 122.924C79.0633 122.905 79.1194 122.924 79.1567 122.96L85.9112 132.142L85.715 132.269Z" fill="#3B5967"/>
<path d="M49.028 122.833C49.028 122.833 51.9334 127.455 63.5178 128.23C75.1022 129.005 79.0633 123.024 79.0633 123.024C79.0633 123.024 66.4793 130.072 49.028 122.833Z" fill="url(#paint65_linear)"/>
<path d="M33.4078 95.3247C32.0812 97.0844 29.2132 95.9356 29.5588 93.7747C30.2595 89.4165 32.0999 81.9401 36.7617 76.3054C45.4126 65.8566 53.1293 65.5375 53.2133 66.9051C53.2694 67.826 49.8128 67.9901 43.8618 75.0472C39.1159 80.6727 36.7617 90.8936 33.4078 95.3247Z" fill="url(#paint66_linear)"/>
<path d="M32.0812 104.78C30.5397 104.069 28.2882 100.795 29.6335 99.0538C30.6425 97.7409 31.829 97.905 33.2677 99.2453C35.5752 101.415 35.9395 106.567 32.0812 104.78Z" fill="url(#paint67_linear)"/>
<path d="M41.7224 150.359C41.7224 150.359 46.3655 143.055 51.3169 137.959C56.2683 132.862 56.7447 132.597 56.7447 132.597L41.7224 150.359Z" fill="url(#paint68_linear)"/>
<path d="M44.3849 170.034C44.3849 170.034 40.6386 155.337 40.704 153.532C40.7601 151.726 40.704 151.261 40.704 151.261L39.0692 148.526L41.4047 150.924L44.3849 170.034Z" fill="url(#paint69_linear)"/>
<path d="M74.8967 132.388C74.8967 132.388 86.3129 144.067 88.4616 146.63C90.6103 149.192 90.2833 150.577 90.2833 150.577L74.8967 132.388Z" fill="url(#paint70_linear)"/>
<path d="M82.3891 121.173L88.9287 120.289L94.3658 125.568L95.2253 124.091L88.8819 118.638L82.3891 121.173Z" fill="#38203E"/>
<path d="M47.4772 120.772L41.1712 120.289L36.2759 124.574L35.2576 122.869L40.4986 118.474L47.4772 120.772Z" fill="#38203E"/>
<defs>
<linearGradient id="paint0_linear" x1="32.5091" y1="43.1878" x2="50.2914" y2="43.1878" gradientUnits="userSpaceOnUse">
<stop offset="0.5179" stop-color="#BAD1E3"/>
<stop offset="0.8552" stop-color="#F2E1E9"/>
</linearGradient>
<linearGradient id="paint1_linear" x1="34.8835" y1="29.371" x2="47.9731" y2="29.371" gradientUnits="userSpaceOnUse">
<stop offset="0.1091" stop-color="#447979"/>
<stop offset="0.9782" stop-color="#2C4E56"/>
</linearGradient>
<linearGradient id="paint2_linear" x1="0" y1="20.4002" x2="64.2893" y2="20.4002" gradientUnits="userSpaceOnUse">
<stop stop-color="#5D9CBB"/>
<stop offset="0.3234" stop-color="#3C658D"/>
<stop offset="0.7183" stop-color="#182B5F"/>
<stop offset="0.9226" stop-color="#00004F"/>
</linearGradient>
<linearGradient id="paint3_linear" x1="20.4358" y1="22.4711" x2="58.3501" y2="22.4711" gradientUnits="userSpaceOnUse">
<stop offset="0.5179" stop-color="#BAD1E3"/>
<stop offset="0.8552" stop-color="#F2E1E9"/>
</linearGradient>
<linearGradient id="paint4_linear" x1="12.5323" y1="19.874" x2="49.6287" y2="19.874" gradientUnits="userSpaceOnUse">
<stop offset="0.5179" stop-color="#BAD1E3"/>
<stop offset="0.8552" stop-color="#F2E1E9"/>
</linearGradient>
<linearGradient id="paint5_linear" x1="4.62822" y1="17.2769" x2="40.9075" y2="17.2769" gradientUnits="userSpaceOnUse">
<stop offset="0.5179" stop-color="#BAD1E3"/>
<stop offset="0.8552" stop-color="#F2E1E9"/>
</linearGradient>
<linearGradient id="paint6_linear" x1="27.7347" y1="11.0626" x2="55.4827" y2="11.0626" gradientUnits="userSpaceOnUse">
<stop offset="0.5179" stop-color="#BAD1E3"/>
<stop offset="0.8552" stop-color="#F2E1E9"/>
</linearGradient>
<linearGradient id="paint7_linear" x1="17.5208" y1="19.8739" x2="45.2692" y2="19.8739" gradientUnits="userSpaceOnUse">
<stop offset="0.5179" stop-color="#BAD1E3"/>
<stop offset="0.8552" stop-color="#F2E1E9"/>
</linearGradient>
<linearGradient id="paint8_linear" x1="7.30719" y1="28.7923" x2="35.0555" y2="28.7923" gradientUnits="userSpaceOnUse">
<stop offset="0.5179" stop-color="#BAD1E3"/>
<stop offset="0.8552" stop-color="#F2E1E9"/>
</linearGradient>
<linearGradient id="paint9_linear" x1="38.5473" y1="22.5074" x2="40.2378" y2="22.5074" gradientUnits="userSpaceOnUse">
<stop offset="0.5179" stop-color="#BAD1E3"/>
<stop offset="0.8552" stop-color="#F2E1E9"/>
</linearGradient>
<linearGradient id="paint10_linear" x1="28.5657" y1="31.2757" x2="30.2558" y2="31.2757" gradientUnits="userSpaceOnUse">
<stop offset="0.5179" stop-color="#BAD1E3"/>
<stop offset="0.8552" stop-color="#F2E1E9"/>
</linearGradient>
<linearGradient id="paint11_linear" x1="20.0576" y1="28.7923" x2="21.748" y2="28.7923" gradientUnits="userSpaceOnUse">
<stop offset="0.5179" stop-color="#BAD1E3"/>
<stop offset="0.8552" stop-color="#F2E1E9"/>
</linearGradient>
<linearGradient id="paint12_linear" x1="30.7027" y1="19.7247" x2="32.0871" y2="19.7247" gradientUnits="userSpaceOnUse">
<stop offset="0.5179" stop-color="#BAD1E3"/>
<stop offset="0.8552" stop-color="#F2E1E9"/>
</linearGradient>
<linearGradient id="paint13_linear" x1="40.7081" y1="10.8954" x2="42.0924" y2="10.8954" gradientUnits="userSpaceOnUse">
<stop offset="0.5179" stop-color="#BAD1E3"/>
<stop offset="0.8552" stop-color="#F2E1E9"/>
</linearGradient>
<linearGradient id="paint14_linear" x1="32.6272" y1="8.15004" x2="33.7755" y2="8.15004" gradientUnits="userSpaceOnUse">
<stop offset="0.5179" stop-color="#BAD1E3"/>
<stop offset="0.8552" stop-color="#F2E1E9"/>
</linearGradient>
<linearGradient id="paint15_linear" x1="23.361" y1="16.8411" x2="22.6591" y2="17.7288" gradientUnits="userSpaceOnUse">
<stop offset="0.5179" stop-color="#BAD1E3"/>
<stop offset="0.8552" stop-color="#F2E1E9"/>
</linearGradient>
<linearGradient id="paint16_linear" x1="13.2747" y1="25.6329" x2="12.5729" y2="26.5205" gradientUnits="userSpaceOnUse">
<stop offset="0.5179" stop-color="#BAD1E3"/>
<stop offset="0.8552" stop-color="#F2E1E9"/>
</linearGradient>
<linearGradient id="paint17_linear" x1="48.7834" y1="13.5618" x2="50.4738" y2="13.5618" gradientUnits="userSpaceOnUse">
<stop offset="0.5179" stop-color="#BAD1E3"/>
<stop offset="0.8552" stop-color="#F2E1E9"/>
</linearGradient>
<linearGradient id="paint18_linear" x1="-8.24265" y1="15.978" x2="48.2251" y2="15.978" gradientUnits="userSpaceOnUse">
<stop stop-color="#BAD1E3"/>
<stop offset="0.4742" stop-color="#D6E1E9"/>
<stop offset="0.8512" stop-color="#FFFFEA"/>
</linearGradient>
<linearGradient id="paint19_linear" x1="50.8788" y1="41.7772" x2="84.949" y2="41.7772" gradientUnits="userSpaceOnUse">
<stop stop-color="#5D9CBB"/>
<stop offset="0.3234" stop-color="#3C658D"/>
<stop offset="0.7183" stop-color="#182B5F"/>
<stop offset="0.9226" stop-color="#00004F"/>
</linearGradient>
<linearGradient id="paint20_linear" x1="55.8821" y1="172.445" x2="74.3922" y2="172.445" gradientUnits="userSpaceOnUse">
<stop offset="0.5179" stop-color="#BAD1E3"/>
<stop offset="0.8552" stop-color="#F2E1E9"/>
</linearGradient>
<linearGradient id="paint21_linear" x1="99.0027" y1="117.567" x2="34.5682" y2="184.788" gradientUnits="userSpaceOnUse">
<stop stop-color="#5D9CBB"/>
<stop offset="0.3234" stop-color="#3C658D"/>
<stop offset="0.7183" stop-color="#182B5F"/>
<stop offset="0.9226" stop-color="#00004F"/>
</linearGradient>
<linearGradient id="paint22_linear" x1="23.4712" y1="78.7129" x2="99.435" y2="119.089" gradientUnits="userSpaceOnUse">
<stop stop-color="#BAD1E3"/>
<stop offset="0.6052" stop-color="#866392"/>
</linearGradient>
<linearGradient id="paint23_linear" x1="104.626" y1="106.704" x2="33.408" y2="72.2598" gradientUnits="userSpaceOnUse">
<stop offset="0.0813" stop-color="#DB2C0A"/>
<stop offset="0.4953" stop-color="#E1721B"/>
</linearGradient>
<linearGradient id="paint24_linear" x1="80.675" y1="114.401" x2="36.824" y2="55.5801" gradientUnits="userSpaceOnUse">
<stop offset="0.2083" stop-color="#E1721B"/>
<stop offset="0.8552" stop-color="#F2E1E9"/>
</linearGradient>
<linearGradient id="paint25_linear" x1="71.4697" y1="78.9842" x2="156.592" y2="149.479" gradientUnits="userSpaceOnUse">
<stop offset="0.0813" stop-color="#DB2C0A"/>
<stop offset="0.4953" stop-color="#E1721B"/>
</linearGradient>
<linearGradient id="paint26_linear" x1="41.0596" y1="81.2401" x2="76.4236" y2="110.527" gradientUnits="userSpaceOnUse">
<stop offset="0.0813" stop-color="#DB2C0A"/>
<stop offset="0.4953" stop-color="#E1721B"/>
</linearGradient>
<linearGradient id="paint27_linear" x1="55.7775" y1="80.0079" x2="110.1" y2="124.995" gradientUnits="userSpaceOnUse">
<stop offset="0.0813" stop-color="#DB2C0A"/>
<stop offset="0.4953" stop-color="#E1721B"/>
</linearGradient>
<linearGradient id="paint28_linear" x1="53.1732" y1="80.2907" x2="149.518" y2="160.081" gradientUnits="userSpaceOnUse">
<stop offset="0.0813" stop-color="#DB2C0A"/>
<stop offset="0.4953" stop-color="#E1721B"/>
</linearGradient>
<linearGradient id="paint29_linear" x1="55.2376" y1="67.786" x2="132.227" y2="131.546" gradientUnits="userSpaceOnUse">
<stop offset="0.0813" stop-color="#DB2C0A"/>
<stop offset="0.4953" stop-color="#E1721B"/>
</linearGradient>
<linearGradient id="paint30_linear" x1="75.4042" y1="175.789" x2="95.1286" y2="175.789" gradientUnits="userSpaceOnUse">
<stop offset="0.5179" stop-color="#BAD1E3"/>
<stop offset="0.8552" stop-color="#F2E1E9"/>
</linearGradient>
<linearGradient id="paint31_linear" x1="71.8826" y1="176.621" x2="89.4289" y2="176.621" gradientUnits="userSpaceOnUse">
<stop stop-color="#BAD1E3"/>
<stop offset="0.4742" stop-color="#D6E1E9"/>
<stop offset="0.8512" stop-color="#FFFFEA"/>
</linearGradient>
<linearGradient id="paint32_linear" x1="94.1168" y1="151.906" x2="72.8215" y2="152.13" gradientUnits="userSpaceOnUse">
<stop offset="0.5179" stop-color="#BAD1E3"/>
<stop offset="0.8552" stop-color="#F2E1E9"/>
</linearGradient>
<linearGradient id="paint33_linear" x1="57.4101" y1="118.229" x2="102.692" y2="164.505" gradientUnits="userSpaceOnUse">
<stop stop-color="#5D9CBB"/>
<stop offset="0.3234" stop-color="#3C658D"/>
<stop offset="0.7183" stop-color="#182B5F"/>
<stop offset="0.9226" stop-color="#00004F"/>
</linearGradient>
<linearGradient id="paint34_linear" x1="76.6432" y1="143.623" x2="92.2962" y2="159.62" gradientUnits="userSpaceOnUse">
<stop stop-color="#5D9CBB"/>
<stop offset="0.3234" stop-color="#3C658D"/>
<stop offset="0.7183" stop-color="#182B5F"/>
<stop offset="0.9226" stop-color="#00004F"/>
</linearGradient>
<linearGradient id="paint35_linear" x1="56.4454" y1="175.789" x2="36.7212" y2="175.789" gradientUnits="userSpaceOnUse">
<stop offset="0.5179" stop-color="#BAD1E3"/>
<stop offset="0.8552" stop-color="#F2E1E9"/>
</linearGradient>
<linearGradient id="paint36_linear" x1="59.967" y1="176.621" x2="42.4209" y2="176.621" gradientUnits="userSpaceOnUse">
<stop stop-color="#BAD1E3"/>
<stop offset="0.4742" stop-color="#D6E1E9"/>
<stop offset="0.8512" stop-color="#FFFFEA"/>
</linearGradient>
<linearGradient id="paint37_linear" x1="37.7329" y1="151.906" x2="59.0281" y2="152.13" gradientUnits="userSpaceOnUse">
<stop offset="0.5179" stop-color="#BAD1E3"/>
<stop offset="0.8552" stop-color="#F2E1E9"/>
</linearGradient>
<linearGradient id="paint38_linear" x1="74.4396" y1="118.229" x2="29.1578" y2="164.505" gradientUnits="userSpaceOnUse">
<stop stop-color="#5D9CBB"/>
<stop offset="0.3234" stop-color="#3C658D"/>
<stop offset="0.7183" stop-color="#182B5F"/>
<stop offset="0.9226" stop-color="#00004F"/>
</linearGradient>
<linearGradient id="paint39_linear" x1="55.1942" y1="143.616" x2="39.5485" y2="159.605" gradientUnits="userSpaceOnUse">
<stop stop-color="#5D9CBB"/>
<stop offset="0.3234" stop-color="#3C658D"/>
<stop offset="0.7183" stop-color="#182B5F"/>
<stop offset="0.9226" stop-color="#00004F"/>
</linearGradient>
<linearGradient id="paint40_linear" x1="90.8434" y1="79.7776" x2="98.3175" y2="77.0271" gradientUnits="userSpaceOnUse">
<stop offset="0.3552" stop-color="#9D80A7"/>
<stop offset="0.5228" stop-color="#9E84AA"/>
<stop offset="0.6865" stop-color="#A290B2"/>
<stop offset="0.8479" stop-color="#A9A3C1"/>
<stop offset="0.9901" stop-color="#B1BBD2"/>
</linearGradient>
<linearGradient id="paint41_linear" x1="92.526" y1="82.4286" x2="112.999" y2="74.8944" gradientUnits="userSpaceOnUse">
<stop offset="0.1091" stop-color="#447979"/>
<stop offset="0.9782" stop-color="#2C4E56"/>
</linearGradient>
<linearGradient id="paint42_linear" x1="91.2284" y1="77.9975" x2="108.558" y2="71.6202" gradientUnits="userSpaceOnUse">
<stop offset="0.1091" stop-color="#447979"/>
<stop offset="0.9782" stop-color="#2C4E56"/>
</linearGradient>
<linearGradient id="paint43_linear" x1="107.545" y1="74.0044" x2="118.135" y2="70.1073" gradientUnits="userSpaceOnUse">
<stop offset="0.3552" stop-color="#9D80A7"/>
<stop offset="0.5228" stop-color="#9E84AA"/>
<stop offset="0.6865" stop-color="#A290B2"/>
<stop offset="0.8479" stop-color="#A9A3C1"/>
<stop offset="0.9901" stop-color="#B1BBD2"/>
</linearGradient>
<linearGradient id="paint44_linear" x1="109.93" y1="77.7607" x2="138.939" y2="67.0854" gradientUnits="userSpaceOnUse">
<stop offset="0.1091" stop-color="#447979"/>
<stop offset="0.9782" stop-color="#2C4E56"/>
</linearGradient>
<linearGradient id="paint45_linear" x1="108.091" y1="71.4825" x2="132.645" y2="62.4463" gradientUnits="userSpaceOnUse">
<stop offset="0.1091" stop-color="#447979"/>
<stop offset="0.9782" stop-color="#2C4E56"/>
</linearGradient>
<linearGradient id="paint46_linear" x1="133.913" y1="64.3279" x2="148.35" y2="59.0152" gradientUnits="userSpaceOnUse">
<stop offset="0.3552" stop-color="#9D80A7"/>
<stop offset="0.5228" stop-color="#9E84AA"/>
<stop offset="0.6865" stop-color="#A290B2"/>
<stop offset="0.8479" stop-color="#A9A3C1"/>
<stop offset="0.9901" stop-color="#B1BBD2"/>
</linearGradient>
<linearGradient id="paint47_linear" x1="137.164" y1="69.4484" x2="176.709" y2="54.8957" gradientUnits="userSpaceOnUse">
<stop offset="0.1091" stop-color="#447979"/>
<stop offset="0.9782" stop-color="#2C4E56"/>
</linearGradient>
<linearGradient id="paint48_linear" x1="134.657" y1="60.8897" x2="168.13" y2="48.5716" gradientUnits="userSpaceOnUse">
<stop offset="0.1091" stop-color="#447979"/>
<stop offset="0.9782" stop-color="#2C4E56"/>
</linearGradient>
<linearGradient id="paint49_linear" x1="128.202" y1="54.4468" x2="154.91" y2="44.6179" gradientUnits="userSpaceOnUse">
<stop stop-color="#BAD1E3"/>
<stop offset="0.4742" stop-color="#D6E1E9"/>
<stop offset="0.8512" stop-color="#FFFFEA"/>
</linearGradient>
<linearGradient id="paint50_linear" x1="104.125" y1="66.7354" x2="122.504" y2="59.9719" gradientUnits="userSpaceOnUse">
<stop stop-color="#BAD1E3"/>
<stop offset="0.4742" stop-color="#D6E1E9"/>
<stop offset="0.8512" stop-color="#FFFFEA"/>
</linearGradient>
<linearGradient id="paint51_linear" x1="197.643" y1="1.92384" x2="150.724" y2="90.5635" gradientUnits="userSpaceOnUse">
<stop stop-color="#5D9CBB"/>
<stop offset="0.3234" stop-color="#3C658D"/>
<stop offset="0.7183" stop-color="#182B5F"/>
<stop offset="0.9226" stop-color="#00004F"/>
</linearGradient>
<linearGradient id="paint52_linear" x1="172.617" y1="52.1572" x2="189.849" y2="45.8161" gradientUnits="userSpaceOnUse">
<stop stop-color="#5D9CBB"/>
<stop offset="0.3234" stop-color="#3C658D"/>
<stop offset="0.7183" stop-color="#182B5F"/>
<stop offset="0.9226" stop-color="#00004F"/>
</linearGradient>
<linearGradient id="paint53_linear" x1="161.521" y1="51.7173" x2="181.715" y2="44.286" gradientUnits="userSpaceOnUse">
<stop stop-color="#BAD1E3"/>
<stop offset="0.4742" stop-color="#D6E1E9"/>
<stop offset="0.8512" stop-color="#FFFFEA"/>
</linearGradient>
<linearGradient id="paint54_linear" x1="184.683" y1="49.6946" x2="190.248" y2="47.6465" gradientUnits="userSpaceOnUse">
<stop stop-color="#BAD1E3"/>
<stop offset="0.4742" stop-color="#D6E1E9"/>
<stop offset="0.8512" stop-color="#FFFFEA"/>
</linearGradient>
<linearGradient id="paint55_linear" x1="164.706" y1="49.2936" x2="172.646" y2="46.3716" gradientUnits="userSpaceOnUse">
<stop stop-color="#BAD1E3"/>
<stop offset="0.4742" stop-color="#D6E1E9"/>
<stop offset="0.8512" stop-color="#FFFFEA"/>
</linearGradient>
<linearGradient id="paint56_linear" x1="80.6334" y1="85.3085" x2="132.987" y2="85.3085" gradientUnits="userSpaceOnUse">
<stop offset="0.2083" stop-color="#E1721B"/>
<stop offset="0.8552" stop-color="#F2E1E9"/>
</linearGradient>
<linearGradient id="paint57_linear" x1="81.0792" y1="89.9319" x2="138.305" y2="89.9319" gradientUnits="userSpaceOnUse">
<stop offset="0.2083" stop-color="#E1721B"/>
<stop offset="0.8552" stop-color="#F2E1E9"/>
</linearGradient>
<linearGradient id="paint58_linear" x1="80.266" y1="86.8739" x2="132.624" y2="86.8739" gradientUnits="userSpaceOnUse">
<stop offset="0.2083" stop-color="#E1721B"/>
<stop offset="0.8552" stop-color="#F2E1E9"/>
</linearGradient>
<linearGradient id="paint59_linear" x1="79.0587" y1="87.1188" x2="89.9367" y2="87.1188" gradientUnits="userSpaceOnUse">
<stop offset="0.5179" stop-color="#BAD1E3"/>
<stop offset="0.8552" stop-color="#F2E1E9"/>
</linearGradient>
<linearGradient id="paint60_linear" x1="89.2072" y1="80.436" x2="86.4263" y2="79.0909" gradientUnits="userSpaceOnUse">
<stop offset="0.0813" stop-color="#DB2C0A"/>
<stop offset="0.4953" stop-color="#E1721B"/>
</linearGradient>
<linearGradient id="paint61_linear" x1="55.1229" y1="27.0606" x2="51.0699" y2="24.0208" gradientUnits="userSpaceOnUse">
<stop offset="0.0813" stop-color="#DB2C0A"/>
<stop offset="0.4953" stop-color="#E1721B"/>
</linearGradient>
<linearGradient id="paint62_linear" x1="71.8927" y1="45.2724" x2="78.1574" y2="45.2724" gradientUnits="userSpaceOnUse">
<stop stop-color="#5D9CBB"/>
<stop offset="0.3234" stop-color="#3C658D"/>
<stop offset="0.7183" stop-color="#182B5F"/>
<stop offset="0.9226" stop-color="#00004F"/>
</linearGradient>
<linearGradient id="paint63_linear" x1="72.2452" y1="45.4974" x2="75.2237" y2="45.4974" gradientUnits="userSpaceOnUse">
<stop stop-color="#BAD1E3"/>
<stop offset="0.4742" stop-color="#D6E1E9"/>
<stop offset="0.8512" stop-color="#FFFFEA"/>
</linearGradient>
<linearGradient id="paint64_linear" x1="51.4407" y1="24.9225" x2="53.2647" y2="25.5283" gradientUnits="userSpaceOnUse">
<stop stop-color="#BAD1E3"/>
<stop offset="0.4742" stop-color="#D6E1E9"/>
<stop offset="0.8512" stop-color="#FFFFEA"/>
</linearGradient>
<linearGradient id="paint65_linear" x1="49.0288" y1="125.565" x2="79.0587" y2="125.565" gradientUnits="userSpaceOnUse">
<stop offset="0.3552" stop-color="#9D80A7"/>
<stop offset="0.5228" stop-color="#9E84AA"/>
<stop offset="0.6865" stop-color="#A290B2"/>
<stop offset="0.8479" stop-color="#A9A3C1"/>
<stop offset="0.9901" stop-color="#B1BBD2"/>
</linearGradient>
<linearGradient id="paint66_linear" x1="41.369" y1="59.4689" x2="41.369" y2="104.223" gradientUnits="userSpaceOnUse">
<stop offset="0.2319" stop-color="white"/>
<stop offset="0.3801" stop-color="#FBFFFF"/>
<stop offset="0.5248" stop-color="#EFFFFE"/>
<stop offset="0.6681" stop-color="#DCFFFC"/>
<stop offset="0.8106" stop-color="#C0FFFB"/>
<stop offset="0.9512" stop-color="#9DFFF8"/>
<stop offset="1" stop-color="#8FFFF7"/>
</linearGradient>
<linearGradient id="paint67_linear" x1="32.1066" y1="96.5478" x2="32.1066" y2="107.035" gradientUnits="userSpaceOnUse">
<stop offset="0.2319" stop-color="white"/>
<stop offset="0.3801" stop-color="#FBFFFF"/>
<stop offset="0.5248" stop-color="#EFFFFE"/>
<stop offset="0.6681" stop-color="#DCFFFC"/>
<stop offset="0.8106" stop-color="#C0FFFB"/>
<stop offset="0.9512" stop-color="#9DFFF8"/>
<stop offset="1" stop-color="#8FFFF7"/>
</linearGradient>
<linearGradient id="paint68_linear" x1="49.2342" y1="128.52" x2="49.2342" y2="155.14" gradientUnits="userSpaceOnUse">
<stop offset="0.2319" stop-color="white"/>
<stop offset="0.3801" stop-color="#FBFFFF"/>
<stop offset="0.5248" stop-color="#EFFFFE"/>
<stop offset="0.6681" stop-color="#DCFFFC"/>
<stop offset="0.8106" stop-color="#C0FFFB"/>
<stop offset="0.9512" stop-color="#9DFFF8"/>
<stop offset="1" stop-color="#8FFFF7"/>
</linearGradient>
<linearGradient id="paint69_linear" x1="41.7215" y1="143.595" x2="41.7215" y2="175.821" gradientUnits="userSpaceOnUse">
<stop offset="0.2319" stop-color="white"/>
<stop offset="0.3801" stop-color="#FBFFFF"/>
<stop offset="0.5248" stop-color="#EFFFFE"/>
<stop offset="0.6681" stop-color="#DCFFFC"/>
<stop offset="0.8106" stop-color="#C0FFFB"/>
<stop offset="0.9512" stop-color="#9DFFF8"/>
<stop offset="1" stop-color="#8FFFF7"/>
</linearGradient>
<linearGradient id="paint70_linear" x1="82.6005" y1="128.208" x2="82.6005" y2="155.47" gradientUnits="userSpaceOnUse">
<stop offset="0.2319" stop-color="white"/>
<stop offset="0.3801" stop-color="#FBFFFF"/>
<stop offset="0.5248" stop-color="#EFFFFE"/>
<stop offset="0.6681" stop-color="#DCFFFC"/>
<stop offset="0.8106" stop-color="#C0FFFB"/>
<stop offset="0.9512" stop-color="#9DFFF8"/>
<stop offset="1" stop-color="#8FFFF7"/>
</linearGradient>
</defs>
</svg>
