<svg width="402" height="399" viewBox="0 0 402 399" fill="none" xmlns="http://www.w3.org/2000/svg">
<g clip-path="url(#clip0)">
<path d="M250.528 391.6C250.168 391.377 249.893 391.017 249.781 390.58C249.55 389.671 250.099 388.754 251.009 388.522C300.069 376.081 341.885 345.607 368.75 302.727C396.49 258.449 405.304 206.025 393.58 155.128C381.856 104.222 350.983 60.9295 306.661 33.2171C262.338 5.50474 209.862 -3.30114 158.914 8.41145C107.956 20.1326 64.6126 50.9661 36.881 95.2442C10.9004 136.718 1.41624 183.372 9.44988 230.162C9.44988 230.179 9.45847 230.188 9.45847 230.205L10.0679 234.449C10.2052 235.375 9.56146 236.233 8.6345 236.37C7.70754 236.507 6.84925 235.864 6.71192 234.938L6.10253 230.719C2.10287 207.397 2.38611 183.912 6.94366 160.915C11.6128 137.353 20.7193 114.657 34.0057 93.4521C48.2706 70.6871 66.5695 51.3948 88.3959 36.0981C109.476 21.333 132.95 10.9066 158.15 5.11032C183.358 -0.68596 209.021 -1.56055 234.444 2.51228C260.767 6.73088 285.667 16.0941 308.454 30.3361C331.242 44.5782 350.554 62.8673 365.866 84.672C380.646 105.731 391.083 129.182 396.885 154.356C402.687 179.539 403.562 205.176 399.485 230.582C395.262 256.88 385.89 281.754 371.634 304.519C344.305 348.145 301.768 379.142 251.858 391.798C251.378 391.926 250.906 391.84 250.528 391.6Z" fill="#F7F7F7"/>
<path d="M96.9446 368.767C96.4897 368.484 96.0434 368.201 95.5971 367.918C94.8074 367.412 94.5757 366.366 95.0821 365.577C95.5885 364.788 96.6356 364.565 97.4253 365.063C97.8801 365.346 98.335 365.637 98.7814 365.92C103.39 368.801 108.163 371.519 112.969 373.997C113.802 374.426 114.128 375.446 113.699 376.278C113.269 377.11 112.248 377.435 111.415 377.007C106.523 374.486 101.665 371.725 96.9789 368.792C96.9704 368.784 96.9618 368.775 96.9446 368.767ZM80.8172 357.543C80.7743 357.517 80.7228 357.483 80.6799 357.449C75.8734 353.744 71.1957 349.783 66.7669 345.676C66.0803 345.041 66.0374 343.97 66.6811 343.284C67.3162 342.598 68.3891 342.563 69.0757 343.198C73.4273 347.237 78.0278 351.129 82.757 354.773C83.4951 355.348 83.6324 356.411 83.066 357.148C82.5167 357.834 81.5468 357.997 80.8172 357.543ZM127.723 384.458C127.036 384.029 126.736 383.163 127.054 382.391C127.406 381.525 128.393 381.105 129.259 381.457C134.778 383.686 140.469 385.684 146.168 387.39C147.069 387.656 147.575 388.608 147.301 389.5C147.035 390.4 146.082 390.906 145.189 390.631C139.387 388.891 133.602 386.859 127.981 384.595C127.895 384.561 127.809 384.509 127.723 384.458ZM54.3474 332.986C54.2186 332.9 54.0899 332.797 53.9869 332.677C49.9443 328.167 46.0648 323.417 42.46 318.564C41.9021 317.809 42.0566 316.755 42.8119 316.197C43.5672 315.64 44.6229 315.794 45.1808 316.549C48.7255 321.325 52.5364 325.989 56.5103 330.422C57.1368 331.117 57.0768 332.188 56.3815 332.814C55.8065 333.32 54.9739 333.372 54.3474 332.986ZM162.321 394.841C161.737 394.481 161.411 393.778 161.557 393.067C161.746 392.149 162.639 391.557 163.557 391.738C169.385 392.912 175.35 393.838 181.272 394.473C182.199 394.576 182.877 395.407 182.774 396.342C182.671 397.268 181.839 397.945 180.903 397.842C174.878 397.191 168.81 396.256 162.879 395.056C162.681 395.021 162.493 394.944 162.321 394.841ZM32.8213 303.996C32.6068 303.859 32.4179 303.67 32.272 303.439C29.1307 298.268 26.1867 292.892 23.526 287.447C23.114 286.607 23.4659 285.595 24.307 285.184C25.1482 284.772 26.1609 285.124 26.5729 285.964C29.1821 291.314 32.0746 296.596 35.1645 301.681C35.6537 302.478 35.3962 303.524 34.598 304.005C34.0401 304.356 33.3535 304.33 32.8213 303.996ZM198.241 398.717C197.751 398.408 197.434 397.868 197.442 397.251C197.46 396.316 198.232 395.57 199.168 395.587C205.116 395.682 211.149 395.502 217.089 395.056C218.024 394.987 218.84 395.682 218.908 396.616C218.977 397.551 218.282 398.366 217.346 398.434C211.304 398.889 205.167 399.069 199.116 398.974C198.79 398.966 198.49 398.871 198.241 398.717Z" fill="#F7F7F7"/>
<path d="M8.18807 243.521L1.70794 288.716C1.60494 289.462 2.30016 290.063 3.02113 289.857L39.2498 279.319C39.9708 279.113 40.2368 278.221 39.7476 277.655L9.99049 242.998C9.41544 242.32 8.30823 242.646 8.18807 243.521Z" fill="#F7F7F7"/>
<path d="M6.8748 242.243C7.21812 241.677 7.76743 241.249 8.44548 241.051C9.48402 240.751 10.5741 241.069 11.2779 241.892L41.035 276.541C41.6444 277.244 41.8418 278.204 41.5757 279.096C41.3096 279.988 40.6144 280.674 39.7218 280.939L3.49311 291.477C2.60049 291.735 1.64778 291.529 0.943976 290.92C0.240173 290.311 -0.103145 289.394 0.0341819 288.476L6.51432 243.281C6.55723 242.903 6.68598 242.552 6.8748 242.243ZM37.7906 277.973L9.65568 245.21L3.52745 287.936L37.7906 277.973Z" fill="#F7F7F7"/>
<path d="M177.444 50.4002C177.539 51.2319 176.946 51.9779 176.114 52.0722C174.131 52.2951 172.14 52.5695 170.183 52.8782C170.106 52.8867 170.02 52.8953 169.943 52.8953C169.213 52.8953 168.569 52.3637 168.449 51.6177C168.321 50.7946 168.878 50.0229 169.702 49.8857C171.702 49.5685 173.736 49.2941 175.762 49.0626C176.612 48.9768 177.35 49.577 177.444 50.4002ZM119.518 71.4417C119.784 71.4417 120.059 71.3731 120.307 71.2188C124.101 68.9037 128.049 66.7601 132.04 64.8309C132.787 64.4707 133.105 63.5618 132.744 62.8159C132.384 62.0699 131.483 61.7527 130.727 62.1128C126.65 64.0849 122.608 66.2799 118.737 68.6465C118.024 69.0837 117.801 70.0098 118.23 70.7215C118.514 71.1845 119.011 71.4417 119.518 71.4417ZM143.816 59.7034C143.988 59.7034 144.168 59.6777 144.34 59.6091C148.503 58.0742 152.794 56.7366 157.094 55.6134C157.901 55.399 158.39 54.5759 158.175 53.7699C157.961 52.9639 157.137 52.4838 156.33 52.6895C151.936 53.8299 147.55 55.2104 143.293 56.7709C142.512 57.0625 142.108 57.9285 142.4 58.7087C142.623 59.3261 143.207 59.7034 143.816 59.7034ZM97.9317 87.6473C98.3008 87.6473 98.6613 87.5187 98.9531 87.2528C102.232 84.2518 105.691 81.388 109.235 78.7213C109.905 78.224 110.034 77.2723 109.536 76.6035C109.038 75.9347 108.085 75.8061 107.416 76.3034C103.794 79.0214 100.258 81.9539 96.9018 85.0235C96.2838 85.5894 96.2409 86.5412 96.8074 87.1585C97.1164 87.4844 97.5283 87.6473 97.9317 87.6473ZM84.4651 101.812C84.9028 101.812 85.3319 101.623 85.6324 101.263C86.9026 99.7286 88.2158 98.2023 89.5376 96.7361C90.0955 96.1188 90.044 95.1584 89.426 94.6011C88.8081 94.0438 87.8468 94.0952 87.2889 94.7126C85.9413 96.2045 84.5938 97.765 83.2978 99.3341C82.7656 99.9772 82.8601 100.929 83.5038 101.461C83.787 101.692 84.1218 101.812 84.4651 101.812ZM313.158 124.646C312.394 124.963 312.016 125.846 312.334 126.618C313.089 128.444 313.819 130.322 314.497 132.191C314.78 132.971 315.647 133.383 316.437 133.091C316.497 133.066 316.557 133.04 316.608 133.014C317.278 132.671 317.604 131.882 317.338 131.154C316.643 129.242 315.896 127.329 315.132 125.46C314.814 124.697 313.93 124.328 313.158 124.646ZM304.669 105.019C304.232 104.307 303.279 104.093 302.592 104.53C301.88 104.968 301.657 105.902 302.103 106.605C304.034 109.735 305.871 112.993 307.562 116.286L307.622 116.406C308 117.152 308.918 117.443 309.656 117.057C310.403 116.68 310.695 115.771 310.308 115.025L310.248 114.905C308.523 111.544 306.652 108.217 304.669 105.019ZM297.915 97.6021C298.584 97.1048 298.73 96.1616 298.232 95.4928C295.966 92.4232 293.546 89.405 291.04 86.524C290.49 85.8981 289.538 85.8295 288.903 86.3783C288.276 86.927 288.207 87.8788 288.757 88.5133C291.211 91.3343 293.58 94.2838 295.795 97.2849C296.241 97.8936 297.048 98.0651 297.7 97.7307C297.777 97.6964 297.846 97.6536 297.915 97.6021ZM281.023 80.3419C281.504 80.8049 282.208 80.8907 282.766 80.6077C282.912 80.5305 283.04 80.4362 283.161 80.3162C283.744 79.716 283.727 78.7642 283.135 78.1812C280.397 75.5231 277.513 72.9422 274.569 70.5157C273.925 69.9841 272.973 70.0784 272.44 70.7215C271.908 71.3645 272.003 72.3163 272.646 72.8479C275.522 75.2144 278.345 77.7353 281.023 80.3419ZM263.651 66.0398C264.124 66.3657 264.724 66.3914 265.205 66.1427C265.42 66.0313 265.608 65.8684 265.754 65.6626C266.235 64.9766 266.063 64.0334 265.377 63.5618C263.712 62.4129 262.004 61.2725 260.287 60.1921C259.583 59.7462 258.648 59.9606 258.201 60.6637C257.755 61.3668 257.961 62.3014 258.673 62.7473C260.347 63.8019 262.029 64.908 263.651 66.0398ZM99.2192 290.594C98.6012 290.037 97.6485 290.08 97.082 290.697C96.5241 291.314 96.567 292.266 97.185 292.832C98.6785 294.187 100.232 295.542 101.794 296.845C102.077 297.076 102.421 297.196 102.764 297.196C103.193 297.196 103.622 297.008 103.923 296.656C104.455 296.013 104.369 295.061 103.734 294.53C102.197 293.244 100.687 291.923 99.2192 290.594ZM124.822 309.012C121.106 306.937 117.449 304.665 113.939 302.255C113.252 301.784 112.308 301.955 111.836 302.641C111.364 303.327 111.536 304.27 112.222 304.742C115.81 307.203 119.552 309.526 123.346 311.653C123.578 311.781 123.835 311.841 124.084 311.841C124.616 311.841 125.131 311.559 125.406 311.07C125.818 310.341 125.552 309.424 124.822 309.012ZM148.236 319.353C144.202 318.006 140.177 316.454 136.289 314.731C135.525 314.397 134.632 314.74 134.298 315.503C133.963 316.266 134.306 317.158 135.07 317.492C139.053 319.25 143.164 320.836 147.284 322.216C147.447 322.268 147.601 322.294 147.764 322.294C148.4 322.294 148.983 321.891 149.198 321.265C149.464 320.476 149.035 319.618 148.236 319.353ZM173.17 325.157C168.947 324.583 164.707 323.803 160.57 322.842C159.755 322.654 158.948 323.16 158.759 323.974C158.57 324.789 159.077 325.595 159.892 325.792C164.115 326.778 168.449 327.575 172.767 328.159C172.835 328.167 172.904 328.176 172.973 328.176C173.719 328.176 174.363 327.627 174.466 326.872C174.578 326.032 173.994 325.269 173.17 325.157ZM191.932 326.418C189.932 326.418 187.924 326.375 185.95 326.289C185.074 326.246 184.414 326.898 184.371 327.73C184.336 328.562 184.98 329.265 185.813 329.307C187.83 329.393 189.881 329.436 191.924 329.436C192.756 329.436 193.434 328.759 193.434 327.927C193.434 327.095 192.765 326.418 191.932 326.418ZM93.2798 73.8682C93.2798 79.03 89.0741 83.2229 83.9158 83.2229C78.7488 83.2229 74.5518 79.0214 74.5518 73.8682C74.5518 68.7065 78.7574 64.5136 83.9158 64.5136C89.0827 64.505 93.2798 68.7065 93.2798 73.8682ZM90.2671 73.8682C90.2671 70.3699 87.4176 67.5232 83.9158 67.5232C80.4139 67.5232 77.5644 70.3699 77.5644 73.8682C77.5644 77.3666 80.4139 80.2133 83.9158 80.2133C87.4176 80.2133 90.2671 77.3666 90.2671 73.8682ZM244.709 332.36C244.709 337.522 240.503 341.715 235.345 341.715C230.178 341.715 225.981 337.513 225.981 332.36C225.981 327.207 230.187 323.005 235.345 323.005C240.503 322.997 244.709 327.198 244.709 332.36ZM241.696 332.36C241.696 328.862 238.847 326.015 235.345 326.015C231.843 326.015 228.993 328.862 228.993 332.36C228.993 335.858 231.843 338.705 235.345 338.705C238.847 338.705 241.696 335.858 241.696 332.36ZM289.829 41.0713L285.847 43.112L283.804 39.1335C283.427 38.3961 282.517 38.1045 281.779 38.4818C281.041 38.8591 280.749 39.768 281.126 40.5054L283.169 44.4839L279.187 46.5246C278.448 46.9018 278.157 47.8107 278.534 48.5481C278.912 49.2855 279.822 49.577 280.56 49.1998L284.542 47.1591L286.585 51.1376C286.963 51.875 287.873 52.1665 288.611 51.7892C289.349 51.412 289.641 50.5031 289.263 49.7657L287.22 45.7872L291.203 43.7465C291.941 43.3692 292.233 42.4603 291.855 41.7229C291.477 40.9855 290.568 40.694 289.829 41.0713ZM258.081 30.9878C259.884 34.5119 258.485 38.8505 254.957 40.6511C251.429 42.4517 247.086 41.0541 245.284 37.53C243.482 34.006 244.881 29.6673 248.408 27.8667C251.936 26.0661 256.27 27.4637 258.081 30.9878ZM255.395 32.3597C254.348 30.3104 251.824 29.5044 249.773 30.5505C247.721 31.5966 246.915 34.1174 247.962 36.1667C249.009 38.216 251.532 39.022 253.584 37.9759C255.635 36.9298 256.45 34.409 255.395 32.3597ZM91.546 301.106C91.546 305.068 88.3188 308.283 84.3621 308.283C80.4053 308.283 77.1781 305.059 77.1781 301.106C77.1781 297.145 80.4053 293.93 84.3621 293.93C88.3188 293.93 91.546 297.154 91.546 301.106ZM88.5334 301.106C88.5334 298.808 86.6623 296.939 84.3621 296.939C82.0618 296.939 80.1908 298.808 80.1908 301.106C80.1908 303.404 82.0618 305.273 84.3621 305.273C86.6623 305.273 88.5334 303.413 88.5334 301.106Z" fill="#F7F7F7"/>
<path d="M377.358 214.437C376.277 206.291 372.011 199.028 367.007 192.658C362.389 186.784 356.896 180.465 349.24 178.982C349.704 174.506 349.764 169.978 349.712 165.477C349.669 161.344 350.03 156.577 348.854 152.59C348.82 152.478 348.768 152.392 348.708 152.298C348.7 152.255 348.691 152.204 348.682 152.161C350.493 152.075 352.227 151.063 353.06 149.366C353.909 147.625 353.66 144.89 351.987 143.749C352.133 143.244 351.918 142.6 351.334 142.48C348.047 141.803 344.511 142.172 341.164 142.172C337.593 142.172 333.911 141.923 330.358 142.215C328.118 142.395 325.234 144.315 326.375 146.39C326.126 147.496 326.564 148.731 327.242 149.674C327.972 150.678 329.087 151.338 330.298 151.483C330.607 160.89 331.096 170.107 330.349 179.513C318.256 184.846 309.038 195.487 306.085 208.486C303.107 221.622 306.386 239.062 318.118 247.199C324.058 251.324 332.169 252.361 339.241 252.25C346.434 252.138 353.678 250.458 359.969 246.908C371.316 240.503 379.118 227.641 377.358 214.437ZM362.218 242.226C351.927 249.883 336.915 251.615 324.856 247.525C311.441 242.981 306.54 226.295 307.888 213.476C309.398 199.166 318.977 187.016 332.014 181.245C332.383 181.082 332.555 180.636 332.581 180.268C333.199 170.742 333.388 160.804 331.671 151.363C332.366 150.952 332.212 149.837 331.233 149.709C330.392 149.597 329.663 148.954 329.208 148.277C328.761 147.608 328.778 146.931 328.667 146.202C329.233 145.619 329.791 145.036 330.358 144.444C330.658 144.444 330.959 144.444 331.259 144.444C332.212 144.255 333.568 144.478 334.563 144.495C336.546 144.53 338.529 144.547 340.511 144.573C343.678 144.607 347.017 144.958 350.176 144.564C350.184 144.581 350.176 144.607 350.184 144.624C350.536 145.79 351.343 146.69 350.905 148.002C350.433 149.409 348.923 149.906 347.592 149.571C346.597 149.323 345.927 150.172 346.065 151.098C346.159 151.689 346.348 152.178 346.657 152.632C345.953 156.748 346.648 161.318 346.734 165.485C346.82 170.124 346.768 174.771 346.992 179.402C346.992 179.47 347.009 179.539 347.017 179.599C346.58 180.345 346.725 181.391 347.798 181.554C354.45 182.548 359.119 187.479 363.256 192.409C367.445 197.408 371.273 202.964 373.341 209.206C377.401 221.485 372.474 234.595 362.218 242.226Z" fill="#F7F7F7"/>
<path d="M367.805 207.757C367.574 207.303 367.205 207.14 366.836 207.157C366.904 206.848 366.878 206.514 366.707 206.222C365.411 203.976 360.313 204.919 358.158 204.825C353.369 204.619 348.571 204.405 343.782 204.207C334.014 203.813 324.11 203.067 314.334 203.487C313.904 203.504 313.664 203.736 313.57 204.027C313.295 203.856 312.849 203.942 312.72 204.319C309.639 213.879 309.39 225.883 315.252 234.483C320.977 242.869 331.817 244.747 341.344 244.027C350.442 243.341 359.609 239.654 365.128 232.126C370.269 225.103 371.788 215.654 367.805 207.757ZM362.338 231.825C356.845 238.445 348.099 241.42 339.713 241.746C330.641 242.098 320.9 240.023 316.17 231.517C311.493 223.114 313.424 213.948 313.767 204.868C313.896 205.005 314.076 205.108 314.316 205.142C322.685 206.222 331.233 206.351 339.653 206.745C343.765 206.934 347.867 207.114 351.978 207.286C354.03 207.371 356.09 207.457 358.141 207.543C359.806 207.611 363.471 208.58 364.166 206.823C364.166 206.84 364.158 206.848 364.158 206.865C364.158 206.925 364.158 206.985 364.158 207.045C364.166 207.671 364.673 208.177 365.299 208.186H365.548C365.574 208.186 365.591 208.177 365.608 208.177C365.565 208.417 365.582 208.683 365.72 208.949C369.41 216.46 367.591 225.515 362.338 231.825Z" fill="#F7F7F7"/>
<path d="M320.204 213.493C320.067 213.588 319.758 213.699 319.603 213.725C319.638 213.725 319.286 213.699 319.397 213.716C319.38 213.716 319.286 213.691 319.251 213.682C319.243 213.673 319.148 213.605 319.208 213.665C319.097 213.562 319.097 213.468 319.123 213.313C319.157 213.09 319.277 212.936 319.492 212.876C320.135 212.705 320.032 211.607 319.329 211.684C317.99 211.83 317.071 213.399 317.878 214.582C318.247 215.131 318.917 215.457 319.577 215.405C320.29 215.345 320.985 214.96 321.097 214.188C321.165 213.699 320.693 213.168 320.204 213.493Z" fill="#F7F7F7"/>
<path d="M320.642 208.469C320.582 207.869 320.273 207.337 319.869 206.9C319.663 206.677 319.329 206.608 319.045 206.685C318.17 206.9 317.209 207.303 316.917 208.237C316.677 209.009 317.046 209.884 317.835 210.132C318.505 210.338 318.891 209.369 318.307 209.018C318.239 208.975 318.307 208.752 318.35 208.709C318.47 208.572 318.659 208.486 318.865 208.434C318.925 208.572 318.968 208.726 319.011 208.872C319.106 209.189 319.08 209.575 319.286 209.849C319.483 210.115 319.758 210.201 320.067 210.055C320.599 209.789 320.693 209 320.642 208.469Z" fill="#F7F7F7"/>
<path d="M325.775 211.118C325.655 210.527 324.899 210.424 324.504 210.784C324.178 211.084 323.792 211.753 323.277 211.436C322.839 211.17 322.959 210.424 323.354 210.184C324.05 209.746 323.449 208.795 322.728 209.112C321.32 209.729 321.123 211.847 322.324 212.756C323.526 213.673 326.161 212.945 325.775 211.118Z" fill="#F7F7F7"/>
<path d="M343.361 233.094C343.189 232.434 342.331 232.4 341.979 232.914C341.73 233.275 341.584 233.703 341.224 233.978C341.121 234.055 340.966 234.149 340.846 234.166C340.777 234.183 340.709 234.175 340.64 234.166C340.58 234.158 340.58 234.158 340.546 234.141C340.408 234.046 340.331 233.849 340.314 233.626C340.297 233.412 340.305 233.24 340.546 233.172C341.138 233.017 341.035 232.048 340.4 232.083C338.795 232.168 338.426 234.329 339.421 235.341C340.915 236.85 343.867 235.084 343.361 233.094Z" fill="#F7F7F7"/>
<path d="M346.872 231.722C345.378 232.503 345.112 234.518 346.125 235.77C346.7 236.473 347.704 235.572 347.326 234.844C347.095 234.389 347.258 233.66 347.781 233.48C348.391 233.274 348.82 233.883 349.172 234.269C349.678 234.826 350.648 234.381 350.639 233.66C350.631 231.885 348.313 230.977 346.872 231.722Z" fill="#F7F7F7"/>
<path d="M346.46 228.944C346.305 228.318 345.567 228.233 345.129 228.593C345.249 228.49 344.975 228.713 344.983 228.704C344.829 228.884 344.786 228.936 344.855 228.876C344.88 228.85 344.872 228.859 344.837 228.902C344.794 228.953 344.743 228.996 344.691 229.039C344.631 229.09 344.717 229.03 344.597 229.099C344.417 229.202 344.305 229.262 344.134 229.176C344.065 229.142 343.953 229.004 343.902 228.85C343.842 228.653 343.85 228.413 343.988 228.241C344.185 228.01 344.228 227.693 344.039 227.444C343.876 227.23 343.49 227.101 343.25 227.29C342.159 228.13 342.108 229.896 343.335 230.668C344.546 231.422 346.872 230.625 346.46 228.944Z" fill="#F7F7F7"/>
<path d="M359.583 213.236C359.36 212.387 358.69 211.641 357.832 211.427C355.943 210.964 354.218 213.305 355.325 214.942C355.772 215.603 357.042 215.2 356.707 214.359C356.587 214.059 356.596 213.768 356.802 213.502C356.973 213.288 357.205 213.15 357.385 213.219C357.583 213.288 357.72 213.553 357.763 213.802C357.772 213.845 357.772 213.982 357.754 214.068C357.737 214.179 357.703 214.282 357.686 214.385C357.677 214.437 357.677 214.72 357.677 214.805C357.694 215.294 358.115 215.568 358.561 215.5C358.639 215.483 358.827 215.44 358.862 215.431C358.999 215.371 359.119 215.285 359.222 215.183C359.394 215.011 359.514 214.754 359.583 214.531C359.703 214.102 359.686 213.639 359.583 213.236Z" fill="#F7F7F7"/>
<path d="M358.587 215.483C358.578 215.483 358.57 215.483 358.561 215.483C358.527 215.491 358.518 215.5 358.587 215.483Z" fill="#F7F7F7"/>
<path d="M364.003 213.965C363.892 213.896 363.754 213.871 363.626 213.871C363.608 213.828 363.608 213.793 363.583 213.751C363.042 212.927 361.849 212.91 361.179 213.596C360.81 213.974 360.613 214.488 360.467 214.994C360.287 215.611 360.544 216.1 361.059 216.46C361.78 216.957 362.767 216.906 363.514 216.477C364.329 215.997 365.102 214.608 364.003 213.965ZM362.596 214.745C362.57 214.762 362.561 214.771 362.553 214.78C362.518 214.805 362.475 214.831 362.441 214.848C362.347 214.891 362.261 214.917 362.175 214.925C362.287 214.522 362.475 214.076 362.741 214.394C362.759 214.419 362.793 214.428 362.81 214.445C362.759 214.531 362.716 214.617 362.664 214.711C362.707 214.642 362.638 214.702 362.596 214.745Z" fill="#F7F7F7"/>
<path d="M332.1 192.135C331.525 190.523 328.907 189.185 327.705 190.857C325.723 190.754 323.963 192.486 324.298 194.57C324.667 196.868 327.216 198.248 329.379 197.494C331.499 196.739 332.881 194.321 332.1 192.135ZM328.976 195.813C327.851 196.293 326.564 195.787 326.058 194.673C325.457 193.318 326.624 191.903 328.023 191.895C328.16 191.895 328.28 191.835 328.358 191.749C329.388 191.509 330.366 191.637 330.632 192.898C330.89 194.098 330.066 195.35 328.976 195.813Z" fill="#F7F7F7"/>
<path d="M329.002 193.086C328.684 193.241 328.547 193.498 328.143 193.489C327.834 193.481 327.491 193.326 327.388 193.026C327.259 192.632 326.564 192.666 326.616 193.129C326.701 193.858 327.233 194.373 327.963 194.501C328.615 194.613 329.723 194.33 329.68 193.481C329.671 193.121 329.319 192.941 329.002 193.086Z" fill="#F7F7F7"/>
<path d="M343.49 183.149C341.705 181.339 338.091 181.219 336.392 183.2C336.375 183.183 336.357 183.166 336.332 183.157C332.993 181.717 333.293 187.556 334.16 189.211C335.765 192.263 339.773 193.301 342.649 191.363C345.344 189.554 345.79 185.481 343.49 183.149ZM342.537 189.151C341.353 190.668 339.01 191.097 337.319 190.205C336.349 189.691 335.576 188.713 335.199 187.684C335.019 187.196 334.426 183.766 335.877 184.152C335.911 184.555 336.418 184.812 336.795 184.495C338.271 183.217 340.383 182.446 342.082 183.903C343.559 185.164 343.704 187.65 342.537 189.151Z" fill="#F7F7F7"/>
<path d="M341.688 185.498C341.035 184.632 339.937 184.152 338.872 184.366C338.409 184.461 338.503 185.249 338.984 185.207C339.748 185.138 340.28 185.558 340.597 186.227C340.718 186.484 340.812 186.767 340.803 187.059C340.786 187.41 340.615 187.719 340.615 188.079C340.615 188.568 341.19 188.936 341.619 188.653C342.657 187.976 342.323 186.347 341.688 185.498Z" fill="#F7F7F7"/>
<path d="M335.37 131.016C333.86 130.751 330.907 131.531 330.95 133.452C329.491 134.995 330.126 137.67 332.109 138.708C334.512 139.96 337.259 138.562 338.169 136.135C339.01 133.897 337.782 131.445 335.37 131.016ZM334.229 137.507C332.229 137.713 330.444 135.106 332.461 133.786C332.744 133.606 332.778 133.323 332.693 133.091C332.778 133.006 332.873 132.929 332.984 132.851C333.439 132.56 333.997 132.448 334.538 132.466C335.825 132.508 336.89 133.4 336.761 134.763C336.632 136.075 335.576 137.37 334.229 137.507Z" fill="#F7F7F7"/>
<path d="M335.671 134.712C335.602 134.06 335.164 133.4 334.435 133.452C333.971 133.477 333.791 134.258 334.315 134.326C334.521 134.352 334.564 134.455 334.538 134.686C334.538 134.686 334.521 134.738 334.512 134.772C334.504 134.781 334.504 134.789 334.495 134.798C334.452 134.815 334.409 134.832 334.375 134.849C334.684 134.721 334.023 134.961 334.298 134.875C333.499 135.132 333.654 136.281 334.495 136.324C334.727 136.333 334.941 136.281 335.139 136.153C335.259 136.075 335.37 135.972 335.448 135.852C335.491 135.784 335.594 135.484 335.525 135.655C335.636 135.338 335.705 135.046 335.671 134.712Z" fill="#F7F7F7"/>
<path d="M350.854 124.243C348.734 122.142 345.069 121.808 342.571 123.377C342.494 123.377 342.417 123.394 342.331 123.445C339.035 125.332 338.22 130.15 340.451 133.143C342.709 136.161 347.55 136.736 350.425 134.283C353.309 131.831 353.558 126.918 350.854 124.243ZM348.846 133.031C346.623 134.618 343.043 133.992 341.593 131.651C340.477 129.85 340.675 127.784 341.619 126.069C341.773 126.06 341.928 126.009 342.065 125.898C344.134 124.14 347.378 123.462 349.481 125.623C351.429 127.621 351.129 131.394 348.846 133.031Z" fill="#F7F7F7"/>
<path d="M344.494 125.846C343.309 125.743 342.254 126.532 341.73 127.561C341.241 128.53 341.103 130.382 342.399 130.785C342.726 130.888 343.206 130.665 343.258 130.296C343.361 129.576 342.949 128.993 343.172 128.264C343.386 127.552 343.893 127.038 344.631 126.866C345.232 126.729 345.043 125.898 344.494 125.846Z" fill="#F7F7F7"/>
<path d="M339.782 112.213C337.962 110.635 334.847 110.944 333.568 112.83C331.285 113.816 330.032 116.552 331.207 118.987C332.649 121.988 336.598 122.922 339.233 120.933C341.988 118.849 342.511 114.571 339.782 112.213ZM338.048 119.578C336.332 120.744 333.911 120.256 332.821 118.438C332.092 117.229 332.306 115.814 333.027 114.708C333.164 115.222 334.006 115.42 334.246 114.871C335.087 112.985 337.327 112.007 338.906 113.773C340.468 115.523 339.911 118.309 338.048 119.578Z" fill="#F7F7F7"/>
<path d="M337.001 114.048C336.521 113.722 335.928 114.477 336.375 114.862C336.727 115.171 336.847 115.574 336.761 116.037C336.666 116.526 336.375 116.689 335.98 116.92C335.242 117.349 335.731 118.626 336.572 118.326C338.314 117.709 338.443 115.034 337.001 114.048Z" fill="#F7F7F7"/>
<path d="M348.245 101.906C346.15 100.852 342.674 101.761 342.133 104.282C342.091 104.47 342.168 104.65 342.297 104.77C341.704 106.442 342.116 108.414 343.593 109.581C345.61 111.175 348.914 110.481 350.176 108.26C351.412 106.099 350.459 103.021 348.245 101.906ZM348.991 107.017C348.39 108.603 346.202 109.272 344.751 108.466C343.146 107.574 342.923 105.199 344.03 103.853C344.082 103.793 344.108 103.733 344.125 103.673C344.949 103.055 345.893 102.678 347.026 102.995C348.674 103.458 349.592 105.448 348.991 107.017Z" fill="#F7F7F7"/>
<path d="M347.094 106.159C346.691 105.902 346.339 105.653 346.185 105.173C346.039 104.71 346.082 104.153 346.511 103.861C347.043 103.51 346.588 102.781 346.021 103.03C344.082 103.887 344.622 107.72 346.948 107.257C347.481 107.145 347.506 106.417 347.094 106.159Z" fill="#F7F7F7"/>
<path d="M227.56 101.898C226.736 96.6932 222.093 92.1574 219.054 88.0931L212.9 79.8446C210.548 76.6892 208.78 74.3656 208.549 70.267C208.145 63.1246 207.965 55.9735 207.682 48.8225C210.162 49.054 211.922 46.1987 210.403 43.9865C209.536 42.7261 208.111 42.5889 206.72 42.4946C204.18 42.3145 201.579 42.3917 199.039 42.4517C196.704 42.5118 192.284 42.2888 191.7 45.4013C191.22 47.9479 193.623 48.771 195.666 48.6253C195.305 52.3637 195.279 56.1536 195.391 59.9092C195.494 63.5533 195.262 67.9091 196.438 71.3817C196.455 71.4417 196.49 71.4846 196.515 71.536C188.979 78.3269 182.302 86.7555 177.813 95.8615C176.199 99.1369 173.35 104.17 175.298 107.831C177.367 111.716 183.512 110.627 187.023 110.609C193.365 110.575 199.708 110.541 206.051 110.515C208.952 110.498 211.853 110.489 214.754 110.472C217.449 110.455 220.719 110.944 223.311 110.086C226.65 108.98 228.075 105.139 227.56 101.898ZM221.14 107.969C218.539 108.26 215.741 108.011 213.123 108.02C207.871 108.046 202.609 108.071 197.356 108.097C192.172 108.123 186.954 108.312 181.77 108.174C178.474 108.08 176.569 106.691 177.478 103.133C178.088 100.757 179.246 98.451 180.362 96.2731C185.074 87.0556 192.387 79.7503 198.266 71.3645C198.455 71.0987 198.344 70.8415 198.138 70.6957C198.498 67.0602 197.683 63.0217 197.545 59.369C197.399 55.4333 197.417 51.4977 197.262 47.5621C197.228 46.7132 196.215 46.636 195.872 47.2362C195.339 47.1505 194.636 46.9876 194.481 46.7389C193.992 45.9929 194.962 45.0669 195.468 44.8183C196.55 44.2695 198.901 44.6039 200.06 44.5782C201.425 44.5525 202.789 44.5353 204.154 44.5353C204.721 44.5353 205.673 44.3638 206.205 44.5525C206.901 44.8097 208.643 46.5932 207.235 47.0047C206.944 47.0905 206.755 47.3048 206.66 47.5535C205.974 47.4334 205.201 47.8107 205.236 48.7025C205.442 53.9157 205.656 59.1203 205.862 64.3335C206.042 68.7579 205.579 73.5338 208.085 77.4009C210.849 81.6795 214.213 85.6752 217.26 89.7566C219.947 93.3578 224.839 98.0394 225.208 102.738C225.423 105.508 223.938 107.651 221.14 107.969Z" fill="#F7F7F7"/>
<path d="M215.853 95.0984C212.617 90.3739 209.381 85.658 206.102 80.9678C205.296 79.8189 204.832 78.9443 203.382 78.6785C201.399 78.3184 199.039 78.567 196.927 78.6871C197.065 78.1897 196.395 77.7096 196 78.1469C192.232 82.254 188.954 86.867 185.598 91.3171C183.418 94.2067 178.491 98.8283 179.212 102.918C179.427 104.153 180.165 104.839 181.392 105.028C183.915 105.413 186.997 104.702 189.546 104.556C195.048 104.239 200.575 104.007 206.085 104.273C209.021 104.419 211.887 104.822 214.806 105.173C216.162 105.336 217.698 105.585 218.891 104.702C222.238 102.232 217.277 97.1906 215.853 95.0984ZM214.299 103.047C210.514 102.515 206.72 102.224 202.892 102.172C198.979 102.121 195.056 102.275 191.151 102.498C189.194 102.61 187.237 102.738 185.28 102.867C184.722 102.901 182.594 103.398 182.079 103.073C180.482 102.035 181.761 100.097 182.371 99.0426C184.276 95.7329 186.988 92.7233 189.271 89.6623C191.486 86.6869 193.76 83.7031 195.786 80.582C195.854 80.5991 195.932 80.6077 196.009 80.6077C197.906 80.6334 199.828 80.462 201.717 80.582C204.085 80.7363 204.721 82.3483 205.948 84.1661C208.257 87.5701 210.548 90.9741 212.874 94.3696C213.982 95.9901 215.097 97.6193 216.205 99.2398C216.548 99.7457 217.561 100.715 217.604 101.349C217.784 104.11 215.647 103.235 214.299 103.047Z" fill="#F7F7F7"/>
<path d="M188.765 99.0597C188.627 98.511 187.786 98.631 187.778 99.1969C187.769 99.6857 186.919 99.9429 186.567 99.66C186.301 99.4456 186.37 99.0083 186.499 98.7339C186.705 98.3224 187.117 98.0308 187.58 98.0137C188.13 97.9965 188.121 97.2077 187.58 97.1648C185.924 97.0448 184.344 99.3084 185.804 100.569C186.928 101.529 189.177 100.689 188.765 99.0597Z" fill="#F7F7F7"/>
<path d="M189.975 94.0266C188.645 93.1606 186.902 94.5496 187.263 96.033C187.374 96.4789 188.138 96.4017 188.087 95.9216C188.018 95.2699 188.902 94.3867 189.503 94.9784C189.692 95.1756 189.761 95.5014 189.718 95.7586C189.666 96.1016 189.426 96.2817 189.237 96.5475C188.971 96.9162 189.409 97.302 189.769 97.242C190.439 97.122 190.773 96.3074 190.79 95.7072C190.808 95.0641 190.524 94.3867 189.975 94.0266Z" fill="#F7F7F7"/>
<path d="M200.858 85.7437C200.412 85.9667 199.665 86.4297 199.245 85.8981C199.125 85.7437 199.047 85.538 199.202 85.3922C199.322 85.2722 199.597 85.2464 199.7 85.3922C199.957 85.778 200.481 85.4436 200.3 85.0406C199.76 83.7974 197.932 84.5605 197.992 85.7695C198.078 87.5872 200.524 87.793 201.528 86.6269C201.948 86.1296 201.442 85.4522 200.858 85.7437Z" fill="#F7F7F7"/>
<path d="M203.854 81.6795C203.287 81.2336 202.48 81.2765 201.914 81.6881C201.648 81.8767 201.408 82.1682 201.305 82.4855C201.176 82.8542 201.313 83.1286 201.442 83.463C201.528 83.6773 201.914 83.6773 201.88 83.4029C201.82 82.9313 202.755 82.1425 203.158 82.5969C203.407 82.8799 203.296 83.5659 202.918 83.703C202.3 83.926 202.54 84.852 203.193 84.6977C204.506 84.389 204.901 82.5198 203.854 81.6795Z" fill="#F7F7F7"/>
<path d="M205.442 86.8412C205.236 86.584 204.892 86.6269 204.643 86.7984L204.635 86.7898C203.562 85.9838 201.914 86.6612 201.665 87.9645C201.605 88.2732 201.708 88.5218 201.965 88.6933C202.824 89.2935 203.991 89.7994 204.978 89.1906C205.828 88.6676 206.068 87.6301 205.442 86.8412ZM204.051 88.0159C203.742 88.1017 203.373 87.9559 203.038 87.793C203.27 87.3386 203.888 87.0642 204.36 87.27C204.369 87.27 204.377 87.27 204.377 87.2785C204.377 87.3386 204.386 87.39 204.412 87.45C204.506 87.6815 204.3 87.9388 204.051 88.0159Z" fill="#F7F7F7"/>
<path d="M200.292 35.2235C199.116 33.5001 195.94 32.9085 194.627 34.7605C193.048 35.1549 192.172 37.0156 192.808 38.7905C193.64 41.1313 196.601 42.246 198.807 41.097C200.867 40.0252 201.614 37.1528 200.292 35.2235ZM198.275 39.2192C197.297 40.0338 195.752 39.7765 194.893 38.9019C194.069 38.0531 194.129 36.3725 195.082 35.7895C195.177 35.7895 195.28 35.7809 195.374 35.738C195.503 35.6866 195.631 35.6351 195.769 35.5837C195.872 35.5751 195.975 35.5837 196.078 35.5922C196.258 35.618 196.37 35.5236 196.421 35.3865C197.245 35.2064 198.078 35.3007 198.704 36.0553C199.468 36.9899 199.142 38.499 198.275 39.2192Z" fill="#F7F7F7"/>
<path d="M198.361 36.4411C197.923 35.8409 196.919 35.5236 196.395 36.1753C196.172 36.4582 196.455 36.9556 196.816 36.7155C197.116 36.5183 197.399 36.887 197.374 37.1785C197.339 37.6072 196.901 38.0188 196.661 38.3446C196.515 38.5504 196.541 38.8676 196.661 39.0734C196.764 39.2535 196.901 39.3392 197.09 39.4078C197.322 39.485 197.631 39.3993 197.794 39.2192C198.429 38.5075 199.004 37.3328 198.361 36.4411Z" fill="#F7F7F7"/>
<path d="M212.823 27.1122C211.441 24.1197 207.562 22.6535 204.643 24.3255C204.635 24.3255 204.635 24.3341 204.635 24.3341C204.515 24.274 204.377 24.2569 204.231 24.3169C201.227 25.4316 200.12 29.4101 201.287 32.2139C202.601 35.3693 206.695 36.8698 209.767 35.4122C212.737 33.9974 214.222 30.1218 212.823 27.1122ZM209.072 33.7402C206.995 34.7605 204.103 33.7916 203.004 31.768C201.682 29.3415 203.073 27.0007 204.806 25.303C204.884 25.2258 204.927 25.1229 204.952 25.0286C207.338 24.5056 210.136 25.2429 211.235 27.6266C212.231 29.8045 211.235 32.6855 209.072 33.7402Z" fill="#F7F7F7"/>
<path d="M207.399 25.9803C206.42 25.4916 205.167 26.3576 204.532 27.0864C203.828 27.901 203.442 28.9385 203.605 30.0103C203.682 30.499 204.498 30.4905 204.583 30.0103C204.721 29.23 204.978 28.5441 205.579 27.9953C206.163 27.4637 206.969 27.4723 207.527 26.9835C207.836 26.7263 207.759 26.1604 207.399 25.9803Z" fill="#F7F7F7"/>
<path d="M200.721 19.4467C199.459 17.7832 196.026 17.0116 194.687 18.9065C194.344 18.9322 193.992 19.0608 193.674 19.3095C192.687 20.0812 192.352 21.5303 192.55 22.7221C193.022 25.5602 196.206 27.6438 198.901 26.2462C201.253 25.02 202.403 21.6589 200.721 19.4467ZM199.15 24.0768C198 25.4659 196.172 25.483 194.91 24.214C194.292 23.5881 193.854 22.7221 193.846 21.8304C193.837 21.3502 194.129 20.5528 194.558 20.0383C194.756 20.2098 195.047 20.287 195.279 20.1412C195.485 20.004 195.7 19.8754 195.914 19.7639C195.992 19.8325 196.077 19.9097 196.155 20.004C196.24 20.1069 196.404 19.9783 196.335 19.8668C196.292 19.7811 196.232 19.7125 196.18 19.6353C197.193 19.1809 198.24 19.1123 199.227 20.0469C200.369 21.1273 200.077 22.9622 199.15 24.0768Z" fill="#F7F7F7"/>
<path d="M198.447 21.1701C198.026 20.5013 197.202 20.1326 196.464 20.5185C196.009 20.7585 196.318 21.4959 196.816 21.3416C197.099 21.2559 197.305 21.4788 197.408 21.7275C197.434 21.7875 197.46 21.8646 197.468 21.9332C197.46 21.9332 197.46 22.0876 197.468 22.0704C197.46 22.1047 197.442 22.1476 197.46 22.1304C197.408 22.2162 197.245 22.4563 197.245 22.4563C197.022 22.9536 197.382 23.4509 197.932 23.348C198.919 23.1594 198.859 21.8218 198.447 21.1701Z" fill="#F7F7F7"/>
<path d="M209.038 13.1445C207.579 11.0438 204.395 11.1553 202.378 12.3471C202.051 12.5443 202.103 13.1016 202.446 13.2131C201.768 14.0277 201.605 15.2795 201.991 16.3085C202.729 18.2977 205.141 18.7436 206.944 18.0405C208.892 17.2774 210.394 15.0995 209.038 13.1445ZM206.575 16.72C205.485 17.2259 203.888 17.2088 203.167 16.1027C202.506 15.0823 202.807 13.6761 203.794 13.0245C204.91 12.7844 206.051 12.5186 207.098 13.1445C208.823 14.1649 208.145 15.9912 206.575 16.72Z" fill="#F7F7F7"/>
<path d="M207.175 14.6879C207.038 13.8819 206.437 13.2388 205.613 13.1617C205.158 13.1188 205.072 13.8476 205.502 13.9505C205.913 14.0534 206.068 14.4307 206.059 14.8337C206.051 15.2795 205.776 15.3996 205.527 15.7168C205.227 16.1027 205.407 16.6257 205.922 16.6686C206.943 16.7629 207.313 15.4682 207.175 14.6879Z" fill="#F7F7F7"/>
<path d="M252.553 235.324C252.605 235.315 252.656 235.307 252.717 235.298C263.703 233.643 277.693 230.917 282.053 219.118C285.212 210.578 280.937 201.155 274.414 195.453C268.423 190.223 260.827 188.165 252.948 187.333C256.536 180.971 259.9 174.489 263.042 167.912C264.681 168.246 266.398 168.178 268.046 167.612C274.414 165.4 276.998 156.422 272.62 151.243C271.625 150.069 270.38 149.254 269.041 148.757C268.964 148.2 268.612 147.711 267.891 147.488C264.81 146.545 261.557 147.162 258.974 148.808C258.587 148.68 258.184 148.577 257.772 148.508C253.3 144.795 247.129 142.995 241.233 143.175C228.967 143.561 218.187 151.792 209.227 159.346C208.669 159.809 208.137 160.298 207.587 160.77C198.412 154.57 190.439 144.838 179.255 142.515C168.123 140.208 157.866 147.213 153.472 157.237C148.897 167.68 149.781 178.836 153.231 189.777C150.983 190.445 148.743 191.191 146.545 192.066C143.129 193.429 139.516 195.118 135.988 197.099C133.817 194.338 130.332 192.658 126.616 193.043C124.607 193.249 122.736 194.158 121.26 195.496C118.471 196.748 116.557 199.877 116.857 203.127C117.097 205.725 118.488 208.014 120.445 209.755C119.475 210.99 118.599 212.276 117.853 213.613C112.892 222.454 115.561 233.36 125.723 236.61C131.293 238.393 137.731 238.411 143.507 238.882C144.863 238.994 146.228 239.071 147.584 239.165C140.117 253.227 133.817 271.816 151.609 279.113C167.393 285.587 183.34 274.852 196.035 262.599C197.863 264.708 199.734 266.783 201.717 268.764C204.678 271.731 207.939 274.766 211.467 277.493C209.587 280.253 209.098 283.392 211.561 286.684C216.728 293.621 229.826 294.718 233.808 287.13C259.42 288.682 255.832 252.481 252.553 235.324ZM156.896 180.516C154.562 167.552 158.115 147.291 175.092 147.479C186.104 147.599 194.859 158.111 203.562 164.354C196.249 171.076 189.546 178.381 183.272 186.055C182.302 186.064 181.324 186.047 180.354 186.055C179.47 186.064 178.852 186.51 178.474 187.136C171.874 186.51 165.291 186.973 158.845 188.336C158.047 185.772 157.377 183.166 156.896 180.516ZM167.239 207.646C164.836 203.101 162.57 198.445 160.707 193.652C166.715 192.298 172.869 191.612 179.04 191.363C174.938 196.662 171.015 202.098 167.239 207.646ZM121.166 222.891C121.037 219.135 122.676 215.663 125.285 212.533C126.684 212.996 128.126 213.236 129.525 213.193C135.267 213.022 138.821 207.954 138.203 202.458C141.988 200.315 145.747 198.608 148.683 197.399C150.794 196.533 152.948 195.804 155.12 195.144C157.489 201.249 160.51 207.243 163.686 212.945C160.158 218.304 156.733 223.723 153.386 229.167C152.536 230.548 151.601 232.083 150.639 233.729C140.949 233.42 121.535 234.038 121.166 222.891ZM239.559 198.78C238.331 196.525 237.01 194.321 235.636 192.152C238.22 192.238 240.795 192.349 243.37 192.486C242.117 194.595 240.846 196.696 239.559 198.78ZM266.741 161.318C267.316 161.027 267.797 160.649 268.243 160.238C267.874 160.872 267.385 161.421 266.784 161.79C266.424 162.013 266.046 162.167 265.66 162.253C265.754 162.039 265.857 161.816 265.96 161.601C266.226 161.516 266.484 161.447 266.741 161.318ZM255.146 152.975C254.502 154.227 254.098 155.608 254.038 157.108C253.91 160.392 255.583 163.436 258.072 165.494C254.442 172.739 250.639 179.882 246.631 186.896C241.954 186.716 237.293 186.784 232.924 186.716C232.615 186.707 232.298 186.707 231.989 186.698C226.195 178.553 219.38 171.153 211.561 164.834C225.165 153.147 242.58 142.832 255.146 152.975ZM195.906 180.113C199.099 176.666 203.493 172.071 208.574 167.466C214.754 173.331 220.402 179.727 225.414 186.578C213.819 186.355 202.214 186.098 190.61 186.047C192.353 184.04 194.104 182.051 195.906 180.113ZM166.655 218.166C169.273 222.659 171.874 226.929 174.182 230.891C174.938 232.186 175.702 233.48 176.474 234.766C169.865 234.672 163.248 234.432 156.648 234.063C159.892 228.713 163.213 223.397 166.655 218.166ZM173.959 271.851C164.467 276.464 148.056 277.767 145.713 264.159C144.237 255.602 149.095 246.728 153.343 239.568C157.617 239.825 161.9 240.048 166.183 240.185C170.775 240.34 175.358 240.408 179.95 240.434C183.821 246.608 187.932 252.635 192.473 258.32C186.911 263.653 180.834 268.515 173.959 271.851ZM201.202 249.291C199.605 251.032 197.974 252.781 196.301 254.505C193.305 250.706 190.507 246.762 187.847 242.749C187.34 241.986 186.86 241.197 186.353 240.425C194.112 240.365 201.863 240.143 209.613 239.705C206.858 242.955 204.068 246.162 201.202 249.291ZM214.608 233.712C205.648 234.321 196.678 234.689 187.709 234.792C186.061 234.809 184.405 234.801 182.757 234.801C178.337 227.65 174.165 220.327 170.123 212.97C175.109 205.631 180.362 198.471 185.95 191.594C200.318 191.989 214.763 191.714 229.156 191.98C231.714 195.864 234.083 199.877 236.203 204.027C232.547 209.686 228.736 215.26 224.71 220.704C221.449 225.12 218.076 229.45 214.608 233.712ZM249.747 192.889C249.841 192.898 249.927 192.898 250.021 192.906C260.467 193.729 272.286 197.005 276.354 207.826C281.942 222.694 264.209 227.753 253.189 229.459C252.579 229.553 251.97 229.63 251.36 229.725C249.309 221.073 246.348 212.627 242.529 204.602C245.009 200.752 247.412 196.842 249.747 192.889ZM245.962 230.514C238.023 231.611 230.049 232.486 222.058 233.154C228.006 225.652 233.68 217.909 239.027 209.935C240.134 212.439 241.164 214.985 242.099 217.575C243.619 221.811 244.906 226.132 245.962 230.514ZM241.404 280.339C239.353 281.462 237.173 281.934 234.958 281.951C234.873 277.064 230.933 273.017 226.315 271.885C225.818 271.765 225.26 271.671 224.676 271.602C221.972 270.359 219.131 271.122 216.651 272.648C216.145 272.871 215.673 273.128 215.235 273.428C214.334 272.742 213.475 272.074 212.686 271.43C208.008 267.632 203.768 263.353 199.854 258.8C204.24 254.265 208.137 249.746 211.39 246.007C213.338 243.77 215.252 241.497 217.14 239.208C227.182 238.488 237.199 237.442 247.172 236.07C247.859 239.654 248.374 243.264 248.725 246.899C249.661 256.785 251.73 274.663 241.404 280.339Z" fill="#F7F7F7"/>
<path d="M213.887 213.682C215.209 208.512 212.497 202.887 207.09 201.661C203.253 200.786 198.987 202.467 197.125 205.716C196.078 207.011 195.348 208.589 195.099 210.312C194.387 215.268 198.095 219.487 202.79 220.533C207.819 221.639 212.617 218.647 213.887 213.682Z" fill="#F7F7F7"/>
<path d="M83.4692 186.784C83.0572 182.557 79.3494 180.688 75.4784 180.156C68.9211 179.264 62.0804 178.999 55.4716 179.042C52.6649 179.059 30.9501 179.573 32.9842 185.918C31.6539 187.324 33.3104 190.317 34.7866 191.226C37.3186 192.803 40.4857 193.001 43.2923 192.135C42.3997 206.668 42.58 221.219 42.9576 235.778C43.1636 243.495 43.4468 251.212 43.8502 258.92C44.1506 264.605 44.5111 270.616 47.2834 275.726C52.2615 284.927 63.7026 287.336 70.7321 278.933C74.3026 274.663 75.487 269.235 75.7531 263.799C76.105 256.665 75.4956 249.42 75.2724 242.278C74.7489 225.592 74.2167 208.898 73.6932 192.212C76.9805 193.249 80.9286 191.792 82.9456 189.039C83.2889 188.576 83.2632 188.113 83.0572 187.745C83.3404 187.547 83.5121 187.221 83.4692 186.784ZM72.9207 189.639C72.5345 189.605 72.2513 189.785 72.071 190.051C71.4874 190.137 70.9638 190.557 70.9896 191.329C71.3415 204.242 71.6934 217.146 72.0453 230.059C72.2169 236.404 72.3886 242.741 72.5602 249.086C72.7319 255.353 73.4529 261.964 72.3371 268.181C71.35 273.668 68.2602 279.465 62.4924 281.068C56.8105 282.646 51.6865 278.187 49.4292 273.36C46.6826 267.495 46.8972 260.49 46.6054 254.162C46.3135 247.808 46.0818 241.454 45.9187 235.101C45.5411 220.344 45.6698 205.588 45.3008 190.831C45.275 189.88 44.2107 189.665 43.67 190.171C41.8418 190.24 40.0222 190.12 38.237 189.631C37.2757 189.374 36.0912 189.014 35.5763 188.105C35.2158 187.479 35.4475 186.707 35.3188 185.987C35.3016 185.884 35.2587 185.798 35.2072 185.721C35.6878 184.838 36.7607 184.058 37.4645 183.835C38.3657 183.535 39.3442 183.38 40.2797 183.192C42.2881 182.789 44.3137 182.488 46.3565 182.274C50.2531 181.863 54.1841 181.802 58.098 181.88C61.823 181.957 65.5394 182.171 69.2472 182.428C73.3585 182.72 79.6068 182.197 80.9715 187.127C80.9715 187.136 80.9801 187.144 80.9801 187.153C80.8857 187.204 80.7999 187.256 80.7226 187.333C78.3451 189.399 76.0106 189.888 72.9207 189.639Z" fill="#F7F7F7"/>
<path d="M75.6159 185.395C63.4968 186.621 51.9956 186.415 39.8937 185.121C39.3873 185.069 39.2843 185.892 39.7735 186.012C51.3262 188.645 64.1405 188.756 75.7962 186.673C76.5 186.544 76.3455 185.327 75.6159 185.395Z" fill="#F7F7F7"/>
<path d="M70.1312 224.263C70.0797 223.62 69.4703 223.362 68.9897 223.474C69.0926 223.148 69.0154 222.745 68.6892 222.574C63.2133 219.624 55.0767 219.727 49.3862 221.939C49.2489 221.991 49.1544 222.111 49.1115 222.239C49.1029 222.145 49.0944 222.059 49.0858 221.965C49.0257 221.365 48.1846 221.356 48.1417 221.965C47.4464 233.772 48.648 245.853 49.8067 257.6C50.4848 264.502 51.3345 277.158 61.0847 277.029C69.4789 276.918 71.41 265.694 71.8735 259.383C72.7404 247.817 71.0667 235.795 70.1312 224.263ZM61.059 275.203C50.6393 275.246 51.4461 257.326 50.871 250.363C50.1157 241.146 49.987 231.877 49.1459 222.677C49.2145 222.779 49.3347 222.857 49.5063 222.839C52.6563 222.625 55.8148 222.316 58.9733 222.471C62.1748 222.634 65.1702 223.568 68.3202 223.954C68.3803 223.963 68.4232 223.946 68.4747 223.946C68.4403 224.04 68.4318 224.143 68.4318 224.263C68.9897 233.24 69.9166 242.218 70.2428 251.212C70.4745 257.677 70.9466 275.16 61.059 275.203Z" fill="#F7F7F7"/>
<path d="M54.3645 226.115C53.9354 225.858 53.4376 225.789 52.9397 225.78C52.9483 225.377 53.1114 224.983 53.4547 224.743C53.9954 224.366 53.532 223.568 52.9397 223.86C51.8583 224.374 51.3605 225.558 51.6094 226.706C51.6781 227.041 52.0042 227.212 52.3132 227.238C53.017 227.307 53.7208 227.358 54.3731 227.041C54.725 226.852 54.6821 226.312 54.3645 226.115Z" fill="#F7F7F7"/>
<path d="M57.7205 224.769C57.3857 224.4 56.8021 224.194 56.33 224.134C55.7721 224.066 55.3172 224.177 54.828 224.426C54.3731 224.649 54.7164 225.266 55.1456 225.189C55.5833 225.112 56.064 225.24 56.4416 225.489C56.3644 225.686 56.2699 225.875 56.1412 226.055C55.8751 226.432 55.6348 226.681 55.7464 227.178C55.815 227.478 56.0897 227.633 56.3729 227.658C57.0424 227.718 57.3857 226.998 57.6089 226.484C57.8149 225.995 58.1239 225.215 57.7205 224.769Z" fill="#F7F7F7"/>
<path d="M54.1928 228.49C53.326 228.164 52.4248 228.799 52.1243 229.605C51.8068 230.428 52.09 232.014 53.3002 231.705C53.6092 231.628 53.7465 231.311 53.6864 231.019C53.6006 230.591 53.3088 230.428 53.3946 229.999C53.4633 229.622 53.6607 229.279 54.0813 229.304C54.5791 229.339 54.6048 228.644 54.1928 228.49Z" fill="#F7F7F7"/>
<path d="M64.4408 270.299C64.3464 269.904 63.8572 269.724 63.5225 269.921C63.0161 270.221 62.7157 270.736 62.0891 270.847C61.6857 270.925 61.3252 270.839 61.0162 270.642C61.1621 270.462 61.3166 270.299 61.5312 270.136C61.7544 269.964 61.5655 269.613 61.308 269.75C60.8961 269.973 60.5871 270.059 60.1322 270.093C59.5915 270.136 59.3425 270.624 59.5485 271.105C60.012 272.151 61.2394 272.579 62.3123 272.451C63.3508 272.339 64.7498 271.542 64.4408 270.299Z" fill="#F7F7F7"/>
<path d="M63.6339 265.257C63.1361 265.54 62.7842 266.097 62.7585 266.672C62.7327 267.289 63.0159 267.701 63.4708 268.026C63.7712 268.241 64.1661 267.821 63.9772 267.52C63.9601 267.495 63.9171 267.392 63.9 267.366C63.9 267.358 63.9086 267.358 63.9086 267.349C63.9343 267.229 63.9172 267.109 63.9429 266.989C63.9858 266.817 64.0888 266.603 64.2004 266.534C64.5265 266.312 64.7926 266.826 64.8012 267.109C64.8184 267.949 66.0457 268.138 66.2775 267.306C66.6809 265.874 64.9214 264.528 63.6339 265.257Z" fill="#F7F7F7"/>
<path d="M61.6599 264.545C61.2565 265.085 60.8445 266.251 60.1064 266.423C59.7287 266.509 58.9305 265.891 59.3425 265.548C59.6858 265.265 59.2481 264.725 58.879 264.94C57.6001 265.686 58.3297 267.366 59.5227 267.795C61.1878 268.395 62.6383 266.492 62.9387 265.068C63.1018 264.279 62.1234 263.928 61.6599 264.545Z" fill="#F7F7F7"/>
<path d="M56.7248 209.215C55.7291 207.628 53.2916 206.677 51.6093 207.646C50.8884 207.929 50.279 208.323 49.7812 209.078C49.1374 210.046 48.9658 211.195 49.3005 212.31C49.9871 214.582 52.5277 215.989 54.7507 214.968C56.8449 214.008 58.0122 211.264 56.7248 209.215ZM53.8409 213.408C52.5535 213.871 51.3175 212.893 50.9313 211.701C50.6051 210.698 51.0686 209.686 51.7982 208.94C53.0513 208.692 54.416 208.709 55.2056 209.926C56.0124 211.178 55.1884 212.919 53.8409 213.408Z" fill="#F7F7F7"/>
<path d="M53.5053 210.809C53.5134 210.793 53.481 210.801 53.5053 210.809V210.809Z" fill="#F7F7F7"/>
<path d="M54.4673 210.878C54.3386 210.552 53.9952 210.458 53.7206 210.681C53.7721 210.638 53.5318 210.792 53.712 210.707C53.6433 210.741 53.5747 210.767 53.5146 210.81C53.5146 210.81 53.5146 210.81 53.5232 210.81C53.5232 210.81 53.5232 210.81 53.5146 210.81C53.506 210.818 53.4974 210.818 53.4888 210.818C53.4974 210.81 53.4974 210.81 53.506 210.801C53.4373 210.792 53.4288 210.81 53.4116 210.801C53.3858 210.801 53.2314 210.75 53.2914 210.775C53.2829 210.775 53.2314 210.741 53.2056 210.732C53.1884 210.724 53.1799 210.698 53.1627 210.681C53.1627 210.681 53.1627 210.681 53.1627 210.672C53.2828 210.192 52.622 209.901 52.3559 210.329C51.9611 210.973 52.4503 211.641 53.0769 211.864C53.712 212.096 54.802 211.736 54.4673 210.878Z" fill="#F7F7F7"/>
<path d="M66.0456 197.871C64.9299 195.401 60.6813 193.515 58.4154 195.573C55.6088 195.744 53.463 198.445 54.0381 201.378C54.7676 205.099 58.7415 207.157 62.2777 206.094C65.6937 205.065 67.5133 201.129 66.0456 197.871ZM62.2348 204.293C59.9689 205.236 57.3339 204.456 56.0551 202.321C54.6904 200.023 55.8748 197.253 58.1837 196.473C58.2866 196.568 58.4326 196.619 58.6042 196.585C60.853 196.105 63.1274 195.727 64.4664 198.171C65.7195 200.435 64.5436 203.333 62.2348 204.293Z" fill="#F7F7F7"/>
<path d="M62.9644 198.917C62.3979 198.025 61.4195 197.519 60.3724 197.751C59.8231 197.871 59.9432 198.754 60.5097 198.737C61.1019 198.711 61.6083 199.106 61.8401 199.637C62.0975 200.229 61.6427 200.795 61.9516 201.344C62.046 201.506 62.2606 201.652 62.458 201.635C63.7541 201.498 63.4537 199.689 62.9644 198.917Z" fill="#F7F7F7"/>
<path d="M53.4802 162.33C50.5877 160.281 44.9745 160.77 43.7299 164.577C43.6956 164.671 43.6956 164.757 43.7042 164.834C41.3181 166.549 40.8203 170.364 42.6056 172.877C45.2577 176.615 50.7594 176.804 54.0381 173.82C57.4455 170.75 57.2996 165.048 53.4802 162.33ZM53.2656 172.079C51.2314 174.283 47.8927 174.814 45.3521 173.151C41.8932 170.896 42.7601 166.48 46.0731 164.679C46.2791 164.568 46.2877 164.276 46.1589 164.105C48.0214 162.845 50.0556 162.15 52.2957 163.668C55.0423 165.52 55.5143 169.653 53.2656 172.079Z" fill="#F7F7F7"/>
<path d="M47.5925 165.417C46.4681 165.691 45.6699 166.626 45.4296 167.741C45.2064 168.769 45.4468 170.373 46.7085 170.51C46.9917 170.544 47.2921 170.227 47.2663 169.953C47.2063 169.284 46.7085 168.795 46.7342 168.092C46.76 167.372 47.1462 166.626 47.8414 166.343C48.4079 166.12 48.2105 165.263 47.5925 165.417Z" fill="#F7F7F7"/>
<path d="M70.38 154.802C68.6119 152.538 64.5265 151.929 62.6811 154.347C60.4238 154.682 59.411 157.794 60.2092 159.878C61.4366 163.068 65.6251 164.731 68.6205 162.947C71.3241 161.344 72.3713 157.348 70.38 154.802ZM68.466 160.881C66.8353 162.587 64.1402 162.201 62.5524 160.632C61.2735 159.372 60.8186 156.088 62.6811 155.308C62.8184 155.376 62.9815 155.385 63.1274 155.299C63.2218 155.248 63.3163 155.196 63.4021 155.145C63.5137 155.136 63.6167 155.128 63.7282 155.128C63.9256 155.136 64.0458 154.99 64.0801 154.836C65.5822 154.253 67.2644 154.227 68.5776 155.368C70.2255 156.8 69.8565 159.432 68.466 160.881Z" fill="#F7F7F7"/>
<path d="M66.6209 156.345C66.2004 155.916 65.591 155.693 64.9987 155.865C63.9945 156.157 63.4881 157.451 64.0804 158.326C64.4838 158.917 65.3421 158.412 65.0417 157.768C64.9472 157.58 65.0846 157.245 65.2906 157.228C65.4193 157.211 65.5309 157.288 65.6167 157.365C65.6425 157.383 65.7712 157.597 65.7798 157.597C65.8399 157.726 65.8828 157.846 66.0029 157.957C66.2433 158.163 66.5694 158.18 66.8012 157.957C67.2646 157.52 67.0071 156.74 66.6209 156.345Z" fill="#F7F7F7"/>
<path d="M63.8229 137.722C62.1235 132.766 55.9008 130.485 51.6008 133.666C47.5925 133.22 45.833 139.171 46.3737 142.626C47.232 148.079 52.3475 151.115 57.6174 149.486C62.5869 147.951 65.5309 142.712 63.8229 137.722ZM58.51 147.239C55.0425 149.108 50.5365 148.182 48.7341 144.555C47.2063 141.486 47.7298 135.724 51.3948 134.746C51.575 134.978 51.884 135.098 52.2531 134.909C52.4591 134.806 52.6736 134.712 52.8882 134.618C52.9654 134.626 53.0427 134.626 53.1285 134.635C53.2573 134.652 53.3431 134.558 53.3688 134.446C56.7935 133.297 60.7931 134.429 62.1235 138.185C63.368 141.734 61.7716 145.473 58.51 147.239Z" fill="#F7F7F7"/>
<path d="M58.862 139.694C58.5616 139.376 57.9351 139.514 57.8406 139.96C57.6432 140.886 57.978 141.794 57.6862 142.738C57.36 143.809 56.639 144.658 55.6606 145.19C55.2572 145.413 55.5318 146.09 55.9781 145.936C57.2656 145.499 58.2612 144.598 58.862 143.381C59.377 142.335 59.7632 140.628 58.862 139.694Z" fill="#F7F7F7"/>
<path d="M72.5688 121.242C70.6805 118.944 66.4234 118.472 64.4321 120.899C64.209 121.164 64.269 121.525 64.4664 121.73C62.8786 123.411 62.6297 126.189 64.0545 128.135C65.7625 130.468 69.3759 130.914 71.6761 129.216C74.1394 127.407 74.4828 123.574 72.5688 121.242ZM70.7406 127.998C69.0497 129.267 66.2603 128.924 65.0587 127.132C63.8485 125.34 64.4579 122.836 65.9341 121.405C67.6936 120.624 69.7707 120.479 71.2212 122.048C72.7404 123.685 72.5344 126.652 70.7406 127.998Z" fill="#F7F7F7"/>
<path d="M69.0156 122.442C68.02 121.593 66.2347 122.382 66.3463 123.745C66.3978 124.397 67.2904 124.388 67.3591 123.745C67.3763 123.574 67.5565 123.445 67.7024 123.385C67.9256 123.291 68.0801 123.325 68.2517 123.428C68.8525 123.771 69.5649 122.914 69.0156 122.442Z" fill="#F7F7F7"/>
<path d="M53.1286 117.366C51.5751 116.157 48.8714 116.054 47.3522 117.392C44.8117 118.241 44.6314 121.542 46.1077 123.48C47.8758 125.795 51.3261 126.343 53.3689 124.088C55.0683 122.202 55.2314 119.012 53.1286 117.366ZM52.7252 122.639C50.0902 126.721 44.9233 121.645 46.6141 118.875C46.7772 119.184 47.1977 119.347 47.5153 119.029C48.6998 117.855 50.279 117.28 51.8755 118.112C53.5749 119.012 53.6865 121.147 52.7252 122.639Z" fill="#F7F7F7"/>
<path d="M51.652 118.644C50.8538 118.103 49.7552 118.686 49.1458 119.252C48.4763 119.878 48.2532 120.676 48.3819 121.559C48.442 121.936 48.9742 121.859 49.0772 121.559C49.2488 121.062 49.6694 120.564 50.0985 120.264C50.5706 119.938 51.1628 119.956 51.6435 119.673C52.064 119.441 52.0125 118.892 51.652 118.644Z" fill="#F7F7F7"/>
</g>
<defs>
<clipPath id="clip0">
<rect width="402" height="399" fill="white"/>
</clipPath>
</defs>
</svg>
